<?xml version="1.0" encoding="UTF-8"?>
<svg width="1107px" height="235px" viewBox="0 0 1107 235" version="1.1" xmlns="http://www.w3.org/2000/svg" xmlns:xlink="http://www.w3.org/1999/xlink">
    <!-- Generator: Sketch 52.2 (67145) - http://www.bohemiancoding.com/sketch -->
    <title>3</title>
    <desc>Created with Sketch.</desc>
    <g id="3" stroke="none" stroke-width="1" fill="none" fill-rule="evenodd">
        <g id="cp_app_easycla" transform="translate(36.000000, 25.000000)">
            <polygon id="Path" fill="#2299D5" points="231.7 134.2 289.3 134.2 289.3 113.9 231.7 113.9 231.7 88.4 294.4 88.4 294.4 66.4 205.5 66.4 205.5 185.3 295.8 185.3 295.8 163.3 231.7 163.3"></polygon>
            <path d="M351.3,66.4 L306.2,185.2 L332.7,185.2 L342,158.7 L386.4,158.7 L395.4,185.2 L422.5,185.2 L378.1,66.4 L351.3,66.4 Z M348.8,139.3 L364.3,95.7 L364.6,95.7 L379.6,139.3 L348.8,139.3 Z" id="Shape" fill="#2299D5" fill-rule="nonzero"></path>
            <path d="M494.7,115.8 C466.2,108.6 460.8,107.4 460.8,98.6 C460.8,89.1 470,85.7 478,85.7 C490.1,85.7 499.6,89.4 500.4,102.9 L524.6,102.9 C524.6,76.7 502.8,66.3 479.1,66.3 C458.6,66.3 436.6,77.3 436.6,100.6 C436.6,121.6 453.6,128.7 470.5,132.9 C487,137.5 504.2,139.3 504.2,151.7 C504.2,163.3 490.8,165.9 482.1,165.9 C468.7,165.9 457,160 457,144.9 L432.8,144.9 C432.3,172.9 456,185.3 481.1,185.3 C512.1,185.3 528.3,169.7 528.3,148.9 C528.5,123.3 503.2,117.7 494.7,115.8 Z" id="Path" fill="#2299D5"></path>
            <polygon id="Path" fill="#2299D5" points="596.1 113.4 568.3 66.4 538.8 66.4 582.6 139 582.6 185.3 608.8 185.3 608.8 139.7 652.9 66.4 623.7 66.4"></polygon>
            <path d="M719.1,164.3 C696.7,164.3 688.3,145.2 688.3,126.3 C688.3,106.4 696.7,87.3 719.1,87.3 C731.3,87.3 742.2,95.9 743.9,107.2 L768,107.2 C765,81 743.8,66.3 719,66.3 C684,66.3 663.2,92.5 663.2,126.2 C663.2,159 684,185.2 719,185.2 C747,185.2 766.4,167.2 768.9,138.8 L744.7,138.8 C742.9,154 734.3,164.3 719.1,164.3 Z" id="Path" fill="#2299D5"></path>
            <polygon id="Path" fill="#2299D5" points="815.8 66.4 789.6 66.4 789.6 185.2 873.7 185.2 873.7 163.3 815.8 163.3"></polygon>
            <path d="M955.6,66.4 L928.8,66.4 L883.7,185.2 L910.2,185.2 L919.5,158.7 L963.9,158.7 L972.9,185.2 L1000,185.2 L955.6,66.4 Z M926.3,139.3 L941.8,95.7 L942.1,95.7 L957.1,139.3 L926.3,139.3 Z" id="Shape" fill="#2299D5" fill-rule="nonzero"></path>
            <path d="M92.5,0.1 C41.4,0.1 0,41.5 0,92.6 C0,143.7 41.4,185.1 92.5,185.1 C143.6,185.1 185,143.7 185,92.6 C185,41.5 143.6,0.1 92.5,0.1 Z M23.4,111.6 C18.8,111.6 15,107.9 15,103.2 C15,98.5 18.7,94.8 23.4,94.8 C28.1,94.8 31.8,98.5 31.8,103.2 C31.8,107.9 28,111.6 23.4,111.6 Z M46.4,111.6 C41.8,111.6 38,107.9 38,103.2 C38,98.5 41.7,94.8 46.4,94.8 C51.1,94.8 54.8,98.5 54.8,103.2 C54.8,107.9 51.1,111.6 46.4,111.6 Z M46.4,89.6 C41.8,89.6 38,85.9 38,81.2 C38,76.5 41.7,72.8 46.4,72.8 C51.1,72.8 54.8,76.5 54.8,81.2 C54.8,85.9 51.1,89.6 46.4,89.6 Z M77.5,98.1 L77.5,105 L77.5,105.4 L77.5,108 L77.5,122.3 L77.5,122.7 L77.5,125.3 C77.5,129.7 73.9,133.3 69.5,133.3 C65.1,133.3 61.5,129.7 61.5,125.3 L61.5,122.7 L61.5,122.3 L61.5,108 L61.5,105.4 L61.5,105 L61.5,98.1 L61.5,81 C61.5,76.6 65.1,73 69.5,73 C73.9,73 77.5,76.6 77.5,81 L77.5,98.1 Z M69.5,68.7 C64.9,68.7 61.1,65 61.1,60.3 C61.1,55.7 64.8,51.9 69.5,51.9 C74.1,51.9 77.9,55.6 77.9,60.3 C77.8,64.9 74.1,68.7 69.5,68.7 Z M92.5,111.6 C87.9,111.6 84.1,107.9 84.1,103.2 C84.1,98.5 87.8,94.8 92.5,94.8 C97.2,94.8 100.9,98.5 100.9,103.2 C100.9,107.9 97.1,111.6 92.5,111.6 Z M123.5,98.1 L123.5,105 L123.5,105.4 L123.5,108 L123.5,122.3 L123.5,122.7 L123.5,125.3 C123.5,129.7 119.9,133.3 115.5,133.3 C111.1,133.3 107.5,129.7 107.5,125.3 L107.5,122.7 L107.5,122.3 L107.5,108 L107.5,105.4 L107.5,105 L107.5,98.1 L107.5,81 C107.5,76.6 111.1,73 115.5,73 C119.9,73 123.5,76.6 123.5,81 L123.5,98.1 Z M115.5,68.7 C110.9,68.7 107.1,65 107.1,60.3 C107.1,55.7 110.8,51.9 115.5,51.9 C120.2,51.9 123.9,55.6 123.9,60.3 C123.9,64.9 120.2,68.7 115.5,68.7 Z M138.4,111.6 C133.8,111.6 130,107.9 130,103.2 C130,98.5 133.7,94.8 138.4,94.8 C143.1,94.8 146.8,98.5 146.8,103.2 C146.8,107.9 143.1,111.6 138.4,111.6 Z M138.4,89.6 C133.8,89.6 130,85.9 130,81.2 C130,76.5 133.7,72.8 138.4,72.8 C143.1,72.8 146.8,76.5 146.8,81.2 C146.8,85.9 143.1,89.6 138.4,89.6 Z M161.5,111.6 C156.9,111.6 153.1,107.9 153.1,103.2 C153.1,98.5 156.8,94.8 161.5,94.8 C166.2,94.8 169.9,98.5 169.9,103.2 C170,107.9 166.1,111.6 161.5,111.6 Z" id="Shape" fill="#2299D5" fill-rule="nonzero"></path>
            <g id="Group" transform="translate(201.000000, 0.000000)" fill="#183A63">
                <path d="M24.4,45.7 C11.1,45.7 5.5,35.2 5.5,24.8 C5.5,14.4 11.1,3.9 24.4,3.9 C31.7,3.9 38,8.1 39.8,15.4 L44.6,15.4 C43.2,5.5 34,0 24.5,0 C8.6,0 0.8,11.7 0.8,24.8 C0.8,37.9 8.6,49.6 24.4,49.6 C36.1,49.6 43.9,42.2 45.1,30.4 L40.3,30.4 C39.5,38.8 33.7,45.7 24.4,45.7 Z" id="Path"></path>
                <path d="M75.1,0.1 C59.3,0.1 51.5,11.8 51.5,24.9 C51.5,38 59.3,49.7 75.1,49.7 C90.8,49.7 98.6,38 98.6,24.9 C98.8,11.8 90.9,0.1 75.1,0.1 Z M75.1,45.7 C61.8,45.7 56.2,35.2 56.2,24.8 C56.2,14.4 61.8,3.9 75.1,3.9 C88.2,3.9 93.8,14.4 93.8,24.8 C93.9,35.2 88.3,45.7 75.1,45.7 Z" id="Shape" fill-rule="nonzero"></path>
                <polygon id="Path" points="129.4 43.5 112.1 0.1 105.1 0.1 105.1 49.6 109.8 49.6 109.8 6.8 110 6.8 127.2 49.6 131.6 49.6 148.7 6.8 148.9 6.8 148.9 49.6 153.6 49.6 153.6 0.1 146.7 0.1"></polygon>
                <polygon id="Path" points="184.3 43.5 167.1 0.1 160 0.1 160 49.6 164.8 49.6 164.8 6.8 165 6.8 182.1 49.6 186.5 49.6 203.7 6.8 203.8 6.8 203.8 49.6 208.6 49.6 208.6 0.1 201.5 0.1"></polygon>
                <path d="M246.6,30.2 C246.6,37.5 244.1,40.7 236.2,40.7 C227.4,40.7 225.9,35.5 225.9,30.2 L225.9,0.1 L214.9,0.1 L214.9,30.2 C214.9,43.5 222.6,49.7 236.2,49.7 C249.5,49.7 257.6,43.3 257.6,30.2 L257.6,0.1 L246.6,0.1 L246.6,30.2 Z" id="Path"></path>
                <polygon id="Path" points="296 33.2 295.9 33.2 275 0.1 264.1 0.1 264.1 49.5 274.3 49.5 274.3 16.3 274.6 16.3 295.3 49.5 306.3 49.5 306.3 0.1 296 0.1"></polygon>
                <rect id="Rectangle" x="312.7" y="0.1" width="11" height="49.5"></rect>
                <polygon id="Path" points="330.1 9.2 345.1 9.2 345.1 49.5 356 49.5 356 9.2 371.1 9.2 371.1 0.1 330.1 0.1"></polygon>
                <polygon id="Path" points="401.6 19.6 389.9 0.1 377.6 0.1 396 30.3 396 49.6 407 49.6 407 30.6 425.4 0.1 413.3 0.1"></polygon>
                <path d="M460.4,23.3 C465.6,22.1 469.1,17.3 469.1,12.1 C469.1,2.9 461.4,0 453,0 L431.9,0 L431.9,49.5 L453,49.5 C469.2,49.5 470.9,40.1 470.9,35.5 C471,28.9 466.8,24.2 460.4,23.3 Z M436.6,4 L453,4 C460.6,4 464.3,7.2 464.3,13.2 C464.3,17.9 460.7,21.6 453,21.6 L436.6,21.6 L436.6,4 Z M453.1,45.4 L436.7,45.4 L436.7,25.7 L453.1,25.7 C461.5,25.7 466.2,28.9 466.2,35.2 C466.2,43.3 460.1,45.4 453.1,45.4 Z" id="Shape" fill-rule="nonzero"></path>
                <path d="M503.8,25.7 C510.2,24.3 513.6,19.3 513.6,13 C513.6,4 506.6,0.1 498.5,0.1 L475.6,0.1 L475.6,49.6 L480.4,49.6 L480.4,27.6 L498.4,27.6 C507.4,27.3 508.1,34.9 508.3,41.9 C508.5,44 508.5,47.7 509.6,49.6 L514.9,49.6 C512.8,47.2 512.8,40.4 512.5,36.9 C512.2,30.9 510.4,26.7 503.8,25.7 Z M498.1,23.6 L480.3,23.6 L480.3,4.1 L498.1,4.1 C505.4,4.1 508.9,7.9 508.9,14 C508.8,20 503.8,23.6 498.1,23.6 Z" id="Shape" fill-rule="nonzero"></path>
                <rect id="Rectangle" x="521.4" y="0.1" width="4.8" height="49.5"></rect>
                <path d="M549.8,0.1 L532.5,0.1 L532.5,49.6 L549.8,49.6 C564.9,49.3 572.8,41.2 572.8,24.8 C572.8,8.4 565,0.4 549.8,0.1 Z M547.5,45.4 L537.3,45.4 L537.3,4 L547.5,4 C561.8,4 568,9.9 568,24.8 C568,39.7 561.8,45.4 547.5,45.4 Z" id="Shape" fill-rule="nonzero"></path>
                <path d="M603.1,28.2 L620.1,28.2 C620.3,38.3 613.9,45.6 602.8,45.6 C589.5,45.6 583.9,35.1 583.9,24.7 C583.9,14.3 589.5,3.8 602.8,3.8 C612.3,3.8 618.3,10.2 618.9,15.7 L623.7,15.7 C621.8,5.4 613.4,0 602.9,0 C587.1,0 579.3,11.7 579.3,24.8 C579.3,37.9 587.1,49.6 602.9,49.6 C610.2,49.6 616.9,46.8 620.2,39.9 L620.3,39.9 L620.9,48.6 L624.4,48.6 L624.4,24.4 L603.3,24.4 L603.1,28.2 Z" id="Path"></path>
                <polygon id="Path" points="635.5 45.4 635.5 25.9 663.4 25.9 663.4 21.9 635.5 21.9 635.5 4 665.2 4 665.2 0.1 630.7 0.1 630.7 49.5 665.6 49.5 665.6 45.4"></polygon>
            </g>
        </g>
        <g id="Group-2" transform="translate(1004.000000, 78.000000)" fill="#000000" font-family="LucidaGrande-Bold, Lucida Grande" font-size="20" font-weight="bold">
            <text id="TM">
                <tspan x="0" y="19">TM</tspan>
            </text>
        </g>
    </g>
</svg>