<?xml version="1.0" encoding="utf-8"?>
<!-- Generator: Adobe Illustrator 23.0.3, SVG Export Plug-In . SVG Version: 6.00 Build 0)  -->
<svg version="1.1" id="Layer_1" xmlns="http://www.w3.org/2000/svg" xmlns:xlink="http://www.w3.org/1999/xlink" x="0px" y="0px"
	 viewBox="0 0 1000 185.3" style="enable-background:new 0 0 1000 185.3;" xml:space="preserve">
<style type="text/css">
	.st0{fill:#FFFFFF;}
</style>
<g>
	<polygon class="st0" points="231.7,134.2 289.3,134.2 289.3,113.9 231.7,113.9 231.7,88.4 294.4,88.4 294.4,66.4 205.5,66.4 
		205.5,185.3 295.8,185.3 295.8,163.3 231.7,163.3 	"/>
	<path class="st0" d="M351.3,66.4l-45.1,118.8h26.5l9.3-26.5h44.4l9,26.5h27.1L378.1,66.4H351.3z M348.8,139.3l15.5-43.6h0.3
		l15,43.6H348.8z"/>
	<path class="st0" d="M494.7,115.8c-28.5-7.2-33.9-8.4-33.9-17.2c0-9.5,9.2-12.9,17.2-12.9c12.1,0,21.6,3.7,22.4,17.2h24.2
		c0-26.2-21.8-36.6-45.5-36.6c-20.5,0-42.5,11-42.5,34.3c0,21,17,28.1,33.9,32.3c16.5,4.6,33.7,6.4,33.7,18.8
		c0,11.6-13.4,14.2-22.1,14.2c-13.4,0-25.1-5.9-25.1-21h-24.2c-0.5,28,23.2,40.4,48.3,40.4c31,0,47.2-15.6,47.2-36.4
		C528.5,123.3,503.2,117.7,494.7,115.8z"/>
	<polygon class="st0" points="596.1,113.4 568.3,66.4 538.8,66.4 582.6,139 582.6,185.3 608.8,185.3 608.8,139.7 652.9,66.4 
		623.7,66.4 	"/>
	<path class="st0" d="M719.1,164.3c-22.4,0-30.8-19.1-30.8-38c0-19.9,8.4-39,30.8-39c12.2,0,23.1,8.6,24.8,19.9H768
		c-3-26.2-24.2-40.9-49-40.9c-35,0-55.8,26.2-55.8,59.9c0,32.8,20.8,59,55.8,59c28,0,47.4-18,49.9-46.4h-24.2
		C742.9,154,734.3,164.3,719.1,164.3z"/>
	<polygon class="st0" points="815.8,66.4 789.6,66.4 789.6,185.2 873.7,185.2 873.7,163.3 815.8,163.3 	"/>
	<path class="st0" d="M955.6,66.4h-26.8l-45.1,118.8h26.5l9.3-26.5h44.4l9,26.5h27.1L955.6,66.4z M926.3,139.3l15.5-43.6h0.3
		l15,43.6H926.3z"/>
	<path class="st0" d="M92.5,0.1C41.4,0.1,0,41.5,0,92.6s41.4,92.5,92.5,92.5S185,143.7,185,92.6S143.6,0.1,92.5,0.1z M23.4,111.6
		c-4.6,0-8.4-3.7-8.4-8.4s3.7-8.4,8.4-8.4s8.4,3.7,8.4,8.4C31.8,107.9,28,111.6,23.4,111.6z M46.4,111.6c-4.6,0-8.4-3.7-8.4-8.4
		s3.7-8.4,8.4-8.4s8.4,3.7,8.4,8.4C54.8,107.9,51.1,111.6,46.4,111.6z M46.4,89.6c-4.6,0-8.4-3.7-8.4-8.4s3.7-8.4,8.4-8.4
		s8.4,3.7,8.4,8.4S51.1,89.6,46.4,89.6z M77.5,98.1v6.9v0.4v2.6v14.3v0.4v2.6c0,4.4-3.6,8-8,8c-4.4,0-8-3.6-8-8v-2.6v-0.4V108v-2.6
		v-0.4v-6.9V81c0-4.4,3.6-8,8-8c4.4,0,8,3.6,8,8V98.1z M69.5,68.7c-4.6,0-8.4-3.7-8.4-8.4c0-4.6,3.7-8.4,8.4-8.4
		c4.6,0,8.4,3.7,8.4,8.4C77.8,64.9,74.1,68.7,69.5,68.7z M92.5,111.6c-4.6,0-8.4-3.7-8.4-8.4s3.7-8.4,8.4-8.4s8.4,3.7,8.4,8.4
		C100.9,107.9,97.1,111.6,92.5,111.6z M123.5,98.1v6.9v0.4v2.6v14.3v0.4v2.6c0,4.4-3.6,8-8,8c-4.4,0-8-3.6-8-8v-2.6v-0.4V108v-2.6
		v-0.4v-6.9V81c0-4.4,3.6-8,8-8c4.4,0,8,3.6,8,8V98.1z M115.5,68.7c-4.6,0-8.4-3.7-8.4-8.4c0-4.6,3.7-8.4,8.4-8.4s8.4,3.7,8.4,8.4
		C123.9,64.9,120.2,68.7,115.5,68.7z M138.4,111.6c-4.6,0-8.4-3.7-8.4-8.4s3.7-8.4,8.4-8.4s8.4,3.7,8.4,8.4
		C146.8,107.9,143.1,111.6,138.4,111.6z M138.4,89.6c-4.6,0-8.4-3.7-8.4-8.4s3.7-8.4,8.4-8.4s8.4,3.7,8.4,8.4S143.1,89.6,138.4,89.6
		z M161.5,111.6c-4.6,0-8.4-3.7-8.4-8.4s3.7-8.4,8.4-8.4s8.4,3.7,8.4,8.4C170,107.9,166.1,111.6,161.5,111.6z"/>
	<g>
		<path class="st0" d="M225.4,45.7c-13.3,0-18.9-10.5-18.9-20.9s5.6-20.9,18.9-20.9c7.3,0,13.6,4.2,15.4,11.5h4.8
			C244.2,5.5,235,0,225.5,0c-15.9,0-23.7,11.7-23.7,24.8s7.8,24.8,23.6,24.8c11.7,0,19.5-7.4,20.7-19.2h-4.8
			C240.5,38.8,234.7,45.7,225.4,45.7z"/>
		<path class="st0" d="M276.1,0.1c-15.8,0-23.6,11.7-23.6,24.8s7.8,24.8,23.6,24.8c15.7,0,23.5-11.7,23.5-24.8
			C299.8,11.8,291.9,0.1,276.1,0.1z M276.1,45.7c-13.3,0-18.9-10.5-18.9-20.9s5.6-20.9,18.9-20.9c13.1,0,18.7,10.5,18.7,20.9
			C294.9,35.2,289.3,45.7,276.1,45.7z"/>
		<polygon class="st0" points="330.4,43.5 313.1,0.1 306.1,0.1 306.1,49.6 310.8,49.6 310.8,6.8 311,6.8 328.2,49.6 332.6,49.6 
			349.7,6.8 349.9,6.8 349.9,49.6 354.6,49.6 354.6,0.1 347.7,0.1 		"/>
		<polygon class="st0" points="385.3,43.5 368.1,0.1 361,0.1 361,49.6 365.8,49.6 365.8,6.8 366,6.8 383.1,49.6 387.5,49.6 
			404.7,6.8 404.8,6.8 404.8,49.6 409.6,49.6 409.6,0.1 402.5,0.1 		"/>
		<path class="st0" d="M447.6,30.2c0,7.3-2.5,10.5-10.4,10.5c-8.8,0-10.3-5.2-10.3-10.5V0.1h-11v30.1c0,13.3,7.7,19.5,21.3,19.5
			c13.3,0,21.4-6.4,21.4-19.5V0.1h-11L447.6,30.2L447.6,30.2z"/>
		<polygon class="st0" points="497,33.2 496.9,33.2 476,0.1 465.1,0.1 465.1,49.5 475.3,49.5 475.3,16.3 475.6,16.3 496.3,49.5 
			507.3,49.5 507.3,0.1 497,0.1 		"/>
		<rect x="513.7" y="0.1" class="st0" width="11" height="49.5"/>
		<polygon class="st0" points="531.1,9.2 546.1,9.2 546.1,49.5 557,49.5 557,9.2 572.1,9.2 572.1,0.1 531.1,0.1 		"/>
		<polygon class="st0" points="602.6,19.6 590.9,0.1 578.6,0.1 597,30.3 597,49.6 608,49.6 608,30.6 626.4,0.1 614.3,0.1 		"/>
		<path class="st0" d="M661.4,23.3L661.4,23.3c5.2-1.2,8.7-6,8.7-11.2C670.1,2.9,662.4,0,654,0h-21.1v49.5H654
			c16.2,0,17.9-9.4,17.9-14C672,28.9,667.8,24.2,661.4,23.3z M637.6,4h16.4c7.6,0,11.3,3.2,11.3,9.2c0,4.7-3.6,8.4-11.3,8.4h-16.4V4
			z M654.1,45.4h-16.4V25.7h16.4c8.4,0,13.1,3.2,13.1,9.5C667.2,43.3,661.1,45.4,654.1,45.4z"/>
		<path class="st0" d="M704.8,25.7L704.8,25.7c6.4-1.4,9.8-6.4,9.8-12.7c0-9-7-12.9-15.1-12.9h-22.9v49.5h4.8v-22h18
			c9-0.3,9.7,7.3,9.9,14.3c0.2,2.1,0.2,5.8,1.3,7.7h5.3c-2.1-2.4-2.1-9.2-2.4-12.7C713.2,30.9,711.4,26.7,704.8,25.7z M699.1,23.6
			h-17.8V4.1h17.8c7.3,0,10.8,3.8,10.8,9.9C709.8,20,704.8,23.6,699.1,23.6z"/>
		<rect x="722.4" y="0.1" class="st0" width="4.8" height="49.5"/>
		<path class="st0" d="M750.8,0.1h-17.3v49.5h17.3c15.1-0.3,23-8.4,23-24.8S766,0.4,750.8,0.1z M748.5,45.4h-10.2V4h10.2
			C762.8,4,769,9.9,769,24.8S762.8,45.4,748.5,45.4z"/>
		<path class="st0" d="M804.1,28.2h17c0.2,10.1-6.2,17.4-17.3,17.4c-13.3,0-18.9-10.5-18.9-20.9s5.6-20.9,18.9-20.9
			c9.5,0,15.5,6.4,16.1,11.9h4.8C822.8,5.4,814.4,0,803.9,0c-15.8,0-23.6,11.7-23.6,24.8s7.8,24.8,23.6,24.8c7.3,0,14-2.8,17.3-9.7
			h0.1l0.6,8.7h3.5V24.4h-21.1L804.1,28.2L804.1,28.2z"/>
		<polygon class="st0" points="836.5,45.4 836.5,25.9 864.4,25.9 864.4,21.9 836.5,21.9 836.5,4 866.2,4 866.2,0.1 831.7,0.1 
			831.7,49.5 866.6,49.5 866.6,45.4 		"/>
	</g>
</g>
</svg>
