<svg id="Layer_1" data-name="Layer 1" xmlns="http://www.w3.org/2000/svg" viewBox="0 0 276.58 133.88"><defs><style>.cls-1{fill:#fff;}</style></defs><title>CLA_Logo_NEW_W</title><path class="cls-1" d="M175.92,79.26q4.92,0,8.84-4.91l5.82,6.54Q183.79,88,175.86,88a19.06,19.06,0,0,1-13.38-5A16.88,16.88,0,0,1,157,69.87a17,17,0,0,1,5.53-13.16,18.77,18.77,0,0,1,13.12-5.07,20.37,20.37,0,0,1,7.69,1.57,19.44,19.44,0,0,1,6.84,4.65l-5.1,6.67a12.17,12.17,0,0,0-9-4.25,9.57,9.57,0,0,0-6.65,2.52,9,9,0,0,0-2.78,7,8.88,8.88,0,0,0,2.78,7A9.47,9.47,0,0,0,175.92,79.26Z"/><path class="cls-1" d="M201.71,87.44h-9.82V38.88h9.82Z"/><path class="cls-1" d="M235.67,87.44h-9.22V83.18A11.55,11.55,0,0,1,217.06,88a14,14,0,0,1-9.4-3.24,10.79,10.79,0,0,1-3.79-8.64q0-5.4,3.92-8.08t10.74-2.68h7.33v-.2q0-5.63-6-5.63a16,16,0,0,0-5.4,1A17.16,17.16,0,0,0,209.69,63l-4.38-6.35a26.24,26.24,0,0,1,15.84-5,16.39,16.39,0,0,1,10.47,3.21c2.7,2.13,4,5.52,4,10.14ZM225.79,74v-1.7h-6.15q-5.89,0-5.89,3.66a3.38,3.38,0,0,0,1.41,2.92,6.86,6.86,0,0,0,4,1,7.17,7.17,0,0,0,4.62-1.6A5.22,5.22,0,0,0,225.79,74Z"/><path class="cls-1" d="M99.21,77.63a7.22,7.22,0,0,1-.68.56l-2,1.43A7,7,0,0,1,86.79,78L75,61.62a7,7,0,0,1,1.6-9.75l2-1.42a7,7,0,0,1,9.74,1.6l6.28,8.7,27.81-20a44.66,44.66,0,1,0,7,15.16Z"/></svg>