<svg xmlns="http://www.w3.org/2000/svg" xmlns:xlink="http://www.w3.org/1999/xlink" xmlns:lucid="lucid" width="1800" height="1350"><g transform="translate(20 0)" lucid:page-tab-id="0_0"><path d="M0 0h1760v1360H0z" fill="#fff"/><path d="M119.97 225.38l25.4 19.72v5.33c0 13.93-11.38 25.25-25.4 25.25-14 0-25.4-11.32-25.4-25.25v-5.33zM134.44 282.7c16.1 0 29.06 9.67 29.06 25.43V340h-16.7v-22.36h-2.88V340H96.6v-22.36h-2.87V340H76.5v-31.87c0-15.76 12.96-25.44 29.06-25.44z" fill="#7d7c7c"/><path d="M119.95 220c13.9.1 25.1 11.43 25 25.26-.1 13.83-11.5 24.95-25.4 24.85-13.8-.1-24.95-11.2-25-25 0-13.87 11.4-25.1 25.35-25.1h.05zM134.44 277.36c16.1 0 29.06 9.68 29.06 25.44v31.86h-16.7v-22.4h-2.88v22.4H96.6v-22.4h-2.87v22.4H76.5V302.8c0-15.76 12.96-25.44 29.06-25.44z" fill="#d2d3d3"/><use xlink:href="#a" transform="matrix(1,0,0,1,76.5,340) translate(15.55 14.4)"/><use xlink:href="#b" transform="matrix(1,0,0,1,76.5,340) translate(8.049999999999997 36)"/><path d="M119.97 425.38l25.4 19.72v5.33c0 13.93-11.38 25.25-25.4 25.25-14 0-25.4-11.32-25.4-25.25v-5.33zM134.44 482.7c16.1 0 29.06 9.67 29.06 25.43V540h-16.7v-22.36h-2.88V540H96.6v-22.36h-2.87V540H76.5v-31.87c0-15.76 12.96-25.44 29.06-25.44z" fill="#7d7c7c"/><path d="M119.95 420c13.9.1 25.1 11.43 25 25.26-.1 13.83-11.5 24.95-25.4 24.85-13.8-.1-24.95-11.2-25-25 0-13.87 11.4-25.1 25.35-25.1h.05zM134.44 477.36c16.1 0 29.06 9.68 29.06 25.44v31.86h-16.7v-22.4h-2.88v22.4H96.6v-22.4h-2.87v22.4H76.5V502.8c0-15.76 12.96-25.44 29.06-25.44z" fill="#d2d3d3"/><use xlink:href="#c" transform="matrix(1,0,0,1,76.5,540) translate(26.525 14.4)"/><use xlink:href="#b" transform="matrix(1,0,0,1,76.5,540) translate(8.049999999999997 36)"/><path d="M119.97 625.38l25.4 19.72v5.33c0 13.93-11.38 25.25-25.4 25.25-14 0-25.4-11.32-25.4-25.25v-5.33zM134.44 682.7c16.1 0 29.06 9.67 29.06 25.43V740h-16.7v-22.36h-2.88V740H96.6v-22.36h-2.87V740H76.5v-31.87c0-15.76 12.96-25.44 29.06-25.44z" fill="#7d7c7c"/><path d="M119.95 620c13.9.1 25.1 11.43 25 25.26-.1 13.83-11.5 24.95-25.4 24.85-13.8-.1-24.95-11.2-25-25 0-13.87 11.4-25.1 25.35-25.1h.05zM134.44 677.36c16.1 0 29.06 9.68 29.06 25.44v31.86h-16.7v-22.4h-2.88v22.4H96.6v-22.4h-2.87v22.4H76.5V702.8c0-15.76 12.96-25.44 29.06-25.44z" fill="#d2d3d3"/><use xlink:href="#c" transform="matrix(1,0,0,1,76.5,740) translate(26.525 14.4)"/><use xlink:href="#d" transform="matrix(1,0,0,1,76.5,740) translate(5.549999999999997 36)"/><path d="M161.18 887.22c11.06 0 18.8 6.98 18.8 16.92v21.58h-9.72v-14.64h-2.67v14.64H152.6c-1-10.94-9.84-18.38-22.24-18.38h-8.62v-5.97c9.5-.85 17.12-4.5 17.94-14.2h.87zM99.34 887.2h.93c.88 9.68 8.44 13.34 17.93 14.2v5.93h-8.44c-12.4 0-21.3 7.48-22.23 18.4H72.86v-14.66H70.2l-.02 14.65H60V904.1c0-10 7.74-16.94 18.86-16.94z" fill="#7d7c7c"/><path d="M130.3 916.43c11.06 0 18.8 6.98 18.8 16.93V955h-9.78v-14.7h-2.62v14.65h-33.07V940.3h-2.56v14.65h-10.2v-21.6c0-9.94 7.75-16.92 18.8-16.92zM89.06 845.06l16.32 11.6v5c.1 9.14-7.18 16.6-16.28 16.7h-.04c-8.94 0-16.32-7.47-16.32-17.42v-4.4zM150.86 845.06l16.32 11.6v5c.1 9.14-7.18 16.6-16.28 16.7h-.04c-8.94 0-16.32-7.47-16.32-17.42v-4.4zM120 867.84l14.4 10.2v4.5c.14 8.07-6.28 14.72-14.35 14.87H120c-8.17-.2-14.63-6.94-14.42-15.1 0-.12 0-.2.02-.33v-4.02z" fill="#7d7c7c"/><path d="M150.88 840c9.18-.17 16.76 7.16 16.93 16.35.17 9.2-7.14 16.78-16.32 16.94-9.18.16-16.76-7.17-16.92-16.35v-.34c-.07-9.08 7.2-16.53 16.32-16.6zM119.96 862.7c8.14-.2 14.9 6.25 15.1 14.4.18 8.15-6.25 14.9-14.4 15.12-8.13.18-14.9-6.26-15.1-14.4v-.36c-.08-8.07 6.35-14.65 14.4-14.77zM161.18 882.08c11.06 0 18.8 6.98 18.8 16.94v21.64h-9.72V906h-2.67v14.66H152.6c-1-10.96-9.84-18.36-22.24-18.36h-8.62v-1.9c9.73-.96 17.12-8.52 17.94-18.24h.87zM99.34 882.1h.93c.82 9.75 8.2 17.3 17.93 18.27v1.85h-8.44c-12.4 0-21.3 7.48-22.23 18.4H72.86V906H70.2l-.02 14.65H60v-21.63c0-10 7.74-16.93 18.86-16.93z" fill="#d2d3d3"/><path d="M130.3 911.37c11.06 0 18.8 6.98 18.8 16.93v21.63h-9.78v-14.65h-2.62v14.65h-33.07v-14.65h-2.56v14.65h-10.2V928.3c0-9.95 7.75-16.93 18.8-16.93zM89.07 840c9.18-.17 16.76 7.16 16.93 16.35.16 9.2-7.15 16.78-16.33 16.94-9.18.16-16.76-7.17-16.93-16.35v-.34c-.06-9.08 7.22-16.5 16.33-16.6z" fill="#d2d3d3"/><use xlink:href="#e" transform="matrix(1,0,0,1,60,955) translate(14.574999999999996 14.4)"/><path d="M820 560h160v120H820z" stroke="#000" stroke-width="2" fill="#fff"/><use xlink:href="#f" transform="matrix(1,0,0,1,825,565) translate(11.599999999999994 48.775)"/><use xlink:href="#g" transform="matrix(1,0,0,1,825,565) translate(72.5 48.775)"/><use xlink:href="#h" transform="matrix(1,0,0,1,825,565) translate(4.125 70.375)"/><use xlink:href="#i" transform="matrix(1,0,0,1,825,565) translate(53.025 70.375)"/><use xlink:href="#j" transform="matrix(1,0,0,1,825,565) translate(78.025 70.375)"/><path d="M820 740h160v120H820z" stroke="#000" stroke-width="2" fill="#fff"/><use xlink:href="#k" transform="matrix(1,0,0,1,825,745) translate(35.074999999999996 38.4625)"/><use xlink:href="#g" transform="matrix(1,0,0,1,825,745) translate(42.05 60.0625)"/><use xlink:href="#l" transform="matrix(1,0,0,1,825,745) translate(4.650000000000006 81.66250000000001)"/><use xlink:href="#i" transform="matrix(1,0,0,1,825,745) translate(52.50000000000001 81.66250000000001)"/><use xlink:href="#j" transform="matrix(1,0,0,1,825,745) translate(77.5 81.66250000000001)"/><path d="M820 920h160v120H820z" stroke="#000" stroke-width="2" fill="#fff"/><use xlink:href="#m" transform="matrix(1,0,0,1,825,925) translate(30.599999999999994 38.4625)"/><use xlink:href="#g" transform="matrix(1,0,0,1,825,925) translate(42.05 60.0625)"/><use xlink:href="#h" transform="matrix(1,0,0,1,825,925) translate(4.125 81.66250000000001)"/><use xlink:href="#i" transform="matrix(1,0,0,1,825,925) translate(53.025 81.66250000000001)"/><use xlink:href="#j" transform="matrix(1,0,0,1,825,925) translate(78.025 81.66250000000001)"/><path d="M820 400h160v120H820z" stroke="#000" stroke-width="2" fill="#fff"/><use xlink:href="#n" transform="matrix(1,0,0,1,825,405) translate(19.525 48.775)"/><use xlink:href="#o" transform="matrix(1,0,0,1,825,405) translate(88.475 48.775)"/><use xlink:href="#p" transform="matrix(1,0,0,1,825,405) translate(48.074999999999996 70.375)"/><path d="M363.5 980h160v120h-160z" stroke="#000" stroke-width="2" fill="#fff"/><use xlink:href="#q" transform="matrix(1,0,0,1,368.5,985) translate(52.575 59.0875)"/><path d="M363.5 1160h160v120h-160z" stroke="#000" stroke-width="2" fill="#fff"/><use xlink:href="#r" transform="matrix(1,0,0,1,368.5,1165) translate(47.05 59.0875)"/><path d="M181 907.5h65.5V1040H344" stroke="#000" stroke-width="2" fill="none"/><path d="M181 908.5h-1v-2h1z"/><path d="M359.26 1040l-14.26 4.64v-9.28z" stroke="#000" stroke-width="2"/><path d="M181 907.5h65.5V1220H344" stroke="#000" stroke-width="2" fill="none"/><path d="M181 908.5h-1v-2h1z"/><path d="M359.26 1220l-14.26 4.64v-9.28z" stroke="#000" stroke-width="2"/><path d="M596.5 200h100v1120h-100z" stroke="#000" stroke-width="2" fill="#fff"/><use xlink:href="#s" transform="matrix(1,0,0,1,601.5,205) translate(24.85 517.36875)"/><use xlink:href="#t" transform="matrix(1,0,0,1,601.5,205) translate(21.549999999999997 538.96875)"/><use xlink:href="#u" transform="matrix(1,0,0,1,601.5,205) translate(6.549999999999997 560.56875)"/><use xlink:href="#v" transform="matrix(1,0,0,1,601.5,205) translate(53.45 560.56875)"/><use xlink:href="#w" transform="matrix(1,0,0,1,601.5,205) translate(30.5 582.16875)"/><use xlink:href="#x" transform="matrix(1,0,0,1,601.5,205) translate(9.524999999999999 603.7687500000001)"/><path d="M1096 200h80v1130h-80z" stroke="#000" stroke-width="2" fill="#fff"/><use xlink:href="#s" transform="matrix(1,0,0,1,1101,205) translate(14.850000000000001 556.9)"/><use xlink:href="#y" transform="matrix(1,0,0,1,1101,205) translate(2.5249999999999986 578.5)"/><path d="M1320 200h160v120h-160z" stroke="#000" stroke-width="2" fill="#fff"/><use xlink:href="#z" transform="matrix(1,0,0,1,1325,205) translate(31.574999999999996 48.775)"/><use xlink:href="#A" transform="matrix(1,0,0,1,1325,205) translate(55.574999999999996 48.775)"/><use xlink:href="#B" transform="matrix(1,0,0,1,1325,205) translate(42.05 70.375)"/><path d="M0 20h1760v80H0z" stroke="#000" stroke-opacity="0" stroke-width="2" fill="#fff" fill-opacity="0"/><use xlink:href="#C" transform="matrix(1,0,0,1,5,25) translate(462.1851851851851 44.85416666666667)"/><use xlink:href="#D" transform="matrix(1,0,0,1,5,25) translate(696.1111111111111 44.85416666666667)"/><use xlink:href="#E" transform="matrix(1,0,0,1,5,25) translate(767.2222222222222 44.85416666666667)"/><use xlink:href="#F" transform="matrix(1,0,0,1,5,25) translate(1066.037037037037 44.85416666666667)"/><path d="M1705.97 969.1v-12.6l-13.3-14.6-21.8 48.1 21.8 48.08 13.3-14.62v-12.7l-4.43 3.08v-6.15l4.43-2.32v-12.7l-4.43.1v-5.68l4.43.2v-12.4l-4.43-2.32v-4.33l4.43.86z" fill="#2e73b8"/><path d="M1668.9 1050l23.77-11.88v-96.24L1668.9 930l-26.88 60.96 26.9 59.04z" fill="#5294cf"/><path d="M1635.66 1050h33.26V930h-33.26l-17.22 60.96 17.22 59.04z" fill="#2e73b8"/><path d="M1635.64 1050l-23.96-11.88-7.52-47.16 7.52-49.08 23.9-11.88.06 120z" fill="#205b99"/><path d="M1701.55 1007.76l-8.9 4.33-23.75 5.1h-33.28l-23.22-5.1-.42-.1-.32-.1v-18.1l23.96 1.74h33.27l23.74-1.73 13.36-1.14h-4.45v-5.4h4.34l-13.26-.95-23.74-.76h-33.07l-24.17.58v-18.28h.32l23.85-5.68h33.06l23.74 5.68 8.9 4.7v-2.97l4.46-.38-13.36-9.34-23.74-7.7h-33.07l-24.17 7.98v-18.27L1600 956.5v12.7l3.4.37v3.08l-3.4 1.92v12.7h3.4v5.4l-3.4.08v12.6l3.4 1.93v3.17l-3.4.4v12.6l11.66 14.6v-18.27l23.96 7.4h33.27l23.74-7.4 13.36-8.94-4.45-.4v-2.68z" fill="#19486f"/><use xlink:href="#G" transform="matrix(1,0,0,1,1600,1050) translate(20.025 14.4)"/><use xlink:href="#H" transform="matrix(1,0,0,1,1600,1050) translate(7.074999999999996 36)"/><path d="M1648 725.42l57.98 8.62v5.1c0 7.53-25.98 13.63-58 13.63-32 0-57.98-6.1-57.98-13.64v-5.53z" fill="#8c3123"/><path d="M1648.02 762.13c24.2 0 44.93-3.54 53.58-8.5l2.88-4.78 1.15-4.4v5.45l-19 81c0 5.08-17.3 9.1-38.6 9.1-21.33 0-38.6-4.02-38.6-9.1l-19.02-81v-5.35l4.38 9.27c8.76 4.87 29.27 8.3 53.24 8.3z" fill="#8c3123"/><path d="M1648 720c32 0 58 6.12 58 13.62 0 7.5-26 13.57-58 13.57s-58-6.02-58-13.58c0-7.56 26-13.62 58-13.62z" fill="#e05243"/><path d="M1648 756.6c29.84 0 54.4-5.2 57.62-12.06l-19.02 81c0 5.05-17.3 9.1-38.6 9.1-21.33 0-38.6-4.05-38.6-9.1l-19.03-81c3.23 6.85 27.78 12.07 57.62 12.07z" fill="#e05243"/><path d="M1634.35 764.38h25.1v24.96h-25.1v-24.96zM1626.75 798.17c6.84 0 12.4 5.5 12.4 12.3 0 6.8-5.56 12.3-12.4 12.3-6.83 0-12.38-5.5-12.38-12.3 0-6.8 5.55-12.3 12.38-12.3zM1678.8 822.2H1654l12.4-22.94 12.4 22.94z" fill="#fff"/><use xlink:href="#c" transform="matrix(1,0,0,1,1590,840) translate(41.025 14.4)"/><use xlink:href="#I" transform="matrix(1,0,0,1,1590,840) translate(17.074999999999996 36)"/><use xlink:href="#v" transform="matrix(1,0,0,1,1590,840) translate(43 57.6)"/><use xlink:href="#J" transform="matrix(1,0,0,1,1590,840) translate(12.549999999999997 79.20000000000002)"/><path d="M1648 515.42l57.98 8.62v5.1c0 7.53-25.98 13.63-58 13.63-32 0-57.98-6.1-57.98-13.64v-5.53z" fill="#8c3123"/><path d="M1648.02 552.13c24.2 0 44.93-3.54 53.58-8.5l2.88-4.78 1.15-4.4v5.45l-19 81c0 5.08-17.3 9.1-38.6 9.1-21.33 0-38.6-4.02-38.6-9.1l-19.02-81v-5.35l4.38 9.27c8.76 4.87 29.27 8.3 53.24 8.3z" fill="#8c3123"/><path d="M1648 510c32 0 58 6.12 58 13.62 0 7.5-26 13.57-58 13.57s-58-6.02-58-13.58c0-7.56 26-13.62 58-13.62z" fill="#e05243"/><path d="M1648 546.6c29.84 0 54.4-5.2 57.62-12.06l-19.02 81c0 5.05-17.3 9.1-38.6 9.1-21.33 0-38.6-4.05-38.6-9.1l-19.03-81c3.23 6.85 27.78 12.07 57.62 12.07z" fill="#e05243"/><path d="M1634.35 554.38h25.1v24.96h-25.1v-24.96zM1626.75 588.17c6.84 0 12.4 5.5 12.4 12.3 0 6.8-5.56 12.3-12.4 12.3-6.83 0-12.38-5.5-12.38-12.3 0-6.8 5.55-12.3 12.38-12.3zM1678.8 612.2H1654l12.4-22.94 12.4 22.94z" fill="#fff"/><use xlink:href="#K" transform="matrix(1,0,0,1,1590,630) translate(10.575000000000003 14.4)"/><use xlink:href="#L" transform="matrix(1,0,0,1,1590,630) translate(49.525000000000006 14.4)"/><use xlink:href="#M" transform="matrix(1,0,0,1,1590,630) translate(33.5 36)"/><path d="M1320 340h160v120h-160z" stroke="#000" stroke-width="2" fill="#fff"/><use xlink:href="#N" transform="matrix(1,0,0,1,1325,345) translate(31.574999999999996 48.775)"/><use xlink:href="#A" transform="matrix(1,0,0,1,1325,345) translate(55.574999999999996 48.775)"/><use xlink:href="#B" transform="matrix(1,0,0,1,1325,345) translate(42.05 70.375)"/><path d="M1320 480h160v120h-160z" stroke="#000" stroke-width="2" fill="#fff"/><use xlink:href="#O" transform="matrix(1,0,0,1,1325,485) translate(31.574999999999996 48.775)"/><use xlink:href="#A" transform="matrix(1,0,0,1,1325,485) translate(55.574999999999996 48.775)"/><use xlink:href="#P" transform="matrix(1,0,0,1,1325,485) translate(59.05 70.375)"/><path d="M1320 620h160v120h-160z" stroke="#000" stroke-width="2" fill="#fff"/><use xlink:href="#Q" transform="matrix(1,0,0,1,1325,625) translate(34.074999999999996 48.775)"/><use xlink:href="#R" transform="matrix(1,0,0,1,1325,625) translate(43.574999999999996 70.375)"/><path d="M1320 760h160v120h-160z" stroke="#000" stroke-width="2" fill="#fff"/><use xlink:href="#S" transform="matrix(1,0,0,1,1325,765) translate(17.574999999999996 38.4625)"/><use xlink:href="#T" transform="matrix(1,0,0,1,1325,765) translate(75.525 38.4625)"/><use xlink:href="#A" transform="matrix(1,0,0,1,1325,765) translate(43.574999999999996 60.0625)"/><use xlink:href="#B" transform="matrix(1,0,0,1,1325,765) translate(42.05 81.66250000000001)"/><path d="M1320 910h160v120h-160z" stroke="#000" stroke-width="2" fill="#fff"/><use xlink:href="#S" transform="matrix(1,0,0,1,1325,914.9999999999999) translate(3.0999999999999943 38.4625)"/><use xlink:href="#U" transform="matrix(1,0,0,1,1325,914.9999999999999) translate(61.05 38.4625)"/><use xlink:href="#A" transform="matrix(1,0,0,1,1325,914.9999999999999) translate(43.574999999999996 60.0625)"/><use xlink:href="#B" transform="matrix(1,0,0,1,1325,914.9999999999999) translate(42.05 81.66250000000001)"/><path d="M1320 1060h160v120h-160z" stroke="#000" stroke-width="2" fill="#fff"/><use xlink:href="#V" transform="matrix(1,0,0,1,1325,1065) translate(32.55 38.4625)"/><use xlink:href="#W" transform="matrix(1,0,0,1,1325,1065) translate(8.625 60.0625)"/><use xlink:href="#A" transform="matrix(1,0,0,1,1325,1065) translate(78.525 60.0625)"/><use xlink:href="#B" transform="matrix(1,0,0,1,1325,1065) translate(42.05 81.66250000000001)"/><path d="M1320 1210h160v120h-160z" stroke="#000" stroke-width="2" fill="#fff"/><use xlink:href="#X" transform="matrix(1,0,0,1,1325,1215) translate(2.0999999999999943 38.4625)"/><use xlink:href="#L" transform="matrix(1,0,0,1,1325,1215) translate(92 38.4625)"/><use xlink:href="#Y" transform="matrix(1,0,0,1,1325,1215) translate(32.099999999999994 60.0625)"/><use xlink:href="#A" transform="matrix(1,0,0,1,1325,1215) translate(55.05 60.0625)"/><use xlink:href="#B" transform="matrix(1,0,0,1,1325,1215) translate(42.05 81.66250000000001)"/><path d="M1482 260h58.5v740h41" stroke="#000" stroke-width="2" fill="none"/><path d="M1482.03 261H1481v-2h1.03z"/><path d="M1596.76 1000l-14.26 4.64v-9.28z" stroke="#000" stroke-width="2"/><path d="M1482 400h58.5v600h41" stroke="#000" stroke-width="2" fill="none"/><path d="M1482.03 401H1481v-2h1.03z"/><path d="M1596.76 1000l-14.26 4.64v-9.28z" stroke="#000" stroke-width="2"/><path d="M1482 540h58.5v460h41" stroke="#000" stroke-width="2" fill="none"/><path d="M1482.03 541H1481v-2h1.03z"/><path d="M1596.76 1000l-14.26 4.64v-9.28z" stroke="#000" stroke-width="2"/><path d="M1482 680h58.5v320h41" stroke="#000" stroke-width="2" fill="none"/><path d="M1482.03 681H1481v-2h1.03z"/><path d="M1596.76 1000l-14.26 4.64v-9.28z" stroke="#000" stroke-width="2"/><path d="M1482 820h58.5v180h41" stroke="#000" stroke-width="2" fill="none"/><path d="M1482.03 821H1481v-2h1.03z"/><path d="M1596.76 1000l-14.26 4.64v-9.28z" stroke="#000" stroke-width="2"/><path d="M1482 970h58.5v30h41" stroke="#000" stroke-width="2" fill="none"/><path d="M1482.03 971H1481v-2h1.03z"/><path d="M1596.76 1000l-14.26 4.64v-9.28z" stroke="#000" stroke-width="2"/><path d="M1482 1120h68v70h10.5" stroke="#000" stroke-width="2" fill="none"/><path d="M1482.03 1121H1481v-2h1.03z"/><path d="M1575.76 1190l-14.26 4.64v-9.28z" stroke="#000" stroke-width="2"/><path d="M1482 1270h68v-80h10.5" stroke="#000" stroke-width="2" fill="none"/><path d="M1482.03 1271H1481v-2h1.03z"/><path d="M1575.76 1190l-14.26 4.64v-9.28z" stroke="#000" stroke-width="2"/><path d="M1599.95 1210c-11.02 0-19.95-8.95-19.95-20 0-8.84 5.4-16.3 13.8-19.02-.5-25.98 32.75-30.98 46.05-20.98 6.65-15 39.9-10 39.9 5 19.95-5 39.9 15 26.6 40 13.3 20 0 45-26.6 35-6.65 13-33.25 13-39.9 0-13.3 10-39.9 5-39.9-20z" stroke="#7c470f" stroke-width="2" fill="#f78d1e"/><use xlink:href="#Z" transform="matrix(1,0,0,1,1580,1140) translate(25.554999999999993 55.025)"/><path d="M705 700l40-40v20h35v-20l40 40-40 40v-20h-35v20z" stroke="#000" stroke-width="2" fill="#fff"/><path d="M525.5 1220H1240V820h60.5" stroke="#000" stroke-width="2" fill="none"/><path d="M525.53 1221h-1.03v-2h1.03z"/><path d="M1315.76 820l-14.26 4.64v-9.28z" stroke="#000" stroke-width="2"/><path d="M1190.5 700l40-40v20h35v-20l40 40-40 40v-20h-35v20z" stroke="#000" stroke-width="2" fill="#fff"/><path d="M525.5 1220H1239V970h61.5" stroke="#000" stroke-width="2" fill="none"/><path d="M525.53 1221h-1.03v-2h1.03z"/><path d="M1315.76 970l-14.26 4.64v-9.28z" stroke="#000" stroke-width="2"/><path d="M525.5 1040H577" stroke="#000" stroke-width="2" fill="none"/><path d="M525.53 1041h-1.03v-2h1.03z"/><path d="M592.26 1040l-14.26 4.64v-9.28z" stroke="#000" stroke-width="2"/><path d="M776.25 1220h240v60h-240z" stroke="#000" stroke-opacity="0" stroke-width="2" fill="#fff" fill-opacity="0"/><g><use xlink:href="#aa" transform="matrix(1,0,0,1,781.25,1225) translate(39.57499999999999 30.025)"/><use xlink:href="#ab" transform="matrix(1,0,0,1,781.25,1225) translate(116.52499999999999 30.025)"/></g><path d="M980 700l40-40v20h35v-20l40 40-40 40v-20h-35v20z" stroke="#000" stroke-width="2" fill="#fff"/><path d="M1482 540h58.4v250h40.9" stroke="#000" stroke-width="2" fill="none"/><path d="M1482.03 541H1481v-2h1.03z"/><path d="M1596.58 790l-14.27 4.64v-9.28z" stroke="#000" stroke-width="2"/><path d="M1482 400h58.4v180h40.9" stroke="#000" stroke-width="2" fill="none"/><path d="M1482.03 401H1481v-2h1.03z"/><path d="M1596.58 580l-14.27 4.64v-9.28z" stroke="#000" stroke-width="2"/><path d="M1592.95 410c-11.02 0-19.95-8.95-19.95-20 0-8.84 5.4-16.3 13.8-19.02-.5-25.98 32.75-30.98 46.05-20.98 6.65-15 39.9-10 39.9 5 19.95-5 39.9 15 26.6 40 13.3 20 0 45-26.6 35-6.65 13-33.25 13-39.9 0-13.3 10-39.9 5-39.9-20z" stroke="#7c470f" stroke-width="2" fill="#f78d1e"/><g><use xlink:href="#ac" transform="matrix(1,0,0,1,1573,340) translate(30.579999999999995 42.525)"/><use xlink:href="#ad" transform="matrix(1,0,0,1,1573,340) translate(30.105 64.125)"/><use xlink:href="#ae" transform="matrix(1,0,0,1,1573,340) translate(76.955 64.125)"/></g><path d="M1592.95 240c-11.02 0-19.95-8.95-19.95-20 0-8.84 5.4-16.3 13.8-19.02-.5-25.98 32.75-30.98 46.05-20.98 6.65-15 39.9-10 39.9 5 19.95-5 39.9 15 26.6 40 13.3 20 0 45-26.6 35-6.65 13-33.25 13-39.9 0-13.3 10-39.9 5-39.9-20z" stroke="#7c470f" stroke-width="2" fill="#f78d1e"/><g><use xlink:href="#af" transform="matrix(1,0,0,1,1573,170) translate(30.554999999999993 55.025)"/></g><path d="M1482 400h45.8v-.16h28.3" stroke="#000" stroke-width="2" fill="none"/><path d="M1482.03 401H1481v-2h1.03z"/><path d="M1571.36 399.84l-14.27 4.64v-9.27z" stroke="#000" stroke-width="2"/><path d="M1482 400h58V220h13.5" stroke="#000" stroke-width="2" fill="none"/><path d="M1482.03 401H1481v-2h1.03z"/><path d="M1568.76 220l-14.26 4.64v-9.28z" stroke="#000" stroke-width="2"/><path d="M120 201.5V170h241.5" fill="none"/><path d="M120 201.5v-10.1m0-10.12V170h8.94m10.1 0h20.24m10.1 0h20.23m10.12 0h20.22m10.1 0h20.24m10.1 0h20.23m10.12 0h20.22m10.1 0h20.24m10.1 0h10.12" stroke="#000" stroke-width="2" fill="none"/><path d="M120 216.77l-4.64-14.27h9.28z" stroke="#000" stroke-width="2"/><path d="M362.5 169.95l.03 1.05h-1.06v-2h1.15z"/><path d="M120 401.5V398h100V170h141.5" fill="none"/><path d="M120 401.5V398h6.36m9.85 0h19.72m9.85 0h19.7m9.87 0h19.7m4.96-4.9v-19.7m0-9.86v-19.7m0-9.86v-19.7m0-9.86v-19.7m0-9.86v-19.7m0-9.87v-19.72m0-9.85v-19.7m0-9.86V170h3.54m9.85 0h19.7m9.86 0h19.7m9.86 0h19.7m9.86 0h19.7m9.87 0h9.85" stroke="#000" stroke-width="2" fill="none"/><path d="M120 416.77l-4.64-14.27h9.28z" stroke="#000" stroke-width="2"/><path d="M362.5 169.95l.03 1.05h-1.06v-2h1.15z"/><path d="M120 601.5V598h100V170h141.5" fill="none"/><path d="M120 601.5V598h6.7m10.2 0h20.4m10.2 0h20.38m10.2 0h20.4m1.52-8.66v-20.4m0-10.2v-20.4m0-10.2v-20.38m0-10.2v-20.4m0-10.2V446.6m0-10.2v-20.4m0-10.2V385.4m0-10.2v-20.4m0-10.2v-20.4m0-10.18v-20.4m0-10.2v-20.4m0-10.2v-20.38m0-10.2v-20.4m0-10.2v-20.38m8.94-1.26h20.4m10.2 0h20.38m10.2 0h20.4m10.2 0h20.4m10.18 0h10.2" stroke="#000" stroke-width="2" fill="none"/><path d="M120 616.77l-4.64-14.27h9.28z" stroke="#000" stroke-width="2"/><path d="M362.5 169.95l.03 1.05h-1.06v-2h1.15z"/><path d="M383.45 190c-11.02 0-19.95-8.95-19.95-20 0-8.84 5.4-16.3 13.8-19.02C376.8 125 410.04 120 423.34 130c6.65-15 39.9-10 39.9 5 19.95-5 39.9 15 26.6 40 13.3 20 0 45-26.6 35-6.65 13-33.25 13-39.9 0-13.3 10-39.9 5-39.9-20z" stroke="#7c470f" stroke-width="2" fill="#f78d1e"/><g><use xlink:href="#ag" transform="matrix(1,0,0,1,363.5,120) translate(45.505 55.025)"/></g><path d="M120 861.7v-46.37h457" stroke="#000" stroke-width="2" fill="none"/><path d="M121 862.8l-1.04-.1-.96.13v-1.16h2z"/><path d="M592.26 815.33L578 819.97v-9.27z" stroke="#000" stroke-width="2"/><path d="M161.03 690H577" stroke="#000" stroke-width="2" fill="none"/><path d="M161.06 691h-.5l-.4-.82-.85-1.18h1.76z"/><path d="M592.26 690L578 694.64v-9.28z" stroke="#000" stroke-width="2"/><path d="M161.03 490H577" stroke="#000" stroke-width="2" fill="none"/><path d="M161.06 491h-.5l-.4-.82-.85-1.18h1.76z"/><path d="M592.26 490L578 494.64v-9.28z" stroke="#000" stroke-width="2"/><path d="M161.03 290H577" stroke="#000" stroke-width="2" fill="none"/><path d="M161.06 291h-.5l-.4-.82-.85-1.18h1.76z"/><path d="M592.26 290L578 294.64v-9.28z" stroke="#000" stroke-width="2"/><defs><path d="M30-248c87 1 191-15 191 75 0 78-77 80-158 76V0H30v-248zm33 125c57 0 124 11 124-50 0-59-68-47-124-48v98" id="ah"/><path d="M114-163C36-179 61-72 57 0H25l-1-190h30c1 12-1 29 2 39 6-27 23-49 58-41v29" id="ai"/><path d="M100-194c62-1 85 37 85 99 1 63-27 99-86 99S16-35 15-95c0-66 28-99 85-99zM99-20c44 1 53-31 53-75 0-43-8-75-51-75s-53 32-53 75 10 74 51 75" id="aj"/><path d="M24-231v-30h32v30H24zM-9 49c24 4 33-6 33-30v-209h32V24c2 40-23 58-65 49V49" id="ak"/><path d="M100-194c63 0 86 42 84 106H49c0 40 14 67 53 68 26 1 43-12 49-29l28 8c-11 28-37 45-77 45C44 4 14-33 15-96c1-61 26-98 85-98zm52 81c6-60-76-77-97-28-3 7-6 17-6 28h103" id="al"/><path d="M96-169c-40 0-48 33-48 73s9 75 48 75c24 0 41-14 43-38l32 2c-6 37-31 61-74 61-59 0-76-41-82-99-10-93 101-131 147-64 4 7 5 14 7 22l-32 3c-4-21-16-35-41-35" id="am"/><path d="M59-47c-2 24 18 29 38 22v24C64 9 27 4 27-40v-127H5v-23h24l9-43h21v43h35v23H59v120" id="an"/><g id="a"><use transform="matrix(0.05,0,0,0.05,0,0)" xlink:href="#ah"/><use transform="matrix(0.05,0,0,0.05,12,0)" xlink:href="#ai"/><use transform="matrix(0.05,0,0,0.05,17.95,0)" xlink:href="#aj"/><use transform="matrix(0.05,0,0,0.05,27.950000000000003,0)" xlink:href="#ak"/><use transform="matrix(0.05,0,0,0.05,31.899999999999995,0)" xlink:href="#al"/><use transform="matrix(0.05,0,0,0.05,41.9,0)" xlink:href="#am"/><use transform="matrix(0.05,0,0,0.05,50.9,0)" xlink:href="#an"/></g><path d="M240 0l2-218c-23 76-54 145-80 218h-23L58-218 59 0H30v-248h44l77 211c21-75 51-140 76-211h43V0h-30" id="ao"/><path d="M141-36C126-15 110 5 73 4 37 3 15-17 15-53c-1-64 63-63 125-63 3-35-9-54-41-54-24 1-41 7-42 31l-33-3c5-37 33-52 76-52 45 0 72 20 72 64v82c-1 20 7 32 28 27v20c-31 9-61-2-59-35zM48-53c0 20 12 33 32 33 41-3 63-29 60-74-43 2-92-5-92 41" id="ap"/><path d="M117-194c89-4 53 116 60 194h-32v-121c0-31-8-49-39-48C34-167 62-67 57 0H25l-1-190h30c1 10-1 24 2 32 11-22 29-35 61-36" id="aq"/><path d="M177-190C167-65 218 103 67 71c-23-6-38-20-44-43l32-5c15 47 100 32 89-28v-30C133-14 115 1 83 1 29 1 15-40 15-95c0-56 16-97 71-98 29-1 48 16 59 35 1-10 0-23 2-32h30zM94-22c36 0 50-32 50-73 0-42-14-75-50-75-39 0-46 34-46 75s6 73 46 73" id="ar"/><g id="b"><use transform="matrix(0.05,0,0,0.05,0,0)" xlink:href="#ao"/><use transform="matrix(0.05,0,0,0.05,14.950000000000001,0)" xlink:href="#ap"/><use transform="matrix(0.05,0,0,0.05,24.950000000000003,0)" xlink:href="#aq"/><use transform="matrix(0.05,0,0,0.05,34.95,0)" xlink:href="#ap"/><use transform="matrix(0.05,0,0,0.05,44.95,0)" xlink:href="#ar"/><use transform="matrix(0.05,0,0,0.05,54.95,0)" xlink:href="#al"/><use transform="matrix(0.05,0,0,0.05,64.95,0)" xlink:href="#ai"/></g><path d="M212-179c-10-28-35-45-73-45-59 0-87 40-87 99 0 60 29 101 89 101 43 0 62-24 78-52l27 14C228-24 195 4 139 4 59 4 22-46 18-125c-6-104 99-153 187-111 19 9 31 26 39 46" id="as"/><path d="M30 0v-248h33v221h125V0H30" id="at"/><path d="M205 0l-28-72H64L36 0H1l101-248h38L239 0h-34zm-38-99l-47-123c-12 45-31 82-46 123h93" id="au"/><g id="c"><use transform="matrix(0.05,0,0,0.05,0,0)" xlink:href="#as"/><use transform="matrix(0.05,0,0,0.05,12.950000000000001,0)" xlink:href="#at"/><use transform="matrix(0.05,0,0,0.05,22.950000000000003,0)" xlink:href="#au"/></g><path d="M185-189c-5-48-123-54-124 2 14 75 158 14 163 119 3 78-121 87-175 55-17-10-28-26-33-46l33-7c5 56 141 63 141-1 0-78-155-14-162-118-5-82 145-84 179-34 5 7 8 16 11 25" id="av"/><path d="M24-231v-30h32v30H24zM24 0v-190h32V0H24" id="aw"/><path d="M179-190L93 31C79 59 56 82 12 73V49c39 6 53-20 64-50L1-190h34L92-34l54-156h33" id="ax"/><g id="d"><use transform="matrix(0.05,0,0,0.05,0,0)" xlink:href="#av"/><use transform="matrix(0.05,0,0,0.05,12,0)" xlink:href="#aw"/><use transform="matrix(0.05,0,0,0.05,15.949999999999998,0)" xlink:href="#ar"/><use transform="matrix(0.05,0,0,0.05,25.950000000000003,0)" xlink:href="#aq"/><use transform="matrix(0.05,0,0,0.05,35.95,0)" xlink:href="#ap"/><use transform="matrix(0.05,0,0,0.05,45.95,0)" xlink:href="#an"/><use transform="matrix(0.05,0,0,0.05,50.95,0)" xlink:href="#aj"/><use transform="matrix(0.05,0,0,0.05,60.95,0)" xlink:href="#ai"/><use transform="matrix(0.05,0,0,0.05,66.9,0)" xlink:href="#ax"/></g><path d="M30-248c118-7 216 8 213 122C240-48 200 0 122 0H30v-248zM63-27c89 8 146-16 146-99s-60-101-146-95v194" id="ay"/><path d="M108 0H70L1-190h34L89-25l56-165h34" id="az"/><path d="M24 0v-261h32V0H24" id="aA"/><path d="M115-194c55 1 70 41 70 98S169 2 115 4C84 4 66-9 55-30l1 105H24l-1-265h31l2 30c10-21 28-34 59-34zm-8 174c40 0 45-34 45-75s-6-73-45-74c-42 0-51 32-51 76 0 43 10 73 51 73" id="aB"/><path d="M135-143c-3-34-86-38-87 0 15 53 115 12 119 90S17 21 10-45l28-5c4 36 97 45 98 0-10-56-113-15-118-90-4-57 82-63 122-42 12 7 21 19 24 35" id="aC"/><g id="e"><use transform="matrix(0.05,0,0,0.05,0,0)" xlink:href="#ay"/><use transform="matrix(0.05,0,0,0.05,12.950000000000001,0)" xlink:href="#al"/><use transform="matrix(0.05,0,0,0.05,22.950000000000003,0)" xlink:href="#az"/><use transform="matrix(0.05,0,0,0.05,31.950000000000003,0)" xlink:href="#al"/><use transform="matrix(0.05,0,0,0.05,41.95,0)" xlink:href="#aA"/><use transform="matrix(0.05,0,0,0.05,45.900000000000006,0)" xlink:href="#aj"/><use transform="matrix(0.05,0,0,0.05,55.900000000000006,0)" xlink:href="#aB"/><use transform="matrix(0.05,0,0,0.05,65.9,0)" xlink:href="#al"/><use transform="matrix(0.05,0,0,0.05,75.9,0)" xlink:href="#ai"/><use transform="matrix(0.05,0,0,0.05,81.85000000000001,0)" xlink:href="#aC"/></g><g id="f"><use transform="matrix(0.05,0,0,0.05,0,0)" xlink:href="#ah"/><use transform="matrix(0.05,0,0,0.05,12,0)" xlink:href="#ai"/><use transform="matrix(0.05,0,0,0.05,17.95,0)" xlink:href="#aj"/><use transform="matrix(0.05,0,0,0.05,27.950000000000003,0)" xlink:href="#ak"/><use transform="matrix(0.05,0,0,0.05,31.899999999999995,0)" xlink:href="#al"/><use transform="matrix(0.05,0,0,0.05,41.9,0)" xlink:href="#am"/><use transform="matrix(0.05,0,0,0.05,50.9,0)" xlink:href="#an"/></g><g id="g"><use transform="matrix(0.05,0,0,0.05,0,0)" xlink:href="#as"/><use transform="matrix(0.05,0,0,0.05,12.950000000000001,0)" xlink:href="#aj"/><use transform="matrix(0.05,0,0,0.05,22.950000000000003,0)" xlink:href="#aq"/><use transform="matrix(0.05,0,0,0.05,32.95,0)" xlink:href="#aC"/><use transform="matrix(0.05,0,0,0.05,41.95,0)" xlink:href="#aj"/><use transform="matrix(0.05,0,0,0.05,51.95,0)" xlink:href="#aA"/><use transform="matrix(0.05,0,0,0.05,55.900000000000006,0)" xlink:href="#al"/></g><path d="M87 75C49 33 22-17 22-94c0-76 28-126 65-167h31c-38 41-64 92-64 168S80 34 118 75H87" id="aD"/><path d="M33 0v-248h34V0H33" id="aE"/><g id="h"><use transform="matrix(0.05,0,0,0.05,0,0)" xlink:href="#aD"/><use transform="matrix(0.05,0,0,0.05,5.95,0)" xlink:href="#aE"/><use transform="matrix(0.05,0,0,0.05,10.95,0)" xlink:href="#aj"/><use transform="matrix(0.05,0,0,0.05,20.95,0)" xlink:href="#aq"/><use transform="matrix(0.05,0,0,0.05,30.950000000000003,0)" xlink:href="#aw"/><use transform="matrix(0.05,0,0,0.05,34.9,0)" xlink:href="#am"/></g><g id="i"><use transform="matrix(0.05,0,0,0.05,0,0)" xlink:href="#aj"/><use transform="matrix(0.05,0,0,0.05,10,0)" xlink:href="#aq"/></g><path d="M84 4C-5 8 30-112 23-190h32v120c0 31 7 50 39 49 72-2 45-101 50-169h31l1 190h-30c-1-10 1-25-2-33-11 22-28 36-60 37" id="aF"/><path d="M33-261c38 41 65 92 65 168S71 34 33 75H2C39 34 66-17 66-93S39-220 2-261h31" id="aG"/><g id="j"><use transform="matrix(0.05,0,0,0.05,0,0)" xlink:href="#au"/><use transform="matrix(0.05,0,0,0.05,12,0)" xlink:href="#aq"/><use transform="matrix(0.05,0,0,0.05,22,0)" xlink:href="#ar"/><use transform="matrix(0.05,0,0,0.05,32,0)" xlink:href="#aF"/><use transform="matrix(0.05,0,0,0.05,42,0)" xlink:href="#aA"/><use transform="matrix(0.05,0,0,0.05,45.95,0)" xlink:href="#ap"/><use transform="matrix(0.05,0,0,0.05,55.95,0)" xlink:href="#ai"/><use transform="matrix(0.05,0,0,0.05,61.900000000000006,0)" xlink:href="#aG"/></g><g id="k"><use transform="matrix(0.05,0,0,0.05,0,0)" xlink:href="#as"/><use transform="matrix(0.05,0,0,0.05,12.950000000000001,0)" xlink:href="#aj"/><use transform="matrix(0.05,0,0,0.05,22.950000000000003,0)" xlink:href="#ai"/><use transform="matrix(0.05,0,0,0.05,28.900000000000002,0)" xlink:href="#aB"/><use transform="matrix(0.05,0,0,0.05,38.900000000000006,0)" xlink:href="#aj"/><use transform="matrix(0.05,0,0,0.05,48.900000000000006,0)" xlink:href="#ai"/><use transform="matrix(0.05,0,0,0.05,54.85,0)" xlink:href="#ap"/><use transform="matrix(0.05,0,0,0.05,64.85000000000001,0)" xlink:href="#an"/><use transform="matrix(0.05,0,0,0.05,69.85000000000001,0)" xlink:href="#al"/></g><g id="l"><use transform="matrix(0.05,0,0,0.05,0,0)" xlink:href="#aD"/><use transform="matrix(0.05,0,0,0.05,5.95,0)" xlink:href="#aw"/><use transform="matrix(0.05,0,0,0.05,9.9,0)" xlink:href="#aj"/><use transform="matrix(0.05,0,0,0.05,19.9,0)" xlink:href="#aq"/><use transform="matrix(0.05,0,0,0.05,29.899999999999995,0)" xlink:href="#aw"/><use transform="matrix(0.05,0,0,0.05,33.85,0)" xlink:href="#am"/></g><path d="M115-194c53 0 69 39 70 98 0 66-23 100-70 100C84 3 66-7 56-30L54 0H23l1-261h32v101c10-23 28-34 59-34zm-8 174c40 0 45-34 45-75 0-40-5-75-45-74-42 0-51 32-51 76 0 43 10 73 51 73" id="aH"/><g id="m"><use transform="matrix(0.05,0,0,0.05,0,0)" xlink:href="#as"/><use transform="matrix(0.05,0,0,0.05,12.950000000000001,0)" xlink:href="#aj"/><use transform="matrix(0.05,0,0,0.05,22.950000000000003,0)" xlink:href="#aq"/><use transform="matrix(0.05,0,0,0.05,32.95,0)" xlink:href="#an"/><use transform="matrix(0.05,0,0,0.05,37.95,0)" xlink:href="#ai"/><use transform="matrix(0.05,0,0,0.05,43.900000000000006,0)" xlink:href="#aw"/><use transform="matrix(0.05,0,0,0.05,47.85000000000001,0)" xlink:href="#aH"/><use transform="matrix(0.05,0,0,0.05,57.85,0)" xlink:href="#aF"/><use transform="matrix(0.05,0,0,0.05,67.85000000000001,0)" xlink:href="#an"/><use transform="matrix(0.05,0,0,0.05,72.85000000000001,0)" xlink:href="#aj"/><use transform="matrix(0.05,0,0,0.05,82.85000000000001,0)" xlink:href="#ai"/></g><path d="M85-194c31 0 48 13 60 33l-1-100h32l1 261h-30c-2-10 0-23-3-31C134-8 116 4 85 4 32 4 16-35 15-94c0-66 23-100 70-100zm9 24c-40 0-46 34-46 75 0 40 6 74 45 74 42 0 51-32 51-76 0-42-9-74-50-73" id="aI"/><g id="n"><use transform="matrix(0.05,0,0,0.05,0,0)" xlink:href="#at"/><use transform="matrix(0.05,0,0,0.05,10,0)" xlink:href="#ap"/><use transform="matrix(0.05,0,0,0.05,20,0)" xlink:href="#aq"/><use transform="matrix(0.05,0,0,0.05,30,0)" xlink:href="#aI"/><use transform="matrix(0.05,0,0,0.05,40,0)" xlink:href="#aw"/><use transform="matrix(0.05,0,0,0.05,43.95,0)" xlink:href="#aq"/><use transform="matrix(0.05,0,0,0.05,53.95,0)" xlink:href="#ar"/></g><g id="o"><use transform="matrix(0.05,0,0,0.05,0,0)" xlink:href="#ah"/><use transform="matrix(0.05,0,0,0.05,12,0)" xlink:href="#ap"/><use transform="matrix(0.05,0,0,0.05,22,0)" xlink:href="#ar"/><use transform="matrix(0.05,0,0,0.05,32,0)" xlink:href="#al"/></g><g id="p"><use transform="matrix(0.05,0,0,0.05,0,0)" xlink:href="#aD"/><use transform="matrix(0.05,0,0,0.05,5.95,0)" xlink:href="#aC"/><use transform="matrix(0.05,0,0,0.05,14.949999999999998,0)" xlink:href="#an"/><use transform="matrix(0.05,0,0,0.05,19.95,0)" xlink:href="#ap"/><use transform="matrix(0.05,0,0,0.05,29.950000000000003,0)" xlink:href="#an"/><use transform="matrix(0.05,0,0,0.05,34.95,0)" xlink:href="#aw"/><use transform="matrix(0.05,0,0,0.05,38.900000000000006,0)" xlink:href="#am"/><use transform="matrix(0.05,0,0,0.05,47.900000000000006,0)" xlink:href="#aG"/></g><path d="M143 4C61 4 22-44 18-125c-5-107 100-154 193-111 17 8 29 25 37 43l-32 9c-13-25-37-40-76-40-61 0-88 39-88 99 0 61 29 100 91 101 35 0 62-11 79-27v-45h-74v-28h105v86C228-13 192 4 143 4" id="aJ"/><g id="q"><use transform="matrix(0.05,0,0,0.05,0,0)" xlink:href="#aJ"/><use transform="matrix(0.05,0,0,0.05,14,0)" xlink:href="#al"/><use transform="matrix(0.05,0,0,0.05,24,0)" xlink:href="#ai"/><use transform="matrix(0.05,0,0,0.05,29.950000000000003,0)" xlink:href="#ai"/><use transform="matrix(0.05,0,0,0.05,35.9,0)" xlink:href="#aw"/><use transform="matrix(0.05,0,0,0.05,39.85,0)" xlink:href="#an"/></g><path d="M197 0v-115H63V0H30v-248h33v105h134v-105h34V0h-34" id="aK"/><g id="r"><use transform="matrix(0.05,0,0,0.05,0,0)" xlink:href="#aJ"/><use transform="matrix(0.05,0,0,0.05,14,0)" xlink:href="#aw"/><use transform="matrix(0.05,0,0,0.05,17.95,0)" xlink:href="#an"/><use transform="matrix(0.05,0,0,0.05,22.95,0)" xlink:href="#aK"/><use transform="matrix(0.05,0,0,0.05,35.9,0)" xlink:href="#aF"/><use transform="matrix(0.05,0,0,0.05,45.9,0)" xlink:href="#aH"/></g><path d="M266 0h-40l-56-210L115 0H75L2-248h35L96-30l15-64 43-154h32l59 218 59-218h35" id="aL"/><g id="s"><use transform="matrix(0.05,0,0,0.05,0,0)" xlink:href="#au"/><use transform="matrix(0.05,0,0,0.05,11.35,0)" xlink:href="#aL"/><use transform="matrix(0.05,0,0,0.05,28.299999999999997,0)" xlink:href="#av"/></g><g id="t"><use transform="matrix(0.05,0,0,0.05,0,0)" xlink:href="#as"/><use transform="matrix(0.05,0,0,0.05,12.950000000000001,0)" xlink:href="#aA"/><use transform="matrix(0.05,0,0,0.05,16.900000000000002,0)" xlink:href="#aj"/><use transform="matrix(0.05,0,0,0.05,26.900000000000002,0)" xlink:href="#aF"/><use transform="matrix(0.05,0,0,0.05,36.900000000000006,0)" xlink:href="#aI"/></g><path d="M63-220v92h138v28H63V0H30v-248h175v28H63" id="aM"/><g id="u"><use transform="matrix(0.05,0,0,0.05,0,0)" xlink:href="#aM"/><use transform="matrix(0.05,0,0,0.05,10.950000000000001,0)" xlink:href="#ai"/><use transform="matrix(0.05,0,0,0.05,16.900000000000002,0)" xlink:href="#aj"/><use transform="matrix(0.05,0,0,0.05,26.900000000000002,0)" xlink:href="#aq"/><use transform="matrix(0.05,0,0,0.05,36.900000000000006,0)" xlink:href="#an"/></g><g id="v"><use transform="matrix(0.05,0,0,0.05,0,0)" xlink:href="#ap"/><use transform="matrix(0.05,0,0,0.05,10,0)" xlink:href="#aq"/><use transform="matrix(0.05,0,0,0.05,20,0)" xlink:href="#aI"/></g><g id="w"><use transform="matrix(0.05,0,0,0.05,0,0)" xlink:href="#au"/><use transform="matrix(0.05,0,0,0.05,12,0)" xlink:href="#ah"/><use transform="matrix(0.05,0,0,0.05,24,0)" xlink:href="#aE"/></g><path d="M206 0h-36l-40-164L89 0H53L-1-190h32L70-26l43-164h34l41 164 42-164h31" id="aN"/><g id="x"><use transform="matrix(0.05,0,0,0.05,0,0)" xlink:href="#aJ"/><use transform="matrix(0.05,0,0,0.05,14,0)" xlink:href="#ap"/><use transform="matrix(0.05,0,0,0.05,24,0)" xlink:href="#an"/><use transform="matrix(0.05,0,0,0.05,29,0)" xlink:href="#al"/><use transform="matrix(0.05,0,0,0.05,39,0)" xlink:href="#aN"/><use transform="matrix(0.05,0,0,0.05,51.95,0)" xlink:href="#ap"/><use transform="matrix(0.05,0,0,0.05,61.95,0)" xlink:href="#ax"/></g><path d="M210-169c-67 3-38 105-44 169h-31v-121c0-29-5-50-35-48C34-165 62-65 56 0H25l-1-190h30c1 10-1 24 2 32 10-44 99-50 107 0 11-21 27-35 58-36 85-2 47 119 55 194h-31v-121c0-29-5-49-35-48" id="aO"/><g id="y"><use transform="matrix(0.05,0,0,0.05,0,0)" xlink:href="#at"/><use transform="matrix(0.05,0,0,0.05,10,0)" xlink:href="#ap"/><use transform="matrix(0.05,0,0,0.05,20,0)" xlink:href="#aO"/><use transform="matrix(0.05,0,0,0.05,34.95,0)" xlink:href="#aH"/><use transform="matrix(0.05,0,0,0.05,44.95,0)" xlink:href="#aI"/><use transform="matrix(0.05,0,0,0.05,54.95,0)" xlink:href="#ap"/></g><path d="M27 0v-27h64v-190l-56 39v-29l58-41h29v221h61V0H27" id="aP"/><g id="z"><use transform="matrix(0.05,0,0,0.05,0,0)" xlink:href="#az"/><use transform="matrix(0.05,0,0,0.05,9,0)" xlink:href="#aP"/></g><g id="A"><use transform="matrix(0.05,0,0,0.05,0,0)" xlink:href="#aK"/><use transform="matrix(0.05,0,0,0.05,12.950000000000001,0)" xlink:href="#ap"/><use transform="matrix(0.05,0,0,0.05,22.950000000000003,0)" xlink:href="#aq"/><use transform="matrix(0.05,0,0,0.05,32.95,0)" xlink:href="#aI"/><use transform="matrix(0.05,0,0,0.05,42.95,0)" xlink:href="#aA"/><use transform="matrix(0.05,0,0,0.05,46.900000000000006,0)" xlink:href="#al"/><use transform="matrix(0.05,0,0,0.05,56.900000000000006,0)" xlink:href="#ai"/></g><path d="M106-169C34-169 62-67 57 0H25v-261h32l-1 103c12-21 28-36 61-36 89 0 53 116 60 194h-32v-121c2-32-8-49-39-48" id="aQ"/><g id="B"><use transform="matrix(0.05,0,0,0.05,0,0)" xlink:href="#aD"/><use transform="matrix(0.05,0,0,0.05,5.95,0)" xlink:href="#aB"/><use transform="matrix(0.05,0,0,0.05,15.949999999999998,0)" xlink:href="#ax"/><use transform="matrix(0.05,0,0,0.05,24.95,0)" xlink:href="#an"/><use transform="matrix(0.05,0,0,0.05,29.950000000000003,0)" xlink:href="#aQ"/><use transform="matrix(0.05,0,0,0.05,39.95,0)" xlink:href="#aj"/><use transform="matrix(0.05,0,0,0.05,49.95,0)" xlink:href="#aq"/><use transform="matrix(0.05,0,0,0.05,59.95,0)" xlink:href="#aG"/></g><path d="M30 0v-248h187v28H63v79h144v27H63v87h162V0H30" id="aR"/><g id="C"><use transform="matrix(0.14814814814814817,0,0,0.14814814814814817,0,0)" xlink:href="#aR"/><use transform="matrix(0.14814814814814817,0,0,0.14814814814814817,35.55555555555556,0)" xlink:href="#ap"/><use transform="matrix(0.14814814814814817,0,0,0.14814814814814817,65.18518518518519,0)" xlink:href="#aC"/><use transform="matrix(0.14814814814814817,0,0,0.14814814814814817,91.85185185185186,0)" xlink:href="#ax"/><use transform="matrix(0.14814814814814817,0,0,0.14814814814814817,118.51851851851853,0)" xlink:href="#as"/><use transform="matrix(0.14814814814814817,0,0,0.14814814814814817,156.8888888888889,0)" xlink:href="#at"/><use transform="matrix(0.14814814814814817,0,0,0.14814814814814817,186.51851851851853,0)" xlink:href="#au"/></g><g id="D"><use transform="matrix(0.14814814814814817,0,0,0.14814814814814817,0,0)" xlink:href="#az"/><use transform="matrix(0.14814814814814817,0,0,0.14814814814814817,26.66666666666667,0)" xlink:href="#aP"/></g><g id="E"><use transform="matrix(0.14814814814814817,0,0,0.14814814814814817,0,0)" xlink:href="#au"/><use transform="matrix(0.14814814814814817,0,0,0.14814814814814817,35.55555555555556,0)" xlink:href="#ai"/><use transform="matrix(0.14814814814814817,0,0,0.14814814814814817,53.18518518518519,0)" xlink:href="#am"/><use transform="matrix(0.14814814814814817,0,0,0.14814814814814817,79.85185185185186,0)" xlink:href="#aQ"/><use transform="matrix(0.14814814814814817,0,0,0.14814814814814817,109.4814814814815,0)" xlink:href="#aw"/><use transform="matrix(0.14814814814814817,0,0,0.14814814814814817,121.1851851851852,0)" xlink:href="#an"/><use transform="matrix(0.14814814814814817,0,0,0.14814814814814817,136.00000000000003,0)" xlink:href="#al"/><use transform="matrix(0.14814814814814817,0,0,0.14814814814814817,165.62962962962968,0)" xlink:href="#am"/><use transform="matrix(0.14814814814814817,0,0,0.14814814814814817,192.29629629629636,0)" xlink:href="#an"/><use transform="matrix(0.14814814814814817,0,0,0.14814814814814817,207.11111111111117,0)" xlink:href="#aF"/><use transform="matrix(0.14814814814814817,0,0,0.14814814814814817,236.74074074074082,0)" xlink:href="#ai"/><use transform="matrix(0.14814814814814817,0,0,0.14814814814814817,254.37037037037044,0)" xlink:href="#al"/></g><path d="M140-251c81 0 123 46 123 126C263-46 219 4 140 4 59 4 17-45 17-125s42-126 123-126zm0 227c63 0 89-41 89-101s-29-99-89-99c-61 0-89 39-89 99S79-25 140-24" id="aS"/><g id="F"><use transform="matrix(0.14814814814814817,0,0,0.14814814814814817,0,0)" xlink:href="#aS"/><use transform="matrix(0.14814814814814817,0,0,0.14814814814814817,41.48148148148149,0)" xlink:href="#az"/><use transform="matrix(0.14814814814814817,0,0,0.14814814814814817,68.14814814814815,0)" xlink:href="#al"/><use transform="matrix(0.14814814814814817,0,0,0.14814814814814817,97.77777777777779,0)" xlink:href="#ai"/><use transform="matrix(0.14814814814814817,0,0,0.14814814814814817,115.40740740740742,0)" xlink:href="#az"/><use transform="matrix(0.14814814814814817,0,0,0.14814814814814817,142.07407407407408,0)" xlink:href="#aw"/><use transform="matrix(0.14814814814814817,0,0,0.14814814814814817,153.77777777777777,0)" xlink:href="#al"/><use transform="matrix(0.14814814814814817,0,0,0.14814814814814817,183.4074074074074,0)" xlink:href="#aN"/></g><path d="M9 0v-24l116-142H16v-24h144v24L44-24h123V0H9" id="aT"/><g id="G"><use transform="matrix(0.05,0,0,0.05,0,0)" xlink:href="#au"/><use transform="matrix(0.05,0,0,0.05,12,0)" xlink:href="#aO"/><use transform="matrix(0.05,0,0,0.05,26.950000000000003,0)" xlink:href="#ap"/><use transform="matrix(0.05,0,0,0.05,36.95,0)" xlink:href="#aT"/><use transform="matrix(0.05,0,0,0.05,45.95,0)" xlink:href="#aj"/><use transform="matrix(0.05,0,0,0.05,55.95,0)" xlink:href="#aq"/></g><path d="M160-131c35 5 61 23 61 61C221 17 115-2 30 0v-248c76 3 177-17 177 60 0 33-19 50-47 57zm-97-11c50-1 110 9 110-42 0-47-63-36-110-37v79zm0 115c55-2 124 14 124-45 0-56-70-42-124-44v89" id="aU"/><g id="H"><use transform="matrix(0.05,0,0,0.05,0,0)" xlink:href="#ay"/><use transform="matrix(0.05,0,0,0.05,12.950000000000001,0)" xlink:href="#ax"/><use transform="matrix(0.05,0,0,0.05,21.950000000000003,0)" xlink:href="#aq"/><use transform="matrix(0.05,0,0,0.05,31.950000000000003,0)" xlink:href="#ap"/><use transform="matrix(0.05,0,0,0.05,41.95,0)" xlink:href="#aO"/><use transform="matrix(0.05,0,0,0.05,56.900000000000006,0)" xlink:href="#aj"/><use transform="matrix(0.05,0,0,0.05,66.9,0)" xlink:href="#ay"/><use transform="matrix(0.05,0,0,0.05,79.85000000000001,0)" xlink:href="#aU"/></g><path d="M127-220V0H93v-220H8v-28h204v28h-85" id="aV"/><g id="I"><use transform="matrix(0.05,0,0,0.05,0,0)" xlink:href="#aV"/><use transform="matrix(0.05,0,0,0.05,8.950000000000001,0)" xlink:href="#al"/><use transform="matrix(0.05,0,0,0.05,18.950000000000003,0)" xlink:href="#aO"/><use transform="matrix(0.05,0,0,0.05,33.900000000000006,0)" xlink:href="#aB"/><use transform="matrix(0.05,0,0,0.05,43.900000000000006,0)" xlink:href="#aA"/><use transform="matrix(0.05,0,0,0.05,47.85000000000001,0)" xlink:href="#ap"/><use transform="matrix(0.05,0,0,0.05,57.85,0)" xlink:href="#an"/><use transform="matrix(0.05,0,0,0.05,62.85,0)" xlink:href="#al"/><use transform="matrix(0.05,0,0,0.05,72.85000000000001,0)" xlink:href="#aC"/></g><g id="J"><use transform="matrix(0.05,0,0,0.05,0,0)" xlink:href="#ay"/><use transform="matrix(0.05,0,0,0.05,12.950000000000001,0)" xlink:href="#aj"/><use transform="matrix(0.05,0,0,0.05,22.950000000000003,0)" xlink:href="#am"/><use transform="matrix(0.05,0,0,0.05,31.950000000000003,0)" xlink:href="#aF"/><use transform="matrix(0.05,0,0,0.05,41.95,0)" xlink:href="#aO"/><use transform="matrix(0.05,0,0,0.05,56.900000000000006,0)" xlink:href="#al"/><use transform="matrix(0.05,0,0,0.05,66.9,0)" xlink:href="#aq"/><use transform="matrix(0.05,0,0,0.05,76.9,0)" xlink:href="#an"/><use transform="matrix(0.05,0,0,0.05,81.9,0)" xlink:href="#aC"/></g><g id="K"><use transform="matrix(0.05,0,0,0.05,0,0)" xlink:href="#as"/><use transform="matrix(0.05,0,0,0.05,12.950000000000001,0)" xlink:href="#at"/><use transform="matrix(0.05,0,0,0.05,22.950000000000003,0)" xlink:href="#au"/></g><g id="L"><use transform="matrix(0.05,0,0,0.05,0,0)" xlink:href="#ah"/><use transform="matrix(0.05,0,0,0.05,12,0)" xlink:href="#ai"/><use transform="matrix(0.05,0,0,0.05,17.95,0)" xlink:href="#aj"/><use transform="matrix(0.05,0,0,0.05,27.950000000000003,0)" xlink:href="#ak"/><use transform="matrix(0.05,0,0,0.05,31.899999999999995,0)" xlink:href="#al"/><use transform="matrix(0.05,0,0,0.05,41.9,0)" xlink:href="#am"/><use transform="matrix(0.05,0,0,0.05,50.9,0)" xlink:href="#an"/></g><g id="M"><use transform="matrix(0.05,0,0,0.05,0,0)" xlink:href="#at"/><use transform="matrix(0.05,0,0,0.05,10,0)" xlink:href="#aj"/><use transform="matrix(0.05,0,0,0.05,20,0)" xlink:href="#ar"/><use transform="matrix(0.05,0,0,0.05,30,0)" xlink:href="#aj"/><use transform="matrix(0.05,0,0,0.05,40,0)" xlink:href="#aC"/></g><path d="M101-251c82-7 93 87 43 132L82-64C71-53 59-42 53-27h129V0H18c2-99 128-94 128-182 0-28-16-43-45-43s-46 15-49 41l-32-3c6-41 34-60 81-64" id="aW"/><g id="N"><use transform="matrix(0.05,0,0,0.05,0,0)" xlink:href="#az"/><use transform="matrix(0.05,0,0,0.05,9,0)" xlink:href="#aW"/></g><path d="M126-127c33 6 58 20 58 59 0 88-139 92-164 29-3-8-5-16-6-25l32-3c6 27 21 44 54 44 32 0 52-15 52-46 0-38-36-46-79-43v-28c39 1 72-4 72-42 0-27-17-43-46-43-28 0-47 15-49 41l-32-3c6-42 35-63 81-64 48-1 79 21 79 65 0 36-21 52-52 59" id="aX"/><g id="O"><use transform="matrix(0.05,0,0,0.05,0,0)" xlink:href="#az"/><use transform="matrix(0.05,0,0,0.05,9,0)" xlink:href="#aX"/></g><g id="P"><use transform="matrix(0.05,0,0,0.05,0,0)" xlink:href="#aD"/><use transform="matrix(0.05,0,0,0.05,5.95,0)" xlink:href="#ar"/><use transform="matrix(0.05,0,0,0.05,15.949999999999998,0)" xlink:href="#aj"/><use transform="matrix(0.05,0,0,0.05,25.950000000000003,0)" xlink:href="#aG"/></g><g id="Q"><use transform="matrix(0.05,0,0,0.05,0,0)" xlink:href="#au"/><use transform="matrix(0.05,0,0,0.05,12,0)" xlink:href="#aF"/><use transform="matrix(0.05,0,0,0.05,22,0)" xlink:href="#an"/><use transform="matrix(0.05,0,0,0.05,27,0)" xlink:href="#aQ"/><use transform="matrix(0.05,0,0,0.05,37,0)" xlink:href="#aj"/><use transform="matrix(0.05,0,0,0.05,47,0)" xlink:href="#ai"/><use transform="matrix(0.05,0,0,0.05,52.95,0)" xlink:href="#aw"/><use transform="matrix(0.05,0,0,0.05,56.900000000000006,0)" xlink:href="#aT"/><use transform="matrix(0.05,0,0,0.05,65.9,0)" xlink:href="#al"/><use transform="matrix(0.05,0,0,0.05,75.9,0)" xlink:href="#ai"/></g><g id="R"><use transform="matrix(0.05,0,0,0.05,0,0)" xlink:href="#aK"/><use transform="matrix(0.05,0,0,0.05,12.950000000000001,0)" xlink:href="#ap"/><use transform="matrix(0.05,0,0,0.05,22.950000000000003,0)" xlink:href="#aq"/><use transform="matrix(0.05,0,0,0.05,32.95,0)" xlink:href="#aI"/><use transform="matrix(0.05,0,0,0.05,42.95,0)" xlink:href="#aA"/><use transform="matrix(0.05,0,0,0.05,46.900000000000006,0)" xlink:href="#al"/><use transform="matrix(0.05,0,0,0.05,56.900000000000006,0)" xlink:href="#ai"/></g><g id="S"><use transform="matrix(0.05,0,0,0.05,0,0)" xlink:href="#aJ"/><use transform="matrix(0.05,0,0,0.05,14,0)" xlink:href="#aw"/><use transform="matrix(0.05,0,0,0.05,17.95,0)" xlink:href="#an"/><use transform="matrix(0.05,0,0,0.05,22.95,0)" xlink:href="#aQ"/><use transform="matrix(0.05,0,0,0.05,32.95,0)" xlink:href="#aF"/><use transform="matrix(0.05,0,0,0.05,42.95,0)" xlink:href="#aH"/></g><g id="T"><use transform="matrix(0.05,0,0,0.05,0,0)" xlink:href="#au"/><use transform="matrix(0.05,0,0,0.05,12,0)" xlink:href="#am"/><use transform="matrix(0.05,0,0,0.05,21,0)" xlink:href="#an"/><use transform="matrix(0.05,0,0,0.05,26,0)" xlink:href="#aw"/><use transform="matrix(0.05,0,0,0.05,29.950000000000003,0)" xlink:href="#az"/><use transform="matrix(0.05,0,0,0.05,38.95,0)" xlink:href="#aw"/><use transform="matrix(0.05,0,0,0.05,42.900000000000006,0)" xlink:href="#an"/><use transform="matrix(0.05,0,0,0.05,47.900000000000006,0)" xlink:href="#ax"/></g><g id="U"><use transform="matrix(0.05,0,0,0.05,0,0)" xlink:href="#aE"/><use transform="matrix(0.05,0,0,0.05,5,0)" xlink:href="#aq"/><use transform="matrix(0.05,0,0,0.05,15,0)" xlink:href="#aC"/><use transform="matrix(0.05,0,0,0.05,24,0)" xlink:href="#an"/><use transform="matrix(0.05,0,0,0.05,29,0)" xlink:href="#ap"/><use transform="matrix(0.05,0,0,0.05,39,0)" xlink:href="#aA"/><use transform="matrix(0.05,0,0,0.05,42.95,0)" xlink:href="#aA"/><use transform="matrix(0.05,0,0,0.05,46.900000000000006,0)" xlink:href="#ap"/><use transform="matrix(0.05,0,0,0.05,56.900000000000006,0)" xlink:href="#an"/><use transform="matrix(0.05,0,0,0.05,61.900000000000006,0)" xlink:href="#aw"/><use transform="matrix(0.05,0,0,0.05,65.85000000000001,0)" xlink:href="#aj"/><use transform="matrix(0.05,0,0,0.05,75.85000000000001,0)" xlink:href="#aq"/></g><path d="M101-234c-31-9-42 10-38 44h38v23H63V0H32v-167H5v-23h27c-7-52 17-82 69-68v24" id="aY"/><g id="V"><use transform="matrix(0.05,0,0,0.05,0,0)" xlink:href="#av"/><use transform="matrix(0.05,0,0,0.05,12,0)" xlink:href="#ap"/><use transform="matrix(0.05,0,0,0.05,22,0)" xlink:href="#aA"/><use transform="matrix(0.05,0,0,0.05,25.950000000000003,0)" xlink:href="#al"/><use transform="matrix(0.05,0,0,0.05,35.95,0)" xlink:href="#aC"/><use transform="matrix(0.05,0,0,0.05,44.95,0)" xlink:href="#aY"/><use transform="matrix(0.05,0,0,0.05,49.95,0)" xlink:href="#aj"/><use transform="matrix(0.05,0,0,0.05,59.95,0)" xlink:href="#ai"/><use transform="matrix(0.05,0,0,0.05,65.9,0)" xlink:href="#am"/><use transform="matrix(0.05,0,0,0.05,74.9,0)" xlink:href="#al"/></g><g id="W"><use transform="matrix(0.05,0,0,0.05,0,0)" xlink:href="#ah"/><use transform="matrix(0.05,0,0,0.05,12,0)" xlink:href="#ai"/><use transform="matrix(0.05,0,0,0.05,17.95,0)" xlink:href="#aj"/><use transform="matrix(0.05,0,0,0.05,27.950000000000003,0)" xlink:href="#ak"/><use transform="matrix(0.05,0,0,0.05,31.899999999999995,0)" xlink:href="#al"/><use transform="matrix(0.05,0,0,0.05,41.9,0)" xlink:href="#am"/><use transform="matrix(0.05,0,0,0.05,50.9,0)" xlink:href="#an"/><use transform="matrix(0.05,0,0,0.05,55.900000000000006,0)" xlink:href="#aC"/></g><g id="X"><use transform="matrix(0.05,0,0,0.05,0,0)" xlink:href="#av"/><use transform="matrix(0.05,0,0,0.05,12,0)" xlink:href="#ap"/><use transform="matrix(0.05,0,0,0.05,22,0)" xlink:href="#aA"/><use transform="matrix(0.05,0,0,0.05,25.950000000000003,0)" xlink:href="#al"/><use transform="matrix(0.05,0,0,0.05,35.95,0)" xlink:href="#aC"/><use transform="matrix(0.05,0,0,0.05,44.95,0)" xlink:href="#aY"/><use transform="matrix(0.05,0,0,0.05,49.95,0)" xlink:href="#aj"/><use transform="matrix(0.05,0,0,0.05,59.95,0)" xlink:href="#ai"/><use transform="matrix(0.05,0,0,0.05,65.9,0)" xlink:href="#am"/><use transform="matrix(0.05,0,0,0.05,74.9,0)" xlink:href="#al"/></g><g id="Y"><use transform="matrix(0.05,0,0,0.05,0,0)" xlink:href="#aE"/><use transform="matrix(0.05,0,0,0.05,5,0)" xlink:href="#ay"/></g><g id="Z"><use transform="matrix(0.05,0,0,0.05,0,0)" xlink:href="#av"/><use transform="matrix(0.05,0,0,0.05,12,0)" xlink:href="#ap"/><use transform="matrix(0.05,0,0,0.05,22,0)" xlink:href="#aA"/><use transform="matrix(0.05,0,0,0.05,25.950000000000003,0)" xlink:href="#al"/><use transform="matrix(0.05,0,0,0.05,35.95,0)" xlink:href="#aC"/><use transform="matrix(0.05,0,0,0.05,44.95,0)" xlink:href="#aY"/><use transform="matrix(0.05,0,0,0.05,49.95,0)" xlink:href="#aj"/><use transform="matrix(0.05,0,0,0.05,59.95,0)" xlink:href="#ai"/><use transform="matrix(0.05,0,0,0.05,65.9,0)" xlink:href="#am"/><use transform="matrix(0.05,0,0,0.05,74.9,0)" xlink:href="#al"/></g><path d="M143 0L79-87 56-68V0H24v-261h32v163l83-92h37l-77 82L181 0h-38" id="aZ"/><g id="aa"><use transform="matrix(0.05,0,0,0.05,0,0)" xlink:href="#aN"/><use transform="matrix(0.05,0,0,0.05,12.950000000000001,0)" xlink:href="#al"/><use transform="matrix(0.05,0,0,0.05,22.950000000000003,0)" xlink:href="#aH"/><use transform="matrix(0.05,0,0,0.05,32.95,0)" xlink:href="#aQ"/><use transform="matrix(0.05,0,0,0.05,42.95,0)" xlink:href="#aj"/><use transform="matrix(0.05,0,0,0.05,52.95,0)" xlink:href="#aj"/><use transform="matrix(0.05,0,0,0.05,62.95,0)" xlink:href="#aZ"/></g><g id="ab"><use transform="matrix(0.05,0,0,0.05,0,0)" xlink:href="#am"/><use transform="matrix(0.05,0,0,0.05,9,0)" xlink:href="#ap"/><use transform="matrix(0.05,0,0,0.05,19,0)" xlink:href="#aA"/><use transform="matrix(0.05,0,0,0.05,22.95,0)" xlink:href="#aA"/><use transform="matrix(0.05,0,0,0.05,26.899999999999995,0)" xlink:href="#aH"/><use transform="matrix(0.05,0,0,0.05,36.9,0)" xlink:href="#ap"/><use transform="matrix(0.05,0,0,0.05,46.9,0)" xlink:href="#am"/><use transform="matrix(0.05,0,0,0.05,55.900000000000006,0)" xlink:href="#aZ"/><use transform="matrix(0.05,0,0,0.05,64.9,0)" xlink:href="#aC"/></g><g id="ac"><use transform="matrix(0.05,0,0,0.05,0,0)" xlink:href="#ay"/><use transform="matrix(0.05,0,0,0.05,12.950000000000001,0)" xlink:href="#aj"/><use transform="matrix(0.05,0,0,0.05,22.950000000000003,0)" xlink:href="#am"/><use transform="matrix(0.05,0,0,0.05,31.950000000000003,0)" xlink:href="#ai"/><use transform="matrix(0.05,0,0,0.05,37.900000000000006,0)" xlink:href="#ap"/><use transform="matrix(0.05,0,0,0.05,47.900000000000006,0)" xlink:href="#aB"/><use transform="matrix(0.05,0,0,0.05,57.900000000000006,0)" xlink:href="#an"/><use transform="matrix(0.05,0,0,0.05,62.900000000000006,0)" xlink:href="#aj"/><use transform="matrix(0.05,0,0,0.05,72.9,0)" xlink:href="#ai"/></g><g id="ad"><use transform="matrix(0.05,0,0,0.05,0,0)" xlink:href="#aD"/><use transform="matrix(0.05,0,0,0.05,5.95,0)" xlink:href="#ah"/><use transform="matrix(0.05,0,0,0.05,17.95,0)" xlink:href="#ay"/><use transform="matrix(0.05,0,0,0.05,30.899999999999995,0)" xlink:href="#aM"/></g><g id="ae"><use transform="matrix(0.05,0,0,0.05,0,0)" xlink:href="#aJ"/><use transform="matrix(0.05,0,0,0.05,14,0)" xlink:href="#al"/><use transform="matrix(0.05,0,0,0.05,24,0)" xlink:href="#aq"/><use transform="matrix(0.05,0,0,0.05,34,0)" xlink:href="#aG"/></g><g id="af"><use transform="matrix(0.05,0,0,0.05,0,0)" xlink:href="#ay"/><use transform="matrix(0.05,0,0,0.05,12.950000000000001,0)" xlink:href="#aj"/><use transform="matrix(0.05,0,0,0.05,22.950000000000003,0)" xlink:href="#am"/><use transform="matrix(0.05,0,0,0.05,31.950000000000003,0)" xlink:href="#aF"/><use transform="matrix(0.05,0,0,0.05,41.95,0)" xlink:href="#aC"/><use transform="matrix(0.05,0,0,0.05,50.95,0)" xlink:href="#aw"/><use transform="matrix(0.05,0,0,0.05,54.900000000000006,0)" xlink:href="#ar"/><use transform="matrix(0.05,0,0,0.05,64.9,0)" xlink:href="#aq"/></g><path d="M101-251c68 0 85 55 85 127S166 4 100 4C33 4 14-52 14-124c0-73 17-127 87-127zm-1 229c47 0 54-49 54-102s-4-102-53-102c-51 0-55 48-55 102 0 53 5 102 54 102" id="ba"/><g id="ag"><use transform="matrix(0.05,0,0,0.05,0,0)" xlink:href="#ap"/><use transform="matrix(0.05,0,0,0.05,10,0)" xlink:href="#aF"/><use transform="matrix(0.05,0,0,0.05,20,0)" xlink:href="#an"/><use transform="matrix(0.05,0,0,0.05,25,0)" xlink:href="#aQ"/><use transform="matrix(0.05,0,0,0.05,35,0)" xlink:href="#ba"/></g></defs></g></svg>