<?xml version="1.0" encoding="utf-8"?>
<!-- Generator: Adobe Illustrator 23.0.3, SVG Export Plug-In . SVG Version: 6.00 Build 0)  -->
<svg version="1.1" id="Layer_1" xmlns="http://www.w3.org/2000/svg" xmlns:xlink="http://www.w3.org/1999/xlink" x="0px" y="0px"
	 viewBox="0 0 680 511.8" style="enable-background:new 0 0 680 511.8;" xml:space="preserve">
<style type="text/css">
	.st0{fill:none;stroke:#1C3664;stroke-width:2;stroke-miterlimit:10;}
	.st1{fill:#1C3664;}
	.st2{fill:#FFFFFF;}
	.st3{fill:#FAA31D;}
	.st4{font-family:'RobotoCondensed-Regular';}
	.st5{font-size:11px;}
	.st6{fill:#8E8E8E;}
	.st7{font-family:'OpenSans-Bold';}
	.st8{fill:#1A99CF;}
	.st9{fill:#6CBE4C;}
	.st10{fill:#F15B5E;}
	.st11{font-family:'RobotoCondensed-Bold';}
	.st12{font-size:9px;}
	.st13{fill:#69488E;}
	.st14{fill:none;stroke:#F15C5E;stroke-width:2;stroke-miterlimit:10;}
	.st15{fill:#F15C5E;}
	.st16{fill:none;stroke:#6CBE4C;stroke-width:2;stroke-miterlimit:10;}
	.st17{fill:none;stroke:#6CBE4C;stroke-width:2.493;stroke-miterlimit:10;}
</style>
<text transform="matrix(1 0 0 1 787.1626 29.4604)" class="st2" style="font-family:'OpenSans'; font-size:10px;">  </text>
<g>
	<g>
		<path class="st0" d="M287.3,279c17-7.9,27.5-18.2,33-24.5c11.8-13.5,16.7-26.9,21.2-39.1c4.3-11.6,6.6-22.1,8-30.5"/>
		<g>
			<polygon class="st1" points="354.2,187 350.6,177.8 344.3,185.6 			"/>
		</g>
	</g>
</g>
<path class="st2" d="M354,240.3h-39.1c-3.3,0-6-2.7-6-6l0,0c0-3.3,2.7-6,6-6H354c3.3,0,6,2.7,6,6l0,0
	C360.1,237.5,357.4,240.3,354,240.3z"/>
<g>
	
		<rect x="494.5" y="177.9" transform="matrix(0.7071 -0.7071 0.7071 0.7071 15.5377 410.2606)" class="st3" width="17" height="17"/>
	<path class="st2" d="M501.3,183.6l-0.1,0.1C501.3,183.7,501.3,183.6,501.3,183.6z"/>
	<g>
		<path class="st2" d="M504.5,181.7c0.4,0.5,0.5,0.9,0.5,1.5c0,0.4-0.1,0.9-0.4,1.2c-0.1,0.2-0.3,0.5-0.5,0.7l-0.8,0.7
			c-0.7,0.7-1.1,1.2-1.3,1.8c-0.2,0.5-0.3,1.2-0.3,2.1h1.6c0-0.8,0.1-1.3,0.3-1.7s0.6-0.9,1.1-1.4c0.8-0.8,1.3-1.3,1.5-1.7
			s0.4-0.9,0.4-1.5c0-1-0.4-1.9-1-2.6c-0.7-0.7-1.6-1-2.8-1s-2.3,0.4-2.9,1.1s-1,1.8-1,3.1h1.6c0-0.8,0.2-1.3,0.4-1.8
			c0.4-0.8,1-1.1,2.1-1.1C503.6,181.1,504.2,181.3,504.5,181.7z"/>
		<rect x="501.8" y="191.1" class="st2" width="1.8" height="1.9"/>
	</g>
</g>
<g>
	<rect x="279.6" y="151" transform="matrix(0.7071 -0.7071 0.7071 0.7071 -28.4219 250.481)" class="st3" width="17" height="17"/>
	<path class="st2" d="M286.5,156.9l-0.1,0.1L286.5,156.9z"/>
	<g>
		<path class="st2" d="M289.6,155c0.4,0.5,0.5,0.9,0.5,1.5c0,0.4-0.1,0.9-0.4,1.2c-0.1,0.2-0.3,0.5-0.5,0.7l-0.7,0.6
			c-0.7,0.7-1.1,1.2-1.3,1.8c-0.2,0.5-0.3,1.2-0.3,2.1h1.6c0-0.8,0.1-1.3,0.3-1.7c0.2-0.4,0.6-0.9,1.1-1.4c0.8-0.8,1.3-1.3,1.5-1.7
			s0.4-0.9,0.4-1.5c0-1-0.4-1.9-1-2.6c-0.7-0.7-1.6-1-2.8-1c-1.2,0-2.3,0.4-2.9,1.1s-1,1.8-1,3.1h1.6c0-0.8,0.2-1.3,0.4-1.8
			c0.4-0.8,1-1.1,2.1-1.1C288.7,154.4,289.3,154.6,289.6,155z"/>
		<rect x="286.9" y="164.3" class="st2" width="1.8" height="1.9"/>
	</g>
</g>
<g>
	
		<rect x="22.9" y="158.4" transform="matrix(0.7071 -0.7071 0.7071 0.7071 -108.8078 71.0671)" class="st3" width="17" height="17"/>
	<path class="st2" d="M29.7,164.1l-0.1,0.1C29.7,164.2,29.7,164.1,29.7,164.1z"/>
	<g>
		<path class="st2" d="M32.9,162.2c0.4,0.5,0.5,0.9,0.5,1.5c0,0.4-0.1,0.9-0.4,1.2c-0.1,0.2-0.3,0.5-0.5,0.7l-0.8,0.7
			c-0.7,0.7-1.1,1.2-1.3,1.8c-0.2,0.5-0.3,1.2-0.3,2.1h1.6c0-0.8,0.1-1.3,0.3-1.7s0.6-0.9,1.1-1.4c0.8-0.8,1.3-1.3,1.5-1.7
			s0.4-0.9,0.4-1.5c0-1-0.4-1.9-1-2.6c-0.7-0.7-1.6-1-2.8-1s-2.3,0.4-2.9,1.1c-0.7,0.8-1,1.8-1,3.1h1.6c0-0.8,0.2-1.3,0.4-1.8
			c0.4-0.8,1-1.1,2.1-1.1C32,161.6,32.5,161.8,32.9,162.2z"/>
		<rect x="30.2" y="171.6" class="st2" width="1.8" height="1.9"/>
	</g>
</g>
<text transform="matrix(1 0 0 1 47.9183 159.5621)" class="st3 st4 st5">Authorized Contributor </text>
<text transform="matrix(1 0 0 1 47.9183 170.5621)" class="st6 st4 st5">Is the Contributor </text>
<text transform="matrix(1 0 0 1 47.9183 181.5621)" class="st6 st4 st5">authorized under the CLA?</text>
<text transform="matrix(1 0 0 1 160.3184 181.5621)" class="st3 st7 st5">  </text>
<g>
	<g>
		<path class="st8" d="M408.7,98.8v-8.6h-12.9v16.1h5.9c0.4,0,0.7,0.3,0.7,0.7c0,0.4-0.3,0.7-0.7,0.7H395c-0.4,0-0.7-0.3-0.7-0.7
			V89.4c0-0.4,0.3-0.7,0.7-0.7h14.4c0.4,0,0.7,0.3,0.7,0.7v9.4c0,0.4-0.3,0.7-0.7,0.7C409.1,99.6,408.7,99.3,408.7,98.8z
			 M412.7,100.7c-0.3-0.3-0.8-0.3-1.1,0.1l-4.2,4.7l-2.2-2c-0.3-0.3-0.8-0.3-1.1,0c-0.3,0.3-0.3,0.8,0,1.1l2.7,2.6
			c0.1,0.1,0.3,0.2,0.5,0.2l0,0c0.2,0,0.4-0.1,0.5-0.3l4.8-5.3C413,101.5,413,101.1,412.7,100.7z M405.9,93.2h-7
			c-0.4,0-0.7,0.3-0.7,0.7c0,0.4,0.3,0.7,0.7,0.7h6.9c0.4,0,0.7-0.3,0.7-0.7C406.6,93.5,406.3,93.2,405.9,93.2z M406.6,98.2
			c0-0.4-0.3-0.7-0.7-0.7h-7c-0.4,0-0.7,0.3-0.7,0.7c0,0.4,0.3,0.7,0.7,0.7h6.9C406.3,99,406.6,98.6,406.6,98.2z M398.9,101.6
			c-0.4,0-0.7,0.3-0.7,0.7c0,0.4,0.3,0.7,0.7,0.7h2.1c0.4,0,0.7-0.3,0.7-0.7c0-0.4-0.3-0.7-0.7-0.7H398.9z"/>
	</g>
</g>
<text transform="matrix(1 0 0 1 215.7746 19.7829)" class="st8 st4 st5">Project Manager or Maintainer</text>
<text transform="matrix(1 0 0 1 215.7746 30.7829)" class="st6 st4 st5">Sets  up CLA using CLA Autobot</text>
<text transform="matrix(1 0 0 1 215.7746 41.7829)" class="st6 st4 st5">or CLARA on CommunityBridge.</text>
<path class="st8" d="M209.7,19.1c-0.2-0.5-0.3-1-0.3-1s0,0-0.1,0.1l0,0c0.1-0.1,0.2-0.1,0.2-0.1l0.2-0.1c0,0-0.1-0.5-1.1-1
	c-1-0.6-1.2-0.8-1.2-0.8s-0.1,0-0.2,0c-0.1,0-0.1-0.1-0.2-0.2c-0.2-0.3-0.2-0.8-0.2-0.8s0.1-0.1,0.2-0.2c0.1-0.1,0.4-0.8,0.4-0.8
	s0,0,0-0.1s0.1-0.4,0.2-0.7c0.1-0.3-0.1-0.3-0.1-0.3s-0.1-1.2-0.5-1.7c-0.8-0.7-1.7-0.6-2.3,0s-0.3,2-0.3,2l-0.1,0.1
	c-0.1,0.3,0.4,0.9,0.4,1.1c0.1,0.2,0,1.4,0,1.4c-0.1,0.1-0.2,0.2-0.3,0.3c-0.2,0-0.3,0-0.4,0.1c0,0-0.8,0.2-1.2,0.5
	s-0.7,0.7-0.8,0.9c-0.1,0.2-0.3,0.6-0.3,0.6s0.2,0.2,0.3,0.2s0.1,0.2,0.1,0.3c0,0.1-0.1,0.2,0.1,0.3c0.1,0.1,0.3,0.2,0.3,0.2
	s0,0,0.1,0c0.1,0.3,0.1,0.6,0.2,0.8c0.1,0.4,0.2,0.8,0.3,1s0,0.1,0,0.3c0.1,0.2,0.1,0.2,0.1,0.2s0,0.1,0,0.2s0.1,0.1,0.1,0.1v0.1
	c0.1,0.1,0.1,0.1,0.1,0.1s0,0.1,0.1,0.2s0.1,0.1,0.1,0.1s0,0.1,0.1,0.2v0.1c0,0.2,0.1,0.4,0,0.8c-0.1,0.3-0.3,0.5-0.4,0.7l0,0l0,0
	v0.1c0,0.3-0.1,0.4-0.1,0.5c-0.1,0-0.1,0.2,0,0.3c0.1,0.1,0.1,0.3,0.1,0.3s-0.2,0.1-0.2,0.3s-0.1,0.5-0.1,0.8s-0.4,2.1-0.4,2.8
	s-0.2,2.6-0.2,2.8c0,0.1,0.6,0.4,1.5,0.5l0,0c0,0,0.2,1.2,0.3,1.6c0.1,0.4-0.1,2.4,0,3.2s0.4,1.8,0.7,2.2s0.3,1.2,0.4,1.5
	c0.1,0.3-0.1,1.1-0.1,1.2c-0.1,0.1-0.1,1-0.2,1.1v0.1l0,0c-0.1,0.3-0.3,0.8,0.1,0.8c0.5,0,1.9,0,1.9,0h2.8c0,0,0.3-0.4-0.1-0.5
	c-0.3,0-0.4-0.2-0.5-0.3l0,0c0-0.1-0.1-0.1-0.1-0.2c-0.1-0.2-0.1-0.2-0.2-0.5c-0.1-0.3-0.4-0.4-0.4-0.8c0-0.4-0.2-0.9,0-1.5
	s0.8-2.9,0.9-3.3c0.1-0.4,0.2-0.8,0.1-1.4c-0.1-0.6,0.1-2.9,0.1-3.3c0.1,0,0.1,0,0.1,0V29c0,0-0.1-0.9-0.2-1.2
	c-0.1-0.3-0.2-0.6-0.2-0.9c0-0.3,0-0.9,0-0.9l0.1-0.1c0-0.1-0.2-1.1-0.2-1.4s-0.1-0.4-0.2-0.6c-0.2-0.2-0.2-0.6-0.2-0.6s0-0.1,0-0.2
	c0.2,0,0.6,0,0.9,0c0.4-0.1,0.8,0,0.9,0c0.1,0,0.3-0.7,0.2-1.2C210.2,20.8,209.9,19.6,209.7,19.1z M206.9,32.4c0,0,0,1.7,0.1,2.4
	s-0.2,1.7-0.3,2.2s0,2.1,0,2.6s0,2.1-0.1,2.4c-0.1,0.3-0.1,0.8-0.2,1.3l0,0c0-0.2-0.1-0.4-0.1-0.6c-0.2-0.8-0.4-1.4-0.4-1.8
	c0-0.3-0.3-1.9-0.2-2.4c0-0.6,0-2.2-0.1-2.7c0-0.5,0.2-1.7,0.2-2.2s-0.2-1-0.2-1.3c0.4,0,0.8-0.1,0.8-0.1c0.1,0,0.2,0,0.4,0
	L206.9,32.4z M208.6,20.4c-0.1,0.1-0.2,0.4-0.2,0.5s-0.1,0.2-0.1,0.2s-0.1,0-0.3-0.1c0-0.3,0.1-0.7,0.1-0.7s0.2-0.7,0.3-0.9
	c0-0.1,0-0.1,0.1-0.2c0,0.1,0.1,0.1,0.1,0.3c0,0.2,0.1,0.4,0.1,0.7C208.7,20.5,208.7,20.3,208.6,20.4z"/>
<text transform="matrix(1 0 0 1 99.2016 94.7531)" class="st8 st4 st5">Developer (Contributor)</text>
<text transform="matrix(1 0 0 1 99.2016 105.7531)" class="st6 st4 st5">Makes a pull request on GitHub.</text>
<g>
	<path d="M94,91.8c-1-1.7-2.3-3-4-4s-3.5-1.5-5.5-1.5s-3.8,0.5-5.5,1.5s-3,2.3-4,4s-1.5,3.5-1.5,5.5c0,2.4,0.7,4.5,2.1,6.4
		s3.2,3.2,5.4,4c0.3,0,0.4,0,0.6-0.1c0.1-0.1,0.2-0.3,0.2-0.4c0,0,0-0.3,0-0.8s0-0.9,0-1.3l-0.3,0.1c-0.2,0-0.5,0.1-0.8,0
		c-0.3,0-0.6,0-1-0.1c-0.3-0.1-0.7-0.2-1-0.4c-0.3-0.2-0.5-0.5-0.6-0.9l-0.1-0.3c-0.1-0.2-0.2-0.5-0.4-0.7c-0.2-0.3-0.4-0.4-0.6-0.5
		l-0.1-0.1c-0.1,0-0.1-0.1-0.2-0.2s-0.1-0.1-0.1-0.2s0-0.1,0.1-0.2c0.1,0,0.2-0.1,0.4-0.1h0.3c0.2,0,0.4,0.2,0.7,0.3
		c0.3,0.2,0.5,0.4,0.7,0.7c0.2,0.4,0.5,0.7,0.8,0.9c0.3,0.2,0.6,0.3,0.9,0.3s0.6,0,0.8-0.1c0.2,0,0.4-0.1,0.6-0.2
		c0.1-0.6,0.3-1.1,0.7-1.5c-0.5-0.1-1-0.1-1.5-0.3c-0.4-0.1-0.9-0.3-1.3-0.6c-0.5-0.3-0.8-0.6-1.1-1c-0.3-0.4-0.6-0.9-0.7-1.5
		c-0.2-0.6-0.3-1.3-0.3-2.1c0-1.1,0.4-2.1,1.1-2.9c-0.4-0.9-0.3-1.8,0.1-2.9c0.3-0.1,0.7,0,1.2,0.2s0.9,0.4,1.2,0.5
		c0.3,0.2,0.5,0.3,0.6,0.4c0.9-0.2,1.8-0.4,2.7-0.4c0.9,0,1.9,0.1,2.7,0.4l0.5-0.3c0.4-0.2,0.8-0.4,1.3-0.6s0.9-0.2,1.2-0.2
		c0.4,1.1,0.5,2,0.1,2.9c0.8,0.8,1.1,1.8,1.1,2.9c0,0.8-0.1,1.5-0.3,2.1c-0.2,0.6-0.4,1.1-0.8,1.5c-0.3,0.4-0.7,0.7-1.2,0.9
		c-0.5,0.3-0.9,0.4-1.3,0.6c-0.4,0.1-0.9,0.2-1.5,0.3c0.5,0.4,0.7,1.1,0.7,2v3c0,0.2,0.1,0.3,0.2,0.4s0.3,0.1,0.6,0.1
		c2.2-0.7,4-2,5.4-4c1.4-1.9,2.1-4,2.1-6.4C95.4,95.3,94.9,93.5,94,91.8z"/>
</g>
<g>
	<path class="st9" d="M162.2,496.4H48.8c-14.3,0-26-11.7-26-26v-1.8c0-14.3,11.7-26,26-26h113.4c14.3,0,26,11.7,26,26v1.8
		C188.3,484.7,176.5,496.4,162.2,496.4z"/>
	<g>
		<g>
			<g>
				<path class="st2" d="M52.4,461.7c-2.2-2.2-5-3.3-8.1-3.3s-5.9,1.2-8.1,3.3c-2.2,2.2-3.3,5-3.3,8.1s1.2,5.9,3.3,8.1
					c2.2,2.2,5,3.3,8.1,3.3s5.9-1.2,8.1-3.3c2.2-2.2,3.3-5,3.3-8.1S54.5,463.9,52.4,461.7z M44.3,479.9c-5.6,0-10.1-4.5-10.1-10.1
					s4.5-10.1,10.1-10.1s10.1,4.5,10.1,10.1C54.4,475.4,49.9,479.9,44.3,479.9z"/>
			</g>
		</g>
		<g>
			<g>
				<path class="st2" d="M49.8,466.1c-0.2-0.2-0.6-0.2-1,0l-5.9,5.9l-3.1-3.1c-0.2-0.2-0.6-0.2-1,0c-0.2,0.2-0.2,0.6,0,1l3.6,3.6
					c0.2,0.2,0.3,0.2,0.5,0.2s0.3-0.1,0.5-0.2l6.4-6.4C50,466.8,50,466.4,49.8,466.1z"/>
			</g>
		</g>
	</g>
	<g>
		<text transform="matrix(1 0 0 1 62.4463 456.4923)" class="st2 st4 st5">Approved Contributor</text>
		<text transform="matrix(1 0 0 1 62.4463 467.4923)" class="st2 st4 st5">Pull request shows checks</text>
		<text transform="matrix(1 0 0 1 62.4463 478.4923)" class="st2 st4 st5">are passed and Contributor</text>
		<text transform="matrix(1 0 0 1 62.4463 489.4923)" class="st2 st4 st5">can commit their code.</text>
	</g>
</g>
<g>
	<g>
		<path class="st10" d="M144.6,221.9c-2.2-2.2-5-3.3-8.1-3.3s-5.9,1.2-8.1,3.3c-2.2,2.2-3.3,5-3.3,8.1s1.2,5.9,3.3,8.1
			c2.2,2.2,5,3.3,8.1,3.3s5.9-1.2,8.1-3.3c2.2-2.2,3.3-5,3.3-8.1S146.7,224,144.6,221.9z M143.5,237.1c-1.9,1.9-4.4,3-7.2,3
			c-2.7,0-5.2-1-7.2-3c-4-4-4-10.3,0-14.3c1.9-1.9,4.4-3,7.2-3c2.7,0,5.2,1,7.2,3C147.5,226.7,147.5,233.2,143.5,237.1z"/>
		<path class="st10" d="M141.5,224.9c-0.2-0.2-0.6-0.2-0.9,0l-4.1,4.1l-4.1-4.1c-0.2-0.2-0.6-0.2-0.9,0c-0.2,0.2-0.2,0.6,0,0.9
			l4.1,4.1l-4.1,4.1c-0.2,0.2-0.2,0.6,0,0.9c0.2,0.2,0.3,0.2,0.5,0.2s0.3-0.1,0.5-0.2l4.1-4.1l4.1,4.1c0.2,0.2,0.3,0.2,0.5,0.2
			s0.3-0.1,0.5-0.2c0.2-0.2,0.2-0.6,0-0.9l-4.1-4.1l4.1-4.1C141.7,225.5,141.7,225.1,141.5,224.9z"/>
	</g>
</g>
<g>
	<text transform="matrix(1 0 0 1 152.1985 224.1602)" class="st10 st4 st5">Pull Request Rejected</text>
	<text transform="matrix(1 0 0 1 152.1985 235.1602)" class="st6 st4 st5">GitHub rejection comment </text>
	<text transform="matrix(1 0 0 1 152.1985 246.1602)" class="st6 st4 st5">contains a link to CLA Bot.</text>
</g>
<text transform="matrix(1 0 0 1 219.981 293.9966)" class="st3 st4 st5">Choose Contributor Type</text>
<text transform="matrix(1 0 0 1 219.981 304.9966)" class="st6 st4 st5">Select between individual </text>
<text transform="matrix(1 0 0 1 219.981 315.9966)" class="st6 st4 st5">or corporate contributor.</text>
<g>
	
		<rect x="195.8" y="293.9" transform="matrix(0.7071 -0.7071 0.7071 0.7071 -153.978 232.9924)" class="st3" width="17" height="17"/>
	<path class="st2" d="M202.6,299.6l-0.1,0.1C202.6,299.7,202.6,299.6,202.6,299.6z"/>
	<g>
		<path class="st2" d="M205.8,297.7c0.4,0.5,0.5,0.9,0.5,1.5c0,0.4-0.1,0.9-0.4,1.2c-0.1,0.2-0.3,0.5-0.5,0.7l-0.8,0.7
			c-0.7,0.7-1.1,1.2-1.3,1.8c-0.2,0.5-0.3,1.2-0.3,2.1h1.6c0-0.8,0.1-1.3,0.3-1.7c0.2-0.4,0.6-0.9,1.1-1.4c0.8-0.8,1.3-1.3,1.5-1.7
			c0.2-0.4,0.4-0.9,0.4-1.5c0-1-0.4-1.9-1-2.6c-0.7-0.7-1.6-1-2.8-1s-2.3,0.4-2.9,1.1c-0.7,0.8-1,1.8-1,3.1h1.6
			c0-0.8,0.2-1.3,0.4-1.8c0.4-0.8,1-1.1,2.1-1.1C204.9,297.2,205.4,297.4,205.8,297.7z"/>
		<rect x="203.1" y="307.1" class="st2" width="1.8" height="1.9"/>
	</g>
</g>
<text transform="matrix(1 0 0 1 153.996 355.8313)" class="st8 st4 st5">Individual Contributor</text>
<text transform="matrix(1 0 0 1 153.996 366.8313)" class="st6 st4 st5">Contributor signs the </text>
<text transform="matrix(1 0 0 1 153.996 377.8313)" class="st6 st4 st5">individual CLA.</text>
<g>
	<g>
		<g>
			<g>
				<g>
					<rect x="128.5" y="357" class="st8" width="11.5" height="1.7"/>
				</g>
			</g>
			<g>
				<g>
					<rect x="128.5" y="360.4" class="st8" width="11.5" height="1.7"/>
				</g>
			</g>
			<g>
				<g>
					<path class="st8" d="M145.5,357.5l-2,2v-7h-18.4v23.1h18.4v-13.7l3.2-3.2L145.5,357.5z M141.7,361.1l-2.8,2.8h-10.5v1.7h8.8
						l-3.6,3.6l-0.3,1.5l1.5-0.3l6.9-6.9v10.2h-15v-19.6h15L141.7,361.1L141.7,361.1z"/>
				</g>
			</g>
		</g>
	</g>
</g>
<text transform="matrix(1 0 0 1 304.9573 151.872)" class="st3 st4 st5">Corporate Contributor</text>
<text transform="matrix(1 0 0 1 304.9573 162.872)" class="st6 st4 st5">Has the Corporate CLA</text>
<text transform="matrix(1 0 0 1 304.9573 173.872)" class="st6 st4 st5">been signed?</text>
<text transform="matrix(1 0 0 1 313.2964 237.0332)" class="st1 st11 st12">CORPORATE</text>
<text transform="matrix(1 0 0 1 398.9966 260.6297)" class="st8 st4 st5">CLA Manager</text>
<text transform="matrix(1 0 0 1 398.9966 271.6297)" class="st6 st4 st5">CLA Manager whitelists</text>
<text transform="matrix(1 0 0 1 398.9966 282.6297)" class="st6 st4 st5">authorized contributors.</text>
<path class="st8" d="M390.5,261.9c-0.1-0.2-0.1-0.1-0.1-0.3c0-0.2,0-0.4,0-0.4s-0.1-0.3-0.1-0.4c-0.1-0.1-0.1-0.1-0.1-0.3
	c-0.1-0.2-0.2-0.5-0.3-0.8c-0.1-0.3-0.1-0.5-0.2-0.6s-0.5-0.2-0.5-0.2s-0.4-0.5-0.8-0.6s-0.6-0.1-0.6-0.2c-0.1-0.1-0.1-0.5-0.3-0.6
	c-0.1-0.1-0.4-0.2-0.4-0.2h-0.5c0.1-0.1,0.1-0.1,0.1-0.2c0-0.2,0.1-0.3,0.1-0.3s0.2,0,0.3-0.1c0.1-0.1,0.1-0.2,0.2-0.4
	c0.1-0.2,0.1-0.3,0.1-0.3c0-0.1,0.1,0,0.1-0.1c0-0.1,0.1-0.3,0.1-0.3s0.1,0,0.1-0.1s0-0.3,0-0.4c0,0,0.1-0.3,0-0.6
	c-0.1-0.4-0.1-1-0.7-1.1c0,0,0.1-0.4-0.1-0.5c0,0,0.1,0.2,0.1,0.4c0,0-0.3-0.5-1-0.5s-2.1,0.5-2.2,1.6c0,0-0.1,0.3-0.1,0.6
	c0.1,0.3,0,0.4,0,0.6c0.1,0.2,0.1,0.3,0.1,0.4c0,0.1,0.1,0.3,0.1,0.3s0,0.1,0.1,0.2s0,0.2,0.3,0.3c0,0,0.1,0.3,0.2,0.5
	c0.1,0.1,0.1,0.2,0,0.2l0,0c0,0-0.4-0.1-0.4,0.1s-0.2,0.3-0.4,0.5c-0.2,0.1-0.3,0.1-0.4,0.2c-0.1,0-0.3,0.1-0.4,0.2
	s-0.6,0.4-0.7,0.5s-0.3,0.2-0.3,0.3c0,0.1-0.4,0.5-0.4,0.8s0,0.6,0,0.8c0.1,0.1,0.1,0.4,0,0.5s-0.1,0.3,0,0.4s0.1,0.5,0.1,0.6
	c0,0.2-0.1,0.5,0,0.7c0.1,0.1,0.1,0.2,0.2,0.5s0.1,0.1,0.2,0.3c0.1,0.2,0.1,0.1,0.1,0.3s-0.1,0.2,0.1,0.4c0.2,0.2,0.3,0.3,0.3,0.3
	s0.2,0.4,0.2,0.5c0.1,0,0,0.1,0,0.2s-0.2,0.2-0.3,0.4c-0.1,0.3-0.1,0.3,0,0.4s0.1,0.1,0,0.2s-0.3,0.1-0.3,0.3c0,0.1,0,0.1-0.1,0.2
	c0,0,0,0.1,0,0.2s-0.1,0.1-0.1,0.3s0,0.3,0.4,0.2c0,0,0,0,0.1,0c0,0.1-0.1,0.2-0.1,0.3c-0.1,0.2-0.2,1-0.2,1.4
	c-0.1,0.4-0.2,1.1,0,1.7s0.6,1.2,0.8,2.2c0.2,1,0.6,2.4,0.5,2.6c0,0.2-0.2,0.1-0.2,0.3c0,0.1,0,0.2,0,0.3c0,0.1,0.1,0.1,0,0.2
	s-0.2,0.2-0.1,0.3c0.1,0.1,0.1,0.1,0,0.3c0,0.1-0.1,0.2-0.1,0.2s0,0.3,0,0.4s-0.1,1.3,0.1,2.3c0.2,0.9,0.6,2.5,0.8,2.8
	c0,0-0.1,0.2,0,0.3c0.1,0.1,0.1,0.1,0.2,0.3c0,0.2,0.1,0.3,0.1,0.3s0,0.2,0,0.3c0,0,0,0,0,0.1l0,0c0,0,0,0.1,0,0.2
	c0,0.2-0.1,0.2-0.1,0.5c0,0-0.4,0.3-0.4,0.6c0,0.3,0.1,0.3,0.4,0.3c0.2,0,1,0,1.5,0l0,0l4.3-0.1c0.2-0.3-0.2-0.8-0.5-0.8
	s-0.8-0.3-1-0.4s-0.3-0.2-0.5-0.3c-0.1-0.1-0.2-0.2-0.3-0.2l0,0l0,0c-0.1-0.1-0.4-0.5-0.3-0.7s0.1-0.2,0.1-0.3
	c0-0.1,0.1-0.3,0.1-0.4s0.1-0.2,0.1-0.3c0-0.1,0.1-0.4,0.1-0.4s0.9-2.6,1-2.9c0.1-0.2,0.2-0.2,0.2-0.5c0-0.2,0-0.4,0-0.4l0.3-0.3
	c0-0.3-0.2-0.4-0.1-0.5s0.2-0.2,0.2-0.2s0.3-1.9,0.1-3c-0.2-1.1,0-3.3-0.1-3.6c0,0,0.1-0.1,0-0.3c-0.1-0.1,0-0.1,0-0.3
	c0-0.2-0.3-0.6-0.3-0.8c0-0.2,0-0.4,0-0.4l-0.3-0.3v-0.3l-0.1-0.4c0.4-0.2,0.7-0.4,0.6-0.4c0-0.1-0.2-0.4-0.2-0.5s0-0.2,0-0.2
	l-0.2-0.3l-0.1-0.5c0,0,0.1,0.1,0.2-0.1s0.2-0.3,0.4-0.3c0.1,0,0.1,0,0.3-0.2c0.2-0.2,0.1-0.1,0.4-0.2s0.3-0.1,0.4-0.4
	s0.2-1.2,0.1-1.7C390.5,262.2,390.6,262.1,390.5,261.9z M385.5,282.6v-0.3l-0.2-0.3c0,0,0.2-1.9,0.1-2.6s-0.3-1.3-0.2-1.4
	c0.1-0.2,0.1-0.1,0.1-0.3c0-0.2-0.1-0.2,0-0.4c0.1-0.2,0.2-0.2,0.2-0.4c0-0.2,0.1-0.4,0.1-0.4s0.3-0.1,0.1-0.3c-0.1-0.1,0-0.5,0-0.5
	s0-1.7,0-2s0.1-1.9,0.2-1.9s0.2,0.3,0.3,0.5c0.1,0.2,0.4,2,0.5,2.4c0.2,0.4-0.1,1.1-0.1,1.3c0,0.2,0.1,0.5,0.2,0.6s0.1,0.2,0.1,0.5
	s0,0.3,0,0.4s-0.1,0.1-0.2,0.3c-0.1,0.2-0.6,1.3-0.6,2s0,1.1,0,1.2s-0.1,0.3-0.1,0.5s0,0.2-0.1,0.3c-0.1,0.1-0.2,0.3-0.2,0.3
	s0.2,0,0.1,0.3c-0.1,0.2,0,0.4-0.1,0.5c0,0.2,0,0.5,0,0.8c0-0.2-0.1-0.5-0.1-0.5c0-0.2-0.1-0.3-0.1-0.3L385.5,282.6z"/>
<text transform="matrix(1 0 0 1 416.9833 85.3514)" class="st8 st4 st5">Information Required</text>
<text transform="matrix(1 0 0 1 416.9833 96.3514)" class="st6 st4 st5">Contributor populates </text>
<text transform="matrix(1 0 0 1 416.9833 107.3514)" class="st6 st4 st5">personal, corporate, and </text>
<text transform="matrix(1 0 0 1 416.9833 118.3514)" class="st6 st4 st5">CLA Manager details.</text>
<text transform="matrix(1 0 0 1 518.7576 178.6575)" class="st3 st4 st5">Authorized</text>
<text transform="matrix(1 0 0 1 518.7576 189.6575)" class="st6 st4 st5">Is the CLA Manager an</text>
<text transform="matrix(1 0 0 1 518.7576 200.6575)" class="st6 st4 st5">authorized signatory?</text>
<text transform="matrix(1 0 0 1 566.3241 261.6297)" class="st8 st4 st5">CLA Manager</text>
<text transform="matrix(1 0 0 1 566.3241 272.6297)" class="st6 st4 st5">CLA Manager identifies</text>
<text transform="matrix(1 0 0 1 566.3241 283.6297)" class="st6 st4 st5">authorized signatory.</text>
<path class="st8" d="M558.6,260.5c-0.1-0.2-0.1-0.1-0.1-0.3c0-0.2,0-0.4,0-0.4s-0.1-0.3-0.1-0.4c-0.1-0.1-0.1-0.1-0.1-0.3
	c-0.1-0.2-0.2-0.5-0.3-0.8s-0.1-0.5-0.2-0.6c-0.1-0.1-0.5-0.2-0.5-0.2s-0.4-0.5-0.8-0.6c-0.4-0.1-0.6-0.1-0.6-0.2
	c-0.1-0.1-0.1-0.5-0.3-0.6c-0.1-0.1-0.4-0.2-0.4-0.2h-0.5c0.1-0.1,0.1-0.1,0.1-0.2c0-0.2,0.1-0.3,0.1-0.3s0.2,0,0.3-0.1
	s0.1-0.2,0.2-0.4c0.1-0.2,0.1-0.3,0.1-0.3s0.1,0,0.1-0.1s0.1-0.3,0.1-0.3s0.1,0,0.1-0.1s0-0.3,0-0.4c0,0,0.1-0.3,0-0.6
	c-0.1-0.4-0.1-1-0.7-1.1c0,0,0.1-0.4-0.1-0.5c0,0,0.1,0.2,0.1,0.4c0,0-0.3-0.5-1-0.5s-2.1,0.5-2.2,1.6c0,0-0.1,0.3-0.1,0.6
	c0.1,0.3,0,0.4,0,0.6c0.1,0.2,0.1,0.3,0.1,0.4s0.1,0.3,0.1,0.3s0,0.1,0.1,0.2s0,0.2,0.3,0.3c0,0,0.1,0.3,0.2,0.5
	c0.1,0.1,0.1,0.2,0,0.2l0,0c0,0-0.4-0.1-0.4,0.1s-0.2,0.3-0.4,0.5c-0.2,0.1-0.3,0.1-0.4,0.2c-0.1,0-0.3,0.1-0.4,0.2
	c-0.1,0.1-0.6,0.4-0.7,0.5c-0.1,0.1-0.3,0.2-0.3,0.3c0,0.1-0.4,0.5-0.4,0.8s0,0.6,0,0.8c0.1,0.1,0.1,0.4,0,0.5s-0.1,0.3,0,0.4
	s0.1,0.5,0.1,0.6s-0.1,0.5,0,0.7c0.1,0.1,0.1,0.2,0.2,0.5c0.1,0.3,0.1,0.1,0.2,0.3c0.1,0.2,0.1,0.1,0.1,0.3c0,0.2-0.1,0.2,0.1,0.4
	c0.2,0.2,0.3,0.3,0.3,0.3s0.2,0.4,0.2,0.5c0.1,0,0,0.1,0,0.2s-0.2,0.2-0.3,0.4c-0.1,0.3-0.1,0.3,0,0.4s0.1,0.1,0,0.2
	s-0.3,0.1-0.3,0.3c0,0.1,0,0.1-0.1,0.2c0,0,0,0.1,0,0.2s-0.1,0.1-0.1,0.3c0,0.1,0,0.3,0.4,0.2c0,0,0,0,0.1,0c0,0.1-0.1,0.2-0.1,0.3
	c-0.1,0.2-0.2,1-0.2,1.4c-0.1,0.4-0.2,1.1,0,1.7s0.6,1.2,0.8,2.2s0.6,2.4,0.5,2.6s-0.2,0.1-0.2,0.3c0,0.1,0,0.2,0,0.3
	c0,0.1,0.1,0.1,0,0.2s-0.2,0.2-0.1,0.3c0.1,0.1,0.1,0.1,0,0.3c0,0.1-0.1,0.2-0.1,0.2s0,0.3,0,0.4s-0.1,1.3,0.1,2.3
	c0.2,0.9,0.6,2.5,0.8,2.8c0,0-0.1,0.2,0,0.3c0.1,0.1,0.1,0.1,0.2,0.3s0.1,0.3,0.1,0.3s0,0.2,0,0.3c0,0,0,0,0,0.1l0,0
	c0,0,0,0.1,0,0.2c0,0.2-0.1,0.2-0.1,0.5c0,0-0.4,0.3-0.4,0.6c0,0.3,0.1,0.3,0.4,0.3c0.2,0,1,0,1.5,0l0,0l4.3-0.1
	c0.2-0.3-0.2-0.8-0.5-0.8s-0.8-0.3-1-0.4s-0.3-0.2-0.5-0.3c-0.1-0.1-0.2-0.2-0.3-0.2l0,0l0,0c-0.1-0.1-0.4-0.5-0.3-0.7
	c0.1-0.2,0.1-0.2,0.1-0.3c0-0.1,0.1-0.3,0.1-0.4s0.1-0.2,0.1-0.3c0-0.1,0.1-0.4,0.1-0.4s0.9-2.6,1-2.9c0.1-0.2,0.2-0.2,0.2-0.5
	c0-0.2,0-0.4,0-0.4l0.3-0.3c0-0.3-0.2-0.4-0.1-0.5c0.1-0.1,0.2-0.2,0.2-0.2s0.3-1.9,0.1-3s0-3.3-0.1-3.6c0,0,0.1-0.1,0-0.3
	c-0.1-0.1,0-0.1,0-0.3c0-0.2-0.3-0.6-0.3-0.8c0-0.2,0-0.4,0-0.4l-0.3-0.3v-0.3l-0.1-0.4c0.4-0.2,0.7-0.4,0.6-0.4
	c0-0.1-0.2-0.4-0.2-0.5s0-0.2,0-0.2l-0.2-0.3l-0.1-0.5c0,0,0.1,0.1,0.2-0.1s0.2-0.3,0.4-0.3c0.1,0,0.1,0,0.3-0.2s0.1-0.1,0.4-0.2
	c0.3-0.1,0.3-0.1,0.4-0.4c0.1-0.3,0.2-1.2,0.1-1.7C558.7,260.8,558.7,260.7,558.6,260.5z M553.6,281.2v-0.3l-0.2-0.3
	c0,0,0.2-1.9,0.1-2.6c-0.1-0.7-0.3-1.3-0.2-1.4c0.1-0.2,0.1-0.1,0.1-0.3c0-0.2-0.1-0.2,0-0.4c0.1-0.2,0.2-0.2,0.2-0.4
	c0-0.2,0.1-0.4,0.1-0.4s0.3-0.1,0.1-0.3c-0.1-0.1,0-0.5,0-0.5s0-1.7,0-2s0.1-1.9,0.2-1.9c0.1,0,0.2,0.3,0.3,0.5s0.4,2,0.5,2.4
	c0.2,0.4-0.1,1.1-0.1,1.3c0,0.2,0.1,0.5,0.2,0.6c0.1,0.1,0.1,0.2,0.1,0.5s0,0.3,0,0.4s-0.1,0.1-0.2,0.3c-0.1,0.2-0.6,1.3-0.6,2
	s0,1.1,0,1.2s-0.1,0.3-0.1,0.5s0,0.2-0.1,0.3c-0.1,0.1-0.2,0.3-0.2,0.3s0.2,0,0.1,0.3c-0.1,0.2,0,0.4-0.1,0.5c0,0.2,0,0.5,0,0.8
	c0-0.2-0.1-0.5-0.1-0.5c0-0.2-0.1-0.3-0.1-0.3V281.2z"/>
<text transform="matrix(1 0 0 1 541.5266 382.5526)" class="st13 st4 st5">CLA Signatory</text>
<text transform="matrix(1 0 0 1 541.5266 393.5526)" class="st6 st4 st5">Signs the corporate CLA.</text>
<path class="st13" d="M536.1,384.5c0-0.2,0-0.3,0-0.4s-0.2-0.3-0.1-0.6c0-0.3-0.1-1.2-0.2-1.5c-0.1-0.3-0.1-0.6-0.2-0.8
	c-0.1-0.2,0-0.2,0-0.4c-0.1-0.2-0.2-0.3-0.2-0.4c0-0.2-0.1-0.5-0.1-0.5s0-0.6,0-0.8c0-0.3-0.1-1.6-0.3-2.3c-0.2-0.7-0.3-0.9-0.6-1.1
	s-1.4-0.6-1.9-0.7h-0.1l-0.1-0.1c0-0.1,0-0.5,0-0.5s0.6-0.3,0.6-0.7c0.1-0.4,0.1-0.6,0.1-0.7c0,0,0.1-0.1,0.1-0.2
	c0-0.2,0.1-0.4,0.1-0.4c0-0.1,0.1-0.2,0-0.2s0-0.3,0-0.3s0.3-1.9-1.5-2.1c-0.1-0.2-0.2-0.3-0.5-0.4c0,0-0.8,0.1-0.7,0.7
	c-0.2,0.2-0.4,0.4-0.4,0.6c-0.2,0.8-0.2,1-0.2,1s-0.2,0.1-0.2,0.2c0,0.2,0.1,0.6,0.1,0.7s0.2,0.2,0.2,0.3c0,0.1,0,0.2,0.1,0.2
	s0.1,0,0.1,0s0,0.3,0.1,0.5s0.1,0.2,0.1,0.2s0,0.8,0,0.9s-0.2,0.2-0.4,0.3c-0.1,0.1-0.4,0.1-0.6,0.1c-0.3,0-1.8,0.5-2,1.3
	s-0.5,1.4-0.5,1.9s-0.1,1.1-0.2,1.9c-0.1,0.8-0.1,1.8,0,2.5c0.1,0.8,0.3,1.7,0.4,2.2s0.1,0.8,0.2,1c0.1,0.1,0.3,0.2,0.3,0.2l0.3,1
	c0,0,0,0,0,0.1c-0.1,0.4-0.1,0.6,0,1c0.1,0.6,0.3,1.1,0.5,1.6s0.3,0.9,0.4,1.6s0.1,0.8,0.1,1.3c-0.1,0.5,0,0.5-0.1,0.7
	s-0.2,0.5-0.2,0.8s0,1,0.1,1.3c0.1,0.4,0.2,0.7,0.2,1.2c0,0.6,0,1.3,0.1,1.7c0.1,0.4,0.3,1.1,0.3,1.4c0,0.2,0.1,0.3,0.1,0.4
	s0,0.1,0,0.2c0,0.2-0.3,1.1-0.2,1.4s0.5,0.3,1,0.3s0.9,0.1,1-0.5c0.1-0.7-0.1-1.1-0.1-1.3c0,0,0-0.1,0-0.2c0-0.2-0.1-0.4-0.1-0.5
	s0.1-0.1,0.1-0.2v-0.7c0-0.2-0.2-1.1-0.3-1.3c-0.1-0.2-0.1-0.5,0-0.8c0-0.3,0.1-1.1,0.2-1.6c0-0.4,0.1-0.8,0.1-1s0.1-0.5,0.1-0.5
	s0.2-0.3,0.3-0.9c0-0.6,0.1-1.2,0.1-1.2s0.1,0.8,0.2,1c0.1,0.2,0.1,0.4,0.1,0.7c0,0.3,0,1.1,0,1.5s0.1,1.2,0.1,1.4
	c0,0.3-0.2,0.3-0.1,0.5c0,0.2,0,0.5,0,0.5s0,0.4-0.1,0.6c0,0.2-0.1,0.3-0.1,0.5c-0.1,0.2-0.2,0.5-0.2,0.5v1.1l0,0
	c0,0.1,0.1,0.4,0.1,0.7c0,0.3,0,0.1,0,0.4c0.1,1-0.1,1.2,0.3,1.2c0.6,0,1.5,0.2,1.6-0.2c0.1-0.5-0.1-0.7-0.2-1
	c0-0.3-0.2-0.4-0.3-0.7l0,0c0-0.2-0.1-0.3,0.1-0.5c0.1-0.2,0.3-0.2,0.3-0.3c0-0.1,0-1.2,0-1.2s0.1-0.3,0.2-0.6
	c0.1-0.3,0.3-1.9,0.4-2.2c0.1-0.4,0.2-1.5,0.3-1.9s0.2-0.5,0.1-0.8c0-0.3,0.1-2,0.1-2.3s0.3-1.2,0.3-1.4c0-0.1,0-0.3,0.1-0.5
	c0-0.1,0.1-0.1,0.1-0.1c0.1-0.1,0.4-0.8,0.5-0.9s0.1-0.3,0.2-0.4c0.1-0.2,0.5-0.8,0.5-0.9s0-0.3,0-0.4h0.1c0,0,0-0.3,0-0.4
	C536.3,384.9,536.1,384.6,536.1,384.5z M528.5,383c0-0.1,0-0.1,0-0.2l0,0c0-0.2,0-0.1,0-0.2c-0.1-0.1,0-0.1,0-0.2s0-0.1,0-0.2
	c-0.1-0.1,0,0,0.1-0.2c0.1-0.1,0.1-0.1,0-0.3c0-0.1,0-0.2,0-0.2s0,0,0-0.2s0.1-0.5,0.1-0.7c0.1-0.2,0.1-0.7,0.1-0.7
	c0,0.1,0.1,0.2,0.1,0.2s0,0.2,0,0.3c0,0.1,0,0.1,0,0.2c0,0.2,0,0.2,0,0.4c0,0.2,0,0.1,0,0.3c-0.1,0.1-0.1,0.2-0.1,0.4
	c0,0.2,0.1,0.2,0.1,0.3c0.1,0.2-0.1,0.2-0.1,0.2s-0.1,0.2-0.1,0.3c0,0.1,0,0.1,0,0.2s0,0.1,0,0.2C528.6,383,528.6,383,528.5,383
	C528.6,383,528.5,383,528.5,383z"/>
<g>
	<g>
		<path class="st0" d="M245,48.5c-4.6,4.4-10.1,9-16.7,13.5c-12.5,8.4-24.8,13.3-34.8,16.2"/>
		<g>
			<polygon class="st1" points="193.6,73 186.5,80 196.1,82.6 			"/>
		</g>
	</g>
</g>
<g>
	<g>
		<path class="st0" d="M132.5,112.8c-3.3,0.2-14.5,1.4-24.4,10.3c-6,5.4-9.2,11.5-11,16.2"/>
		<g>
			<polygon class="st1" points="92.8,136.5 95.2,146.2 102.4,139.3 			"/>
		</g>
	</g>
</g>
<g>
	<g>
		<path class="st14" d="M99.4,186.1c-0.1,3.4,0,10.9,4.5,18.6c4.2,7.3,10.3,11.4,15.1,13.6"/>
		<g>
			<polygon class="st15" points="115.9,222.4 125.7,220.8 119.4,213 			"/>
		</g>
	</g>
</g>
<g>
	<g>
		<path class="st0" d="M188.5,250.1c0.2,3.5,1.2,10,5.2,16.6c3.9,6.4,8.9,10.3,13.1,12.9"/>
		<g>
			<polygon class="st1" points="203.3,283.2 213.3,282.6 207.8,274.2 			"/>
		</g>
	</g>
</g>
<g>
	<g>
		<path class="st0" d="M269.5,318.8c3.5,12.3-1.9,25.1-12.4,31.3"/>
		<g>
			<polygon class="st1" points="256.3,344.8 250.5,352.9 260.4,353.9 			"/>
		</g>
	</g>
</g>
<g>
	<g>
		<path class="st16" d="M21,180c-6.2,28.2-7.5,52.2-7.4,69.4c0.2,38.9,7.8,68.9,12.5,87.4c5.2,20.1,11.4,37.9,18.6,58.5
			c4.4,12.6,8.5,23.5,11.9,32.2"/>
		<g>
			<polygon class="st9" points="51.5,427.9 59.2,434.2 60.8,424.4 			"/>
		</g>
	</g>
</g>
<g>
	<g>
		<path class="st16" d="M174.2,389c3.5,12.3-1.9,25.1-12.4,31.3"/>
		<g>
			<polygon class="st9" points="161,415 155.2,423.1 165.1,424.1 			"/>
		</g>
	</g>
</g>
<path class="st2" d="M290.1,341.1H251c-3.3,0-6-2.7-6-6l0,0c0-3.3,2.7-6,6-6h39.1c3.3,0,6,2.7,6,6l0,0
	C296.1,338.3,293.4,341.1,290.1,341.1z"/>
<text transform="matrix(1 0 0 1 250.4172 337.836)" class="st1 st11 st12">INDIVIDUAL</text>
<path class="st2" d="M120.5,208.1H81.4c-3.3,0-6-2.7-6-6l0,0c0-3.3,2.7-6,6-6h39.1c3.3,0,6,2.7,6,6l0,0
	C126.5,205.4,123.8,208.1,120.5,208.1z"/>
<text transform="matrix(1 0 0 1 96.6254 205.5427)" class="st10 st11 st12">NO</text>
<path class="st2" d="M39.4,302.7H7.5c-2.7,0-4.9-2.7-4.9-6l0,0c0-3.3,2.2-6,4.9-6h31.9c2.7,0,4.9,2.7,4.9,6l0,0
	C44.3,300,42.1,302.7,39.4,302.7z"/>
<text transform="matrix(1 0 0 1 10.1416 299.7377)" class="st9 st11 st12">YES</text>
<g>
	<g>
		<path class="st14" d="M351.8,137.4c0.7-4.4,2.7-12.7,9-20.6c7.3-9.2,16.7-13.3,23.2-15.2"/>
		<g>
			<polygon class="st15" points="383.7,106.8 391,100.1 381.5,97.1 			"/>
		</g>
	</g>
</g>
<path class="st2" d="M370.6,133.5l-26-26c-2.8-2.8-2.8-7.4,0-10.2l0.8-0.8c2.8-2.8,7.4-2.8,10.2,0l26,26c2.8,2.8,2.8,7.4,0,10.2
	l-0.8,0.8C378,136.3,373.4,136.3,370.6,133.5z"/>
<text transform="matrix(1 0 0 1 358.0839 118.1889)" class="st10 st11 st12">NO</text>
<g>
	<g>
		<path class="st16" d="M373,173.4c9.5,4.3,20.6,10.4,29.9,18.7c19.8,17.8,19.9,35.7,17.5,46.4"/>
		<g>
			<polygon class="st9" points="416,235.7 418.4,245.4 425.6,238.5 			"/>
		</g>
	</g>
</g>
<path class="st2" d="M193.3,409.1h-39.1c-3.3,0-6-2.7-6-6l0,0c0-3.3,2.7-6,6-6h39.1c3.3,0,6,2.7,6,6l0,0
	C199.3,406.4,196.6,409.1,193.3,409.1z"/>
<text transform="matrix(1 0 0 1 148.4595 406.066)" class="st9 st11 st12">CHECK PASSED</text>
<g>
	<g>
		<path class="st16" d="M419.8,287.7c-10.1,27-27,66-52.5,99.9c-33,43.8-64,57-91,68.4c-17.2,7.4-41.1,14.8-70.1,15.8"/>
		<g>
			<polygon class="st9" points="208,464.3 196.5,471.7 208.2,478.9 			"/>
		</g>
	</g>
</g>
<path class="st2" d="M390.8,399.2H334c-3.3,0-6-2.7-6-6l0,0c0-3.3,2.7-6,6-6h56.8c3.3,0,6,2.7,6,6l0,0
	C396.8,396.5,394.1,399.2,390.8,399.2z"/>
<text transform="matrix(1 0 0 1 333.9913 396.1196)" class="st9 st11 st12">CHECK PASSED</text>
<g>
	<g>
		<path class="st0" d="M521.4,94.9c4.6,2.2,18.6,9.7,27,26.4c7.4,14.8,6.5,29,5,37.4"/>
		<g>
			<polygon class="st1" points="548.8,156.1 551.6,165.7 558.5,158.4 			"/>
		</g>
	</g>
</g>
<path class="st2" d="M617,138.4h-77.3c-6.9,0-12.5-5.6-12.5-12.5V125c0-6.9,5.6-12.5,12.5-12.5H617c6.9,0,12.5,5.6,12.5,12.5v0.9
	C629.5,132.8,623.9,138.4,617,138.4z"/>
<g>
	<g>
		<g>
			<path class="st1" d="M519.3,120.5h-13.8c-0.7,0-1.4,0.7-1.4,1.4v9.6c0,0.7,0.7,1.4,1.4,1.4h13.8c0.7,0,1.4-0.7,1.4-1.4v-9.6
				C520.7,121.2,520.1,120.5,519.3,120.5z M505.4,121.2h13.8h0.2c-1.2,1-5.2,4.7-6.6,5.9c-0.2,0.2-0.3,0.2-0.5,0.2
				c-0.2,0-0.3-0.2-0.5-0.2C510.5,126.1,506.5,122.4,505.4,121.2C505.3,121.2,505.4,121.2,505.4,121.2z M504.7,131.7v-9.8v-0.2
				c0.9,0.9,3.7,3.3,5.4,5.1c-1.7,1.6-4.5,4.2-5.4,5.1C504.7,131.7,504.7,131.7,504.7,131.7z M519.3,132.4h-13.8h-0.2
				c0.9-0.9,3.7-3.5,5.4-5.1c0.2,0.2,0.5,0.3,0.5,0.5c0.3,0.2,0.7,0.3,1,0.3c0.3,0,0.7-0.2,1-0.3c0.2-0.2,0.3-0.3,0.5-0.5
				C515.8,128.7,518.6,131.3,519.3,132.4C519.4,132.4,519.3,132.4,519.3,132.4z M520,131.7v0.2c-0.9-0.9-3.7-3.5-5.4-5.1
				c1.7-1.6,4.5-4.2,5.4-5.1v0.2V131.7z"/>
		</g>
	</g>
</g>
<text transform="matrix(1 0 0 1 524.5515 124.9219)" class="st1 st11 st12">CLA BOT EMAILS </text>
<text transform="matrix(1 0 0 1 528.1515 133.9219)" class="st1 st11 st12">CLA MANAGER</text>
<g>
	<g>
		<path class="st16" d="M529.8,208.9c-6.1,1.8-14.9,5.3-23.8,12.2c-12,9.3-18.4,20.6-21.9,28.6"/>
		<g>
			<polygon class="st9" points="480.1,246.6 481.6,256.4 489.3,250.2 			"/>
		</g>
	</g>
</g>
<path class="st2" d="M518.1,230.8H479c-3.3,0-6-2.7-6-6l0,0c0-3.3,2.7-6,6-6h39.1c3.3,0,6,2.7,6,6l0,0
	C524.1,228.1,521.4,230.8,518.1,230.8z"/>
<text transform="matrix(1 0 0 1 489.9848 227.8588)" class="st9 st11 st12">YES</text>
<path class="st2" d="M429.5,207.9h-39.1c-3.3,0-6-2.7-6-6l0,0c0-3.3,2.7-6,6-6h39.1c3.3,0,6,2.7,6,6l0,0
	C435.6,205.2,432.8,207.9,429.5,207.9z"/>
<text transform="matrix(1 0 0 1 401.4091 204.9807)" class="st9 st11 st12">YES</text>
<g>
	<g>
		<path class="st0" d="M628.2,293c2,4.7,7.6,19.6,2.9,37.7c-4.2,16-14.2,26.1-20.9,31.4"/>
		<g>
			<polygon class="st1" points="608.5,357 604.3,366.1 614.3,365.2 			"/>
		</g>
	</g>
</g>
<path class="st2" d="M667.5,336h-77.3c-6.9,0-12.5-5.6-12.5-12.5v-0.9c0-6.9,5.6-12.5,12.5-12.5h77.3c6.9,0,12.5,5.6,12.5,12.5v0.9
	C680,330.3,674.4,336,667.5,336z"/>
<g>
	<g>
		<g>
			<path class="st1" d="M597.3,318.8h-12.6c-0.6,0-1.3,0.6-1.3,1.3v8.8c0,0.6,0.6,1.3,1.3,1.3h12.6c0.6,0,1.3-0.6,1.3-1.3v-8.8
				C598.6,319.3,598.1,318.8,597.3,318.8z M584.7,319.4h12.6h0.2c-1.1,1-4.8,4.3-6,5.4c-0.2,0.2-0.3,0.2-0.5,0.2s-0.3-0.2-0.5-0.2
				C589.3,323.7,585.7,320.4,584.7,319.4C584.6,319.4,584.7,319.4,584.7,319.4z M584.1,328.8v-8.8v-0.2c0.8,0.8,3.3,3,4.9,4.6
				c-1.6,1.4-4.1,3.8-4.9,4.6C584.1,329,584.1,329,584.1,328.8z M597.3,329.5h-12.6h-0.2c0.8-0.8,3.3-3.2,4.9-4.6
				c0.2,0.2,0.5,0.3,0.5,0.5c0.3,0.2,0.6,0.3,1,0.3s0.6-0.2,1-0.3c0.2-0.2,0.3-0.3,0.5-0.5C594.1,326.3,596.6,328.7,597.3,329.5
				C597.4,329.5,597.3,329.5,597.3,329.5z M597.9,328.8v0.2c-0.8-0.8-3.3-3.2-4.9-4.6c1.6-1.4,4.1-3.8,4.9-4.6v0.2V328.8z"/>
		</g>
	</g>
</g>
<text transform="matrix(1 0 0 1 603.4504 322.465)" class="st1 st11 st12">CLA BOT EMAILS </text>
<text transform="matrix(1 0 0 1 604.1505 331.465)" class="st1 st11 st12">CLA SIGNATORY</text>
<g>
	<g>
		<path class="st17" d="M519.9,383c-8.2-6.3-18.4-15.7-27.6-28.9c-13.6-19.5-19.3-39.1-21.8-52.9"/>
		<g>
			<polygon class="st9" points="476.9,302 469.1,292.4 464.7,304 			"/>
		</g>
	</g>
</g>
<path class="st2" d="M516.8,351H460c-3.3,0-6-2.7-6-6l0,0c0-3.3,2.7-6,6-6h56.8c3.3,0,6,2.7,6,6l0,0
	C522.8,348.3,520.1,351,516.8,351z"/>
<text transform="matrix(1 0 0 1 455.9228 347.9455)" class="st9 st11 st12">CLA APPROVED</text>
<g>
	<g>
		<path class="st14" d="M561.8,211.1c-0.1,3.4,0,10.9,4.5,18.6c4.2,7.3,10.3,11.4,15.1,13.6"/>
		<g>
			<polygon class="st15" points="578.3,247.4 588.1,245.8 581.8,238 			"/>
		</g>
	</g>
</g>
<path class="st2" d="M582.9,233.1h-39.1c-3.3,0-6-2.7-6-6l0,0c0-3.3,2.7-6,6-6h39.1c3.3,0,6,2.7,6,6l0,0
	C588.9,230.4,586.2,233.1,582.9,233.1z"/>
<text transform="matrix(1 0 0 1 559.0424 230.5427)" class="st10 st11 st12">NO</text>
</svg>
