<?xml version="1.0" encoding="utf-8"?>
<!-- Generator: Adobe Illustrator 23.0.3, SVG Export Plug-In . SVG Version: 6.00 Build 0)  -->
<svg version="1.1" id="Layer_1" xmlns="http://www.w3.org/2000/svg" xmlns:xlink="http://www.w3.org/1999/xlink" x="0px" y="0px"
	 viewBox="0 0 680 555.1" style="enable-background:new 0 0 680 555.1;" xml:space="preserve">
<style type="text/css">
	.st0{fill:#1C3664;}
	.st1{fill:#FAA31D;}
	.st2{fill:#FFF3D4;}
	.st3{fill:#FFFFFF;}
	.st4{font-family:'RobotoCondensed-Regular';}
	.st5{font-size:11px;}
	.st6{fill:#D1D1D1;}
	.st7{font-family:'OpenSans-Bold';}
	.st8{fill:#1A99CF;}
	.st9{fill:#6CBE4C;}
	.st10{fill:#F15B5E;}
	.st11{font-family:'RobotoCondensed-Bold';}
	.st12{font-size:9px;}
	.st13{fill:#4AD3C9;}
	.st14{fill:#A37FD3;}
	.st15{opacity:0.5;fill:#FFFFFF;}
</style>
<g>
	<rect class="st0" width="680" height="555.1"/>
</g>
<ellipse transform="matrix(0.9705 -0.2413 0.2413 0.9705 -40.6812 128.0038)" class="st1" cx="502.3" cy="230.1" rx="12.2" ry="12.2"/>
<rect x="500.3" y="235.6" class="st2" width="3.9" height="2.6"/>
<g>
	<path class="st2" d="M502,225.5v-1.8c-0.3-0.1,0.9-0.1,0.6,0v1.8c0.7,0,1.8,1.1,1.8,2.3h-4.1C500.2,226.6,501.1,225.5,502,225.5z"
		/>
</g>
<path class="st3" d="M509.6,232.9c0,2.6-1,3.6-3.6,3.6h-7.5c-2.6,0-3.6-1-3.6-3.6v-3.5c0-2.6,1-3.6,3.6-3.6h7.5c2.6,0,3.6,1,3.6,3.6
	V232.9z"/>
<path class="st2" d="M506,225.8h-0.8c2.6,0,3.6,1,3.6,3.6v3.5c0,2.6-1,3.6-3.6,3.6h0.8c2.6,0,3.6-1,3.6-3.6v-3.5
	C509.6,226.8,508.6,225.8,506,225.8z"/>
<path class="st2" d="M508.9,229c0.9,0.1,1.6,0.2,1.6,2s-0.6,1.8-1.5,2L508.9,229z"/>
<path class="st3" d="M495.7,229c-0.9,0.1-1.6,0.2-1.6,2s0.6,1.8,1.5,2L495.7,229z"/>
<g>
	<path class="st3" d="M506,237.7h-7.5c-2.6,0-3.6,1-3.6,3.6v1.4h14.7v-1.4C509.6,238.7,508.6,237.7,506,237.7z"/>
	<path class="st2" d="M506,237.7h-0.9c2.3,0,3.3,0.8,3.5,2.8c0.5-0.3,0.8-0.5,0.8-0.5C509.1,238.4,508.1,237.7,506,237.7z"/>
</g>
<path class="st1" d="M498.8,234c-1.6,0-2.1-0.5-2.1-2.1v-1.5c0-1.6,0.5-2.1,2.1-2.1h6.8c1.6,0,2.1,0.5,2.1,2.1v1.6
	c0,1.6-0.5,2.1-2.1,2.1h-6.8V234z"/>
<g>
	<path class="st3" d="M504.1,231.1c0-0.4,0.3-0.8,0.8-0.8c0.4,0,0.8,0.3,0.8,0.8c0,0.4-0.3,0.8-0.8,0.8S504.1,231.6,504.1,231.1z"/>
	<path class="st3" d="M498.9,231.1c0-0.4,0.3-0.8,0.8-0.8c0.4,0,0.8,0.3,0.8,0.8c0,0.4-0.3,0.8-0.8,0.8
		C499.3,231.9,498.9,231.6,498.9,231.1z"/>
</g>
<path class="st3" d="M503.1,222.8c0-0.5-0.4-0.9-0.9-0.9s-0.9,0.4-0.9,0.9s0.4,0.9,0.9,0.9C502.8,223.7,503.1,223.3,503.1,222.8z"/>
<path class="st3" d="M504.3,227c-0.1-1-0.2-1.7-2.1-1.7s-1.9,0.6-2,1.5L504.3,227z"/>
<ellipse transform="matrix(0.9705 -0.2413 0.2413 0.9705 -77.4773 59.524)" class="st1" cx="204.3" cy="346.1" rx="12.2" ry="12.2"/>
<rect x="202.3" y="351.6" class="st2" width="3.9" height="2.6"/>
<g>
	<path class="st2" d="M204,341.5v-1.8c-0.3-0.1,0.9-0.1,0.6,0v1.8c0.7,0,1.8,1.1,1.8,2.3h-4.1C202.2,342.6,203.1,341.5,204,341.5z"
		/>
</g>
<path class="st3" d="M211.6,348.9c0,2.6-1,3.6-3.6,3.6h-7.5c-2.6,0-3.6-1-3.6-3.6v-3.5c0-2.6,1-3.6,3.6-3.6h7.5c2.6,0,3.6,1,3.6,3.6
	V348.9z"/>
<path class="st2" d="M208,341.8h-0.8c2.6,0,3.6,1,3.6,3.6v3.5c0,2.6-1,3.6-3.6,3.6h0.8c2.6,0,3.6-1,3.6-3.6v-3.5
	C211.6,342.8,210.6,341.8,208,341.8z"/>
<path class="st2" d="M210.9,345c0.9,0.1,1.6,0.2,1.6,2s-0.6,1.8-1.5,2L210.9,345z"/>
<path class="st3" d="M197.7,345c-0.9,0.1-1.6,0.2-1.6,2s0.6,1.8,1.5,2L197.7,345z"/>
<g>
	<path class="st3" d="M208,353.7h-7.5c-2.6,0-3.6,1-3.6,3.6v1.4h14.7v-1.4C211.6,354.7,210.6,353.7,208,353.7z"/>
	<path class="st2" d="M208,353.7h-0.9c2.3,0,3.3,0.8,3.5,2.8c0.5-0.3,0.8-0.5,0.8-0.5C211.1,354.4,210.1,353.7,208,353.7z"/>
</g>
<path class="st1" d="M200.8,350c-1.6,0-2.1-0.5-2.1-2.1v-1.5c0-1.6,0.5-2.1,2.1-2.1h6.8c1.6,0,2.1,0.5,2.1,2.1v1.6
	c0,1.6-0.5,2.1-2.1,2.1h-6.8V350z"/>
<g>
	<path class="st3" d="M206.1,347.1c0-0.4,0.3-0.8,0.8-0.8c0.4,0,0.8,0.3,0.8,0.8c0,0.4-0.3,0.8-0.8,0.8
		C206.4,347.9,206.1,347.6,206.1,347.1z"/>
	<path class="st3" d="M200.9,347.1c0-0.4,0.3-0.8,0.8-0.8c0.4,0,0.8,0.3,0.8,0.8c0,0.4-0.3,0.8-0.8,0.8
		C201.3,347.9,200.9,347.6,200.9,347.1z"/>
</g>
<path class="st3" d="M205.1,338.8c0-0.5-0.4-0.9-0.9-0.9s-0.9,0.4-0.9,0.9s0.4,0.9,0.9,0.9C204.8,339.7,205.1,339.3,205.1,338.8z"/>
<path class="st3" d="M206.3,343c-0.1-1-0.2-1.7-2.1-1.7c-1.9,0-1.9,0.6-2,1.5L206.3,343z"/>
<ellipse transform="matrix(0.9705 -0.2413 0.2413 0.9705 -40.2776 75.297)" class="st1" cx="287.3" cy="202.1" rx="12.2" ry="12.2"/>
<rect x="285.3" y="207.6" class="st2" width="3.9" height="2.6"/>
<g>
	<path class="st2" d="M287,197.5v-1.8c-0.3-0.1,0.9-0.1,0.6,0v1.8c0.7,0,1.8,1.1,1.8,2.3h-4.1C285.2,198.6,286.1,197.5,287,197.5z"
		/>
</g>
<path class="st3" d="M294.6,204.9c0,2.6-1,3.6-3.6,3.6h-7.5c-2.6,0-3.6-1-3.6-3.6v-3.5c0-2.6,1-3.6,3.6-3.6h7.5c2.6,0,3.6,1,3.6,3.6
	V204.9z"/>
<path class="st2" d="M291,197.8h-0.8c2.6,0,3.6,1,3.6,3.6v3.5c0,2.6-1,3.6-3.6,3.6h0.8c2.6,0,3.6-1,3.6-3.6v-3.5
	C294.6,198.8,293.6,197.8,291,197.8z"/>
<path class="st2" d="M293.9,201c0.9,0.1,1.6,0.2,1.6,2s-0.6,1.8-1.5,2L293.9,201z"/>
<path class="st3" d="M280.7,201c-0.9,0.1-1.6,0.2-1.6,2s0.6,1.8,1.5,2L280.7,201z"/>
<g>
	<path class="st3" d="M291,209.7h-7.5c-2.6,0-3.6,1-3.6,3.6v1.4h14.7v-1.4C294.6,210.7,293.6,209.7,291,209.7z"/>
	<path class="st2" d="M291,209.7h-0.9c2.3,0,3.3,0.8,3.5,2.8c0.5-0.3,0.8-0.5,0.8-0.5C294.1,210.4,293.1,209.7,291,209.7z"/>
</g>
<path class="st1" d="M283.8,206c-1.6,0-2.1-0.5-2.1-2.1v-1.5c0-1.6,0.5-2.1,2.1-2.1h6.8c1.6,0,2.1,0.5,2.1,2.1v1.6
	c0,1.6-0.5,2.1-2.1,2.1h-6.8V206z"/>
<g>
	<path class="st3" d="M289.1,203.1c0-0.4,0.3-0.8,0.8-0.8c0.4,0,0.8,0.3,0.8,0.8c0,0.4-0.3,0.8-0.8,0.8S289.1,203.6,289.1,203.1z"/>
	<path class="st3" d="M283.9,203.1c0-0.4,0.3-0.8,0.8-0.8c0.4,0,0.8,0.3,0.8,0.8c0,0.4-0.3,0.8-0.8,0.8
		C284.3,203.9,283.9,203.6,283.9,203.1z"/>
</g>
<path class="st3" d="M288.1,194.8c0-0.5-0.4-0.9-0.9-0.9s-0.9,0.4-0.9,0.9s0.4,0.9,0.9,0.9C287.8,195.7,288.1,195.3,288.1,194.8z"/>
<path class="st3" d="M289.3,199c-0.1-1-0.2-1.7-2.1-1.7s-1.9,0.6-2,1.5L289.3,199z"/>
<text transform="matrix(1 0 0 1 787.1626 72.7461)" class="st3" style="font-family:'OpenSans'; font-size:10px;">  </text>
<path class="st3" d="M321.5,299.9c-8.8,10.1-19.8,18.3-32.7,24.3l0.8,1.8c13.1-6.1,24.3-14.4,33.3-24.7c6-6.8,10.2-13.7,13.5-20.3
	h-2.2C331.1,287.1,327.1,293.5,321.5,299.9z"/>
<path class="st3" d="M344.4,261.8c3.4-9.3,6-18.9,7.8-29.3l4,0.6l-3.6-9.2l-6.3,7.8l4,0.6c-1.8,10.3-4.3,19.8-7.7,28.9l-0.1,0.2
	c-0.9,2.5-1.8,5-2.9,7.6h2.2c0.9-2.3,1.8-4.6,2.6-6.9V261.8z"/>
<text transform="matrix(1 0 0 1 47.9183 202.8479)" class="st1 st4 st5">Authorized Contributor </text>
<text transform="matrix(1 0 0 1 47.9183 213.8479)" class="st6 st4 st5">Is the Contributor </text>
<text transform="matrix(1 0 0 1 47.9183 224.8479)" class="st6 st4 st5">authorized under the CLA?</text>
<text transform="matrix(1 0 0 1 160.3184 224.8479)" class="st1 st7 st5">  </text>
<g>
	<g>
		<path class="st8" d="M408.7,142.1v-8.6h-12.9v16.1h5.9c0.4,0,0.7,0.3,0.7,0.7s-0.3,0.7-0.7,0.7H395c-0.4,0-0.7-0.3-0.7-0.7v-17.6
			c0-0.4,0.3-0.7,0.7-0.7h14.4c0.4,0,0.7,0.3,0.7,0.7v9.4c0,0.4-0.3,0.7-0.7,0.7C409.1,142.9,408.7,142.6,408.7,142.1z M412.7,144
			c-0.3-0.3-0.8-0.3-1.1,0.1l-4.2,4.7l-2.2-2c-0.3-0.3-0.8-0.3-1.1,0c-0.3,0.3-0.3,0.8,0,1.1l2.7,2.6c0.1,0.1,0.3,0.2,0.5,0.2l0,0
			c0.2,0,0.4-0.1,0.5-0.3l4.8-5.3C413,144.8,413,144.4,412.7,144z M405.9,136.5h-7c-0.4,0-0.7,0.3-0.7,0.7s0.3,0.7,0.7,0.7h6.9
			c0.4,0,0.7-0.3,0.7-0.7C406.6,136.8,406.3,136.5,405.9,136.5z M406.6,141.5c0-0.4-0.3-0.7-0.7-0.7h-7c-0.4,0-0.7,0.3-0.7,0.7
			s0.3,0.7,0.7,0.7h6.9C406.3,142.3,406.6,141.9,406.6,141.5z M398.9,144.9c-0.4,0-0.7,0.3-0.7,0.7s0.3,0.7,0.7,0.7h2.1
			c0.4,0,0.7-0.3,0.7-0.7s-0.3-0.7-0.7-0.7H398.9z"/>
	</g>
</g>
<text transform="matrix(1 0 0 1 215.7746 71.0686)" class="st8 st4 st5">Project Manager or Maintainer</text>
<text transform="matrix(1 0 0 1 215.7746 83.0686)" class="st6 st4 st5">Sets up CLA using EasyCLA</text>
<path class="st8" d="M209.7,65.4c-0.2-0.5-0.3-1-0.3-1s0,0-0.1,0.1l0,0c0.1-0.1,0.2-0.1,0.2-0.1l0.2-0.1c0,0-0.1-0.5-1.1-1
	c-1-0.6-1.2-0.8-1.2-0.8s-0.1,0-0.2,0c-0.1,0-0.1-0.1-0.2-0.2c-0.2-0.3-0.2-0.8-0.2-0.8s0.1-0.1,0.2-0.2c0.1-0.1,0.4-0.8,0.4-0.8
	s0,0,0-0.1s0.1-0.4,0.2-0.7c0.1-0.3-0.1-0.3-0.1-0.3s-0.1-1.2-0.5-1.7c-0.8-0.7-1.7-0.6-2.3,0s-0.3,2-0.3,2l-0.1,0.1
	c-0.1,0.3,0.4,0.9,0.4,1.1c0.1,0.2,0,1.4,0,1.4c-0.1,0.1-0.2,0.2-0.3,0.3c-0.2,0-0.3,0-0.4,0.1c0,0-0.8,0.2-1.2,0.5
	s-0.7,0.7-0.8,0.9s-0.3,0.6-0.3,0.6s0.2,0.2,0.3,0.2s0.1,0.2,0.1,0.3s-0.1,0.2,0.1,0.3c0.1,0.1,0.3,0.2,0.3,0.2s0,0,0.1,0
	c0.1,0.3,0.1,0.6,0.2,0.8c0.1,0.4,0.2,0.8,0.3,1s0,0.1,0,0.3c0.1,0.2,0.1,0.2,0.1,0.2s0,0.1,0,0.2s0.1,0.1,0.1,0.1v0.1
	c0.1,0.1,0.1,0.1,0.1,0.1s0,0.1,0.1,0.2s0.1,0.1,0.1,0.1s0,0.1,0.1,0.2v0.1c0,0.2,0.1,0.4,0,0.8c-0.1,0.3-0.3,0.5-0.4,0.7l0,0l0,0
	v0.1c0,0.3-0.1,0.4-0.1,0.5c-0.1,0-0.1,0.2,0,0.3s0.1,0.3,0.1,0.3s-0.2,0.1-0.2,0.3s-0.1,0.5-0.1,0.8s-0.4,2.1-0.4,2.8
	s-0.2,2.6-0.2,2.8c0,0.1,0.6,0.4,1.5,0.5l0,0c0,0,0.2,1.2,0.3,1.6s-0.1,2.4,0,3.2c0.1,0.8,0.4,1.8,0.7,2.2s0.3,1.2,0.4,1.5
	c0.1,0.3-0.1,1.1-0.1,1.2c-0.1,0.1-0.1,1-0.2,1.1v0.1l0,0c-0.1,0.3-0.3,0.8,0.1,0.8c0.5,0,1.9,0,1.9,0h2.8c0,0,0.3-0.4-0.1-0.5
	c-0.3,0-0.4-0.2-0.5-0.3l0,0c0-0.1-0.1-0.1-0.1-0.2c-0.1-0.2-0.1-0.2-0.2-0.5c-0.1-0.3-0.4-0.4-0.4-0.8s-0.2-0.9,0-1.5
	s0.8-2.9,0.9-3.3c0.1-0.4,0.2-0.8,0.1-1.4c-0.1-0.6,0.1-2.9,0.1-3.3c0.1,0,0.1,0,0.1,0v-3.6c0,0-0.1-0.9-0.2-1.2
	c-0.1-0.3-0.2-0.6-0.2-0.9s0-0.9,0-0.9l0.1-0.1c0-0.1-0.2-1.1-0.2-1.4s-0.1-0.4-0.2-0.6c-0.2-0.2-0.2-0.6-0.2-0.6s0-0.1,0-0.2
	c0.2,0,0.6,0,0.9,0c0.4-0.1,0.8,0,0.9,0c0.1,0,0.3-0.7,0.2-1.2C210.2,67.1,209.9,65.9,209.7,65.4z M206.9,78.7c0,0,0,1.7,0.1,2.4
	c0.1,0.7-0.2,1.7-0.3,2.2s0,2.1,0,2.6s0,2.1-0.1,2.4s-0.1,0.8-0.2,1.3l0,0c0-0.2-0.1-0.4-0.1-0.6c-0.2-0.8-0.4-1.4-0.4-1.8
	c0-0.3-0.3-1.9-0.2-2.4c0-0.6,0-2.2-0.1-2.7c0-0.5,0.2-1.7,0.2-2.2s-0.2-1-0.2-1.3c0.4,0,0.8-0.1,0.8-0.1c0.1,0,0.2,0,0.4,0
	L206.9,78.7z M208.6,66.7c-0.1,0.1-0.2,0.4-0.2,0.5s-0.1,0.2-0.1,0.2s-0.1,0-0.3-0.1c0-0.3,0.1-0.7,0.1-0.7s0.2-0.7,0.3-0.9
	c0-0.1,0-0.1,0.1-0.2c0,0.1,0.1,0.1,0.1,0.3s0.1,0.4,0.1,0.7C208.7,66.8,208.7,66.6,208.6,66.7z"/>
<text transform="matrix(1 0 0 1 121.2016 138.0388)" class="st8 st4 st5">Developer (Contributor)</text>
<text transform="matrix(1 0 0 1 121.2016 149.0388)" class="st6 st4 st5">Makes a pull request .</text>
<g>
	<path class="st3" d="M116,135.1c-1-1.7-2.3-3-4-4s-3.5-1.5-5.5-1.5s-3.8,0.5-5.5,1.5s-3,2.3-4,4s-1.5,3.5-1.5,5.5
		c0,2.4,0.7,4.5,2.1,6.4s3.2,3.2,5.4,4c0.3,0,0.4,0,0.6-0.1c0.1-0.1,0.2-0.3,0.2-0.4c0,0,0-0.3,0-0.8s0-0.9,0-1.3l-0.3,0.1
		c-0.2,0-0.5,0.1-0.8,0c-0.3,0-0.6,0-1-0.1c-0.3-0.1-0.7-0.2-1-0.4s-0.5-0.5-0.6-0.9l-0.1-0.3c-0.1-0.2-0.2-0.5-0.4-0.7
		c-0.2-0.3-0.4-0.4-0.6-0.5l-0.1-0.1c-0.1,0-0.1-0.1-0.2-0.2c-0.1-0.1-0.1-0.1-0.1-0.2c0-0.1,0-0.1,0.1-0.2c0.1,0,0.2-0.1,0.4-0.1
		h0.3c0.2,0,0.4,0.2,0.7,0.3c0.3,0.2,0.5,0.4,0.7,0.7c0.2,0.4,0.5,0.7,0.8,0.9s0.6,0.3,0.9,0.3s0.6,0,0.8-0.1c0.2,0,0.4-0.1,0.6-0.2
		c0.1-0.6,0.3-1.1,0.7-1.5c-0.5-0.1-1-0.1-1.5-0.3c-0.4-0.1-0.9-0.3-1.3-0.6c-0.5-0.3-0.8-0.6-1.1-1c-0.3-0.4-0.6-0.9-0.7-1.5
		c-0.2-0.6-0.3-1.3-0.3-2.1c0-1.1,0.4-2.1,1.1-2.9c-0.4-0.9-0.3-1.8,0.1-2.9c0.3-0.1,0.7,0,1.2,0.2s0.9,0.4,1.2,0.5
		c0.3,0.2,0.5,0.3,0.6,0.4c0.9-0.2,1.8-0.4,2.7-0.4c0.9,0,1.9,0.1,2.7,0.4l0.5-0.3c0.4-0.2,0.8-0.4,1.3-0.6s0.9-0.2,1.2-0.2
		c0.4,1.1,0.5,2,0.1,2.9c0.8,0.8,1.1,1.8,1.1,2.9c0,0.8-0.1,1.5-0.3,2.1c-0.2,0.6-0.4,1.1-0.8,1.5c-0.3,0.4-0.7,0.7-1.2,0.9
		c-0.5,0.3-0.9,0.4-1.3,0.6c-0.4,0.1-0.9,0.2-1.5,0.3c0.5,0.4,0.7,1.1,0.7,2v3c0,0.2,0.1,0.3,0.2,0.4c0.1,0.1,0.3,0.1,0.6,0.1
		c2.2-0.7,4-2,5.4-4c1.4-1.9,2.1-4,2.1-6.4C117.4,138.6,116.9,136.8,116,135.1z"/>
</g>
<g>
	<path class="st9" d="M162.2,539.7H48.8c-14.3,0-26-11.7-26-26v-1.8c0-14.3,11.7-26,26-26h113.4c14.3,0,26,11.7,26,26v1.8
		C188.3,528,176.5,539.7,162.2,539.7z"/>
	<g>
		<g>
			<g>
				<path class="st3" d="M52.4,505c-2.2-2.2-5-3.3-8.1-3.3s-5.9,1.2-8.1,3.3c-2.2,2.2-3.3,5-3.3,8.1s1.2,5.9,3.3,8.1
					c2.2,2.2,5,3.3,8.1,3.3s5.9-1.2,8.1-3.3c2.2-2.2,3.3-5,3.3-8.1S54.5,507.2,52.4,505z M44.3,523.2c-5.6,0-10.1-4.5-10.1-10.1
					c0-5.6,4.5-10.1,10.1-10.1s10.1,4.5,10.1,10.1C54.4,518.7,49.9,523.2,44.3,523.2z"/>
			</g>
		</g>
		<g>
			<g>
				<path class="st3" d="M49.8,509.4c-0.2-0.2-0.6-0.2-1,0l-5.9,5.9l-3.1-3.1c-0.2-0.2-0.6-0.2-1,0c-0.2,0.2-0.2,0.6,0,1l3.6,3.6
					c0.2,0.2,0.3,0.2,0.5,0.2s0.3-0.1,0.5-0.2l6.4-6.4C50,510.1,50,509.7,49.8,509.4z"/>
			</g>
		</g>
	</g>
	<g>
		<text transform="matrix(1 0 0 1 62.4463 499.778)" class="st3 st4 st5">Approved Contributor</text>
		<text transform="matrix(1 0 0 1 62.4463 510.778)" class="st3 st4 st5">Pull request shows checks</text>
		<text transform="matrix(1 0 0 1 62.4463 521.778)" class="st3 st4 st5">are passed and Contributor</text>
		<text transform="matrix(1 0 0 1 62.4463 532.778)" class="st3 st4 st5">can commit their code.</text>
	</g>
</g>
<g>
	<g>
		<path class="st10" d="M144.6,265.2c-2.2-2.2-5-3.3-8.1-3.3s-5.9,1.2-8.1,3.3c-2.2,2.2-3.3,5-3.3,8.1s1.2,5.9,3.3,8.1
			c2.2,2.2,5,3.3,8.1,3.3s5.9-1.2,8.1-3.3c2.2-2.2,3.3-5,3.3-8.1S146.7,267.3,144.6,265.2z M143.5,280.4c-1.9,1.9-4.4,3-7.2,3
			c-2.7,0-5.2-1-7.2-3c-4-4-4-10.3,0-14.3c1.9-1.9,4.4-3,7.2-3c2.7,0,5.2,1,7.2,3C147.5,270,147.5,276.5,143.5,280.4z"/>
		<path class="st10" d="M141.5,268.2c-0.2-0.2-0.6-0.2-0.9,0l-4.1,4.1l-4.1-4.1c-0.2-0.2-0.6-0.2-0.9,0c-0.2,0.2-0.2,0.6,0,0.9
			l4.1,4.1l-4.1,4.1c-0.2,0.2-0.2,0.6,0,0.9c0.2,0.2,0.3,0.2,0.5,0.2s0.3-0.1,0.5-0.2l4.1-4.1l4.1,4.1c0.2,0.2,0.3,0.2,0.5,0.2
			s0.3-0.1,0.5-0.2c0.2-0.2,0.2-0.6,0-0.9l-4.1-4.1l4.1-4.1C141.7,268.8,141.7,268.4,141.5,268.2z"/>
	</g>
</g>
<g>
	<text transform="matrix(1 0 0 1 152.1985 267.4459)" class="st10 st4 st5">Pull Request Rejected</text>
	<text transform="matrix(1 0 0 1 152.1985 278.4459)" class="st6 st4 st5">GitHub rejection comment </text>
	<text transform="matrix(1 0 0 1 152.1985 289.4459)" class="st6 st4 st5">contains a link to EasyCLA.</text>
</g>
<text transform="matrix(1 0 0 1 219.981 337.2823)" class="st1 st4 st5">Choose Contributor Type</text>
<text transform="matrix(1 0 0 1 219.981 348.2823)" class="st6 st4 st5">Select between individual </text>
<text transform="matrix(1 0 0 1 219.981 359.2823)" class="st6 st4 st5">or corporate contributor.</text>
<text transform="matrix(1 0 0 1 153.996 399.117)" class="st8 st4 st5">Individual Contributor</text>
<text transform="matrix(1 0 0 1 153.996 410.117)" class="st6 st4 st5">Contributor signs the </text>
<text transform="matrix(1 0 0 1 153.996 421.117)" class="st6 st4 st5">individual CLA.</text>
<g>
	<g>
		<g>
			<g>
				<g>
					<rect x="128.5" y="400.3" class="st8" width="11.5" height="1.7"/>
				</g>
			</g>
			<g>
				<g>
					<rect x="128.5" y="403.7" class="st8" width="11.5" height="1.7"/>
				</g>
			</g>
			<g>
				<g>
					<path class="st8" d="M145.5,400.8l-2,2v-7h-18.4v23.1h18.4v-13.7l3.2-3.2L145.5,400.8z M141.7,404.4l-2.8,2.8h-10.5v1.7h8.8
						l-3.6,3.6l-0.3,1.5l1.5-0.3l6.9-6.9V417h-15v-19.6h15L141.7,404.4L141.7,404.4z"/>
				</g>
			</g>
		</g>
	</g>
</g>
<text transform="matrix(1 0 0 1 304.9573 195.1577)" class="st1 st4 st5">Corporate Contributor</text>
<g>
	<text transform="matrix(1 0 0 1 304.9573 206.1577)" class="st6 st4 st5">Has the Corporate CLA</text>
</g>
<g>
	<text transform="matrix(1 0 0 1 304.9573 217.1577)" class="st6 st4 st5">been signed?</text>
</g>
<text transform="matrix(1 0 0 1 316.2964 277.3189)" class="st3 st11 st12">CORPORATE</text>
<text transform="matrix(1 0 0 1 398.9966 303.9154)" class="st13 st4 st5">CLA Manager</text>
<text transform="matrix(1 0 0 1 398.9966 314.9154)" class="st6 st4 st5">CLA Manager whitelists</text>
<text transform="matrix(1 0 0 1 398.9966 325.9154)" class="st6 st4 st5">authorized contributors.</text>
<text transform="matrix(1 0 0 1 416.9833 128.6371)" class="st8 st4 st5">Information Required</text>
<g>
	<text transform="matrix(1 0 0 1 416.9833 139.6371)" class="st6 st4 st5">Contributor populates </text>
</g>
<g>
	<text transform="matrix(1 0 0 1 416.9833 150.6371)" class="st6 st4 st5">personal, corporate, and </text>
</g>
<g>
	<text transform="matrix(1 0 0 1 416.9833 161.6371)" class="st6 st4 st5">CLA Manager details.</text>
</g>
<text transform="matrix(1 0 0 1 518.7576 221.9432)" class="st1 st4 st5">Authorized</text>
<g>
	<text transform="matrix(1 0 0 1 518.7576 232.9432)" class="st6 st4 st5">Is the CLA Manager an</text>
</g>
<g>
	<text transform="matrix(1 0 0 1 518.7576 243.9432)" class="st6 st4 st5">authorized signatory?</text>
</g>
<text transform="matrix(1 0 0 1 566.3241 304.9154)" class="st13 st4 st5">CLA Manager</text>
<g>
	<text transform="matrix(1 0 0 1 566.3241 315.9154)" class="st6 st4 st5">CLA Manager identifies</text>
</g>
<g>
	<text transform="matrix(1 0 0 1 566.3241 326.9154)" class="st6 st4 st5">authorized signatory.</text>
</g>
<text transform="matrix(1 0 0 1 541.5266 425.8383)" class="st14 st4 st5">CLA Signatory</text>
<g>
	<text transform="matrix(1 0 0 1 541.5266 436.8383)" class="st6 st4 st5">Signs the corporate CLA.</text>
</g>
<path class="st14" d="M536.1,427.8c0-0.2,0-0.3,0-0.4s-0.2-0.3-0.1-0.6c0-0.3-0.1-1.2-0.2-1.5c-0.1-0.3-0.1-0.6-0.2-0.8
	c-0.1-0.2,0-0.2,0-0.4c-0.1-0.2-0.2-0.3-0.2-0.4c0-0.2-0.1-0.5-0.1-0.5s0-0.6,0-0.8c0-0.3-0.1-1.6-0.3-2.3c-0.2-0.7-0.3-0.9-0.6-1.1
	s-1.4-0.6-1.9-0.7h-0.1l-0.1-0.1c0-0.1,0-0.5,0-0.5s0.6-0.3,0.6-0.7c0.1-0.4,0.1-0.6,0.1-0.7c0,0,0.1-0.1,0.1-0.2
	c0-0.2,0.1-0.4,0.1-0.4c0-0.1,0.1-0.2,0-0.2s0-0.3,0-0.3s0.3-1.9-1.5-2.1c-0.1-0.2-0.2-0.3-0.5-0.4c0,0-0.8,0.1-0.7,0.7
	c-0.2,0.2-0.4,0.4-0.4,0.6c-0.2,0.8-0.2,1-0.2,1s-0.2,0.1-0.2,0.2c0,0.2,0.1,0.6,0.1,0.7s0.2,0.2,0.2,0.3c0,0.1,0,0.2,0.1,0.2
	s0.1,0,0.1,0s0,0.3,0.1,0.5s0.1,0.2,0.1,0.2s0,0.8,0,0.9s-0.2,0.2-0.4,0.3c-0.1,0.1-0.4,0.1-0.6,0.1c-0.3,0-1.8,0.5-2,1.3
	s-0.5,1.4-0.5,1.9s-0.1,1.1-0.2,1.9c-0.1,0.8-0.1,1.8,0,2.5c0.1,0.8,0.3,1.7,0.4,2.2s0.1,0.8,0.2,1c0.1,0.1,0.3,0.2,0.3,0.2l0.3,1
	c0,0,0,0,0,0.1c-0.1,0.4-0.1,0.6,0,1c0.1,0.6,0.3,1.1,0.5,1.6s0.3,0.9,0.4,1.6s0.1,0.8,0.1,1.3c-0.1,0.5,0,0.5-0.1,0.7
	s-0.2,0.5-0.2,0.8s0,1,0.1,1.3c0.1,0.4,0.2,0.7,0.2,1.2c0,0.6,0,1.3,0.1,1.7c0.1,0.4,0.3,1.1,0.3,1.4c0,0.2,0.1,0.3,0.1,0.4
	s0,0.1,0,0.2c0,0.2-0.3,1.1-0.2,1.4s0.5,0.3,1,0.3s0.9,0.1,1-0.5c0.1-0.7-0.1-1.1-0.1-1.3c0,0,0-0.1,0-0.2c0-0.2-0.1-0.4-0.1-0.5
	s0.1-0.1,0.1-0.2V442c0-0.2-0.2-1.1-0.3-1.3c-0.1-0.2-0.1-0.5,0-0.8c0-0.3,0.1-1.1,0.2-1.6c0-0.4,0.1-0.8,0.1-1s0.1-0.5,0.1-0.5
	s0.2-0.3,0.3-0.9c0-0.6,0.1-1.2,0.1-1.2s0.1,0.8,0.2,1c0.1,0.2,0.1,0.4,0.1,0.7c0,0.3,0,1.1,0,1.5s0.1,1.2,0.1,1.4
	c0,0.3-0.2,0.3-0.1,0.5c0,0.2,0,0.5,0,0.5s0,0.4-0.1,0.6c0,0.2-0.1,0.3-0.1,0.5c-0.1,0.2-0.2,0.5-0.2,0.5v1.1l0,0
	c0,0.1,0.1,0.4,0.1,0.7c0,0.3,0,0.1,0,0.4c0.1,1-0.1,1.2,0.3,1.2c0.6,0,1.5,0.2,1.6-0.2c0.1-0.5-0.1-0.7-0.2-1
	c0-0.3-0.2-0.4-0.3-0.7l0,0c0-0.2-0.1-0.3,0.1-0.5c0.1-0.2,0.3-0.2,0.3-0.3c0-0.1,0-1.2,0-1.2s0.1-0.3,0.2-0.6
	c0.1-0.3,0.3-1.9,0.4-2.2c0.1-0.4,0.2-1.5,0.3-1.9s0.2-0.5,0.1-0.8c0-0.3,0.1-2,0.1-2.3s0.3-1.2,0.3-1.4c0-0.1,0-0.3,0.1-0.5
	c0-0.1,0.1-0.1,0.1-0.1c0.1-0.1,0.4-0.8,0.5-0.9s0.1-0.3,0.2-0.4c0.1-0.2,0.5-0.8,0.5-0.9s0-0.3,0-0.4h0.1c0,0,0-0.3,0-0.4
	C536.3,428.2,536.1,427.9,536.1,427.8z M528.5,426.3c0-0.1,0-0.1,0-0.2l0,0c0-0.2,0-0.1,0-0.2c-0.1-0.1,0-0.1,0-0.2s0-0.1,0-0.2
	c-0.1-0.1,0,0,0.1-0.2c0.1-0.1,0.1-0.1,0-0.3c0-0.1,0-0.2,0-0.2s0,0,0-0.2s0.1-0.5,0.1-0.7c0.1-0.2,0.1-0.7,0.1-0.7
	c0,0.1,0.1,0.2,0.1,0.2s0,0.2,0,0.3c0,0.1,0,0.1,0,0.2c0,0.2,0,0.2,0,0.4c0,0.2,0,0.1,0,0.3c-0.1,0.1-0.1,0.2-0.1,0.4
	c0,0.2,0.1,0.2,0.1,0.3c0.1,0.2-0.1,0.2-0.1,0.2s-0.1,0.2-0.1,0.3c0,0.1,0,0.1,0,0.2s0,0.1,0,0.2
	C528.6,426.3,528.6,426.3,528.5,426.3C528.6,426.3,528.5,426.3,528.5,426.3z"/>
<g>
	<g>
		<path class="st3" d="M193.8,122.4l-0.6-1.9c12.4-3.6,24-9,34.5-16.1c5.9-4,11.5-8.5,16.6-13.4l1.4,1.4
			c-5.1,4.9-10.8,9.5-16.8,13.6C218.2,113.3,206.4,118.8,193.8,122.4z"/>
		<g>
			<polygon class="st3" points="193.6,116.3 186.5,123.3 196.1,125.9 			"/>
		</g>
	</g>
</g>
<g>
	<g>
		<path class="st3" d="M98,182.9l-1.9-0.7c2.5-6.5,6.3-12.1,11.3-16.6c9.7-8.7,20.7-10.3,25-10.6l0.1,2c-4.1,0.2-14.5,1.7-23.8,10
			C104,171.4,100.4,176.7,98,182.9z"/>
		<g>
			<polygon class="st3" points="92.8,179.8 95.2,189.5 102.4,182.6 			"/>
		</g>
	</g>
</g>
<g>
	<g>
		<path class="st3" d="M206.3,323.7c-5.8-3.6-10.2-7.9-13.4-13.2c-4.2-6.9-5.1-13.7-5.3-17.1l2-0.1c0.2,3.2,1.1,9.6,5.1,16.1
			c3.1,5,7.2,9.1,12.8,12.6L206.3,323.7z"/>
		<g>
			<polygon class="st3" points="203.3,326.5 213.3,325.9 207.8,317.5 			"/>
		</g>
	</g>
</g>
<path class="st3" d="M262.7,391.1l-1.6-3.6l-5.8,8.1l9.9,1l-1.7-3.7c3.3-2.1,6-4.9,8-8H269C267.3,387.3,265.2,389.4,262.7,391.1z"/>
<path class="st3" d="M275.2,361.3l-1.9,0.5c1.1,3.7,1.3,7.5,0.7,11.1h2C276.6,369.1,276.3,365.2,275.2,361.3z"/>
<text transform="matrix(1 0 0 1 253.4172 382.1217)" class="st3 st11 st12">INDIVIDUAL</text>
<path class="st10" d="M100.4,229.4l-2-0.1c-0.1,3.5,0.2,6.9,1,10h2.1C100.7,236.2,100.3,232.9,100.4,229.4z"/>
<path class="st10" d="M118,260c-3.3-1.7-7.2-4.4-10.6-8.6h-2.5c3.8,5.3,8.6,8.6,12.4,10.5l-1.4,3.8l9.8-1.6l-6.3-7.8L118,260z"/>
<text transform="matrix(1 0 0 1 96.6254 248.8284)" class="st10 st11 st12">NO</text>
<path class="st9" d="M57,469.1c-3.9-10-7.7-20.4-11.4-30.9c-6.9-19.6-13.3-38.1-18.6-58.4c-2.2-8.6-5.1-20-7.5-33.9h-2
	c2.5,14,5.4,25.6,7.6,34.3c5.3,20.4,11.8,38.9,18.6,58.6c3.6,10.5,7.5,20.8,11.4,30.9l-3.7,1.4l7.7,6.3l1.6-9.8L57,469.1z"/>
<path class="st9" d="M14.6,292.7c-0.1-23,2.3-46.3,7.4-69.2l-2-0.4c-5.1,23-7.6,46.4-7.4,69.6c0.1,15.1,1.3,29,3,41.3h2
	C15.9,321.7,14.7,307.8,14.6,292.7z"/>
<text transform="matrix(1 0 0 1 10.1416 343.0234)" class="st9 st11 st12">YES</text>
<path class="st10" d="M383.7,150.1l7.3-6.7l-9.5-3l0.9,3.9c-4.3,1.4-9.6,3.7-14.7,7.6l1.4,1.4c4.7-3.5,9.6-5.7,13.7-7.1L383.7,150.1
	z"/>
<path class="st10" d="M350.8,180.5l2,0.3c0.7-4.2,2.2-10.1,5.9-16l-1.4-1.4C353.2,169.7,351.5,176,350.8,180.5z"/>
<text transform="matrix(1 0 0 1 358.0839 161.4746)" class="st10 st11 st12">NO</text>
<path class="st9" d="M174.6,459.9l-1.6-3.6l-5.8,8.1l9.9,1l-1.7-3.7c3.7-2.4,6.7-5.7,8.8-9.3H182
	C180.1,455.3,177.6,457.9,174.6,459.9z"/>
<path class="st9" d="M187.2,430l-1.9,0.5c0.9,3.3,1.2,6.6,0.9,9.8h2C188.4,437,188.1,433.5,187.2,430z"/>
<text transform="matrix(1 0 0 1 158.4595 449.3517)" class="st9 st11 st12">CHECK PASSED</text>
<path class="st9" d="M275.9,503.4c-21.7,9.3-44.5,14.6-67.8,15.6l-0.1-6.4l-11.5,7.4l11.7,7.2l-0.1-6.2c23.5-1,46.6-6.3,68.6-15.8
	c23.7-10,50.1-21.2,78.4-52.9h-2.7C324.8,482.7,299,493.6,275.9,503.4z"/>
<path class="st9" d="M368.1,436.5c20-26.6,37.7-60.3,52.6-100.2l-1.9-0.7c-14.8,39.6-32.4,73.2-52.4,99.6c-1.3,1.7-2.6,3.4-3.9,5.1
	h2.6C366.1,439.1,367.1,437.8,368.1,436.5z"/>
<text transform="matrix(1 0 0 1 332.0627 449.3522)" class="st9 st11 st12">CHECK PASSED</text>
<path class="st3" d="M552.7,200.3l2,0.5c0.8-5.3,1.2-11.9,0.2-19.1h-2C553.8,188.7,553.5,195.2,552.7,200.3z"/>
<path class="st3" d="M521.8,137.3l-0.9,1.8c5.1,2.4,13.6,7.5,20.7,16.7h2.5C536.6,145.5,527.3,139.9,521.8,137.3z"/>
<path class="st3" d="M552.4,201.8c0.1-0.5,0.2-1,0.2-1.5l-3.9-0.9l2.8,9.6l6.9-7.3l-3.9-0.9c-0.1,0.5-0.1,0.9-0.2,1.4L552.4,201.8z"
	/>
<g>
	<g>
		<g>
			<path class="st3" d="M528.3,163.8h-13.8c-0.7,0-1.4,0.7-1.4,1.4v9.6c0,0.7,0.7,1.4,1.4,1.4h13.8c0.7,0,1.4-0.7,1.4-1.4v-9.6
				C529.7,164.5,529.1,163.8,528.3,163.8z M514.4,164.5h13.8h0.2c-1.2,1-5.2,4.7-6.6,5.9c-0.2,0.2-0.3,0.2-0.5,0.2s-0.3-0.2-0.5-0.2
				C519.5,169.4,515.5,165.7,514.4,164.5C514.3,164.5,514.4,164.5,514.4,164.5z M513.7,175v-9.8V165c0.9,0.9,3.7,3.3,5.4,5.1
				c-1.7,1.6-4.5,4.2-5.4,5.1C513.7,175,513.7,175,513.7,175z M528.3,175.7h-13.8h-0.2c0.9-0.9,3.7-3.5,5.4-5.1
				c0.2,0.2,0.5,0.3,0.5,0.5c0.3,0.2,0.7,0.3,1,0.3s0.7-0.2,1-0.3c0.2-0.2,0.3-0.3,0.5-0.5C524.8,172,527.6,174.6,528.3,175.7
				C528.4,175.7,528.3,175.7,528.3,175.7z M529,175v0.2c-0.9-0.9-3.7-3.5-5.4-5.1c1.7-1.6,4.5-4.2,5.4-5.1v0.2V175z"/>
		</g>
	</g>
</g>
<text transform="matrix(1 0 0 1 532.5515 168.2076)" class="st3 st11 st12">EASYCLA EMAILS </text>
<text transform="matrix(1 0 0 1 537.1515 177.2076)" class="st3 st11 st12">CLA MANAGER</text>
<path class="st9" d="M530.1,253.1l-0.6-1.9c-7.9,2.3-15.4,6-22.1,10.9h3.5C516.9,258.2,523.3,255.2,530.1,253.1z"/>
<path class="st9" d="M483.8,291.3l-3.7-1.4l1.5,9.8l7.7-6.2l-3.7-1.4c3.1-6.7,6.9-12.7,11.5-18h-2.6
	C490.3,279.2,486.7,284.9,483.8,291.3z"/>
<text transform="matrix(1 0 0 1 495.9848 271.1445)" class="st9 st11 st12">YES</text>
<path class="st9" d="M419.7,280.1L416,279l2.4,9.7l7.2-6.9l-3.9-1.1c1.5-8,1.3-18.4-4.7-29.5h-2.3
	C420.9,262.1,421.2,272.3,419.7,280.1z"/>
<path class="st9" d="M403.6,234.6c-7.9-7-18-13.4-30.2-18.9l-0.8,1.8c12,5.4,21.9,11.6,29.6,18.5c1.1,1,2.2,2,3.2,3.1h2.8
	C406.8,237.7,405.3,236.2,403.6,234.6z"/>
<text transform="matrix(1 0 0 1 404.4091 248.2664)" class="st9 st11 st12">YES</text>
<path class="st3" d="M629.1,335.9l-1.8,0.8c1.6,3.7,3.5,9.5,4.3,16.7h2C632.8,345.9,630.8,339.8,629.1,335.9z"/>
<path class="st3" d="M610.8,403.6l1.2,1.6c6.4-5.3,14.1-13.7,18.5-25.9h-2.1C624.1,390.6,616.9,398.6,610.8,403.6z"/>
<path class="st3" d="M609.6,404.6c0.4-0.3,0.8-0.7,1.3-1l-2.3-3.3l-4.2,9.1l10-0.9l-2.3-3.3c-0.4,0.3-0.8,0.6-1.2,1L609.6,404.6z"/>
<g>
	<g>
		<g>
			<path class="st3" d="M597.3,362.1h-12.6c-0.6,0-1.3,0.6-1.3,1.3v8.8c0,0.6,0.6,1.3,1.3,1.3h12.6c0.6,0,1.3-0.6,1.3-1.3v-8.8
				C598.6,362.6,598.1,362.1,597.3,362.1z M584.7,362.7h12.6h0.2c-1.1,1-4.8,4.3-6,5.4c-0.2,0.2-0.3,0.2-0.5,0.2s-0.3-0.2-0.5-0.2
				C589.3,367,585.7,363.7,584.7,362.7C584.6,362.7,584.7,362.7,584.7,362.7z M584.1,372.1v-8.8v-0.2c0.8,0.8,3.3,3,4.9,4.6
				c-1.6,1.4-4.1,3.8-4.9,4.6C584.1,372.3,584.1,372.3,584.1,372.1z M597.3,372.8h-12.6h-0.2c0.8-0.8,3.3-3.2,4.9-4.6
				c0.2,0.2,0.5,0.3,0.5,0.5c0.3,0.2,0.6,0.3,1,0.3s0.6-0.2,1-0.3c0.2-0.2,0.3-0.3,0.5-0.5C594.1,369.6,596.6,372,597.3,372.8
				C597.4,372.8,597.3,372.8,597.3,372.8z M597.9,372.1v0.2c-0.8-0.8-3.3-3.2-4.9-4.6c1.6-1.4,4.1-3.8,4.9-4.6v0.2V372.1z"/>
		</g>
	</g>
</g>
<text transform="matrix(1 0 0 1 602.4504 365.7507)" class="st3 st11 st12">EASYCLA EMAILS</text>
<text transform="matrix(1 0 0 1 604.1505 374.7507)" class="st3 st11 st12">CLA SIGNATORY</text>
<path class="st9" d="M469.9,343.5l4.8-0.8l-7.8-9.6l-4.4,11.6l4.9-0.8c2,10.1,5,19.8,9,29h2.7C475,363.6,471.9,353.8,469.9,343.5z"
	/>
<path class="st9" d="M489.1,395.5c7.7,11.1,17.1,20.9,27.9,29.2l1.5-2c-10.6-8.1-19.7-17.7-27.3-28.6c-2.1-3-4-6.1-5.8-9.2h-2.9
	C484.5,388.5,486.7,392.1,489.1,395.5z"/>
<text transform="matrix(1 0 0 1 451.9228 382.2312)" class="st9 st11 st12">CLA APPROVED</text>
<path class="st10" d="M580.4,285c-3.3-1.7-7.2-4.4-10.6-8.6h-2.5c3.8,5.3,8.6,8.6,12.4,10.5l-1.4,3.8l9.8-1.6l-6.3-7.8L580.4,285z"
	/>
<path class="st10" d="M562.8,254.4l-2-0.1c-0.1,3.5,0.2,6.9,1,10h2.1C563.1,261.2,562.7,257.9,562.8,254.4z"/>
<text transform="matrix(1 0 0 1 559.0424 273.8284)" class="st10 st11 st12">NO</text>
<path class="st13" d="M393.4,327.9c-0.1-0.2-0.1-0.5-0.2-0.7c0-0.2-0.1-0.5-0.1-0.6s0-0.1,0-0.2l0.1-0.1c0.1-0.2,0-0.5,0-0.7
	s0.1-0.5,0.1-0.8s-0.1-0.2-0.2-0.6c0-0.5-0.3-1.5-0.3-1.8s-0.1-0.6-0.2-1s-0.3-0.8-0.3-1c-0.1-0.1-0.1-0.6-0.2-0.8
	c-0.1-0.3,0-1.3-0.1-1.5c-0.1-0.3-0.2-0.9-0.2-0.9s0-0.6,0-0.8v-0.1c0.1-0.1,0.4-0.4,0.4-0.5c0.1-0.1,0.2-0.2,0.2-0.3
	c0.1-0.1,0.3-0.7,0.3-0.8c0-0.1,0-0.3,0-0.3s-0.2-0.9-0.2-1h0.1c0,0,0.2-0.3,0.2-0.5s0.1-0.5,0.1-0.5s0-0.3-0.1-0.6
	c0-0.3-0.1-0.1,0-0.4c0.1-0.2,0.1-0.9,0.1-1.2c0-0.3-0.1-0.8-0.1-0.8s0-0.2,0-0.7c0.1-0.4,0-0.5,0-0.5v-0.4c0,0,0-1.4-0.1-1.8
	c-0.1-0.5-0.1-2.1-0.2-2.3s-0.1-0.8-0.3-1.1c-0.2-0.2-0.5-0.3-0.7-0.4c0.1,0,0.2,0,0.3-0.1c0,0-0.8,0-0.8-0.3c0-0.4,0.1-1.8,0-2.5
	s-0.7-3.1-1.6-3.1s-0.8,0.2-0.9,0.2c0,0-0.5-0.1-0.8,0.3s-0.9,1.3-1,2.1s-0.2,1.4-0.2,1.7c0,0.3,0,0.7-0.2,0.9
	c-0.2,0.2-0.3,0.3-0.5,0.5c-0.2,0.1-0.4,0.4-0.6,0.3c0,0,0.2,0.2,0.5-0.1c0,0-0.2,0.5-0.6,0.5c0,0,0.2,0,0.3,0
	c-0.4,0.2-0.9,0.6-0.9,0.9c-0.1,0.3,0,0.5-0.2,0.7c-0.1,0.2-0.1,0.7-0.1,0.9s-0.2,1-0.2,1.4s0,0.8,0,1s0.2,0.3,0,0.5
	s-0.1,0.4-0.1,0.4s0,0.1,0.1,0.3c0.1,0.2,0,0.2,0,0.3s0,0.1,0,0.3c0,0.1-0.2,1.5-0.2,1.5c0,0.1-0.1,0.8-0.1,1.2s-0.1,1.1,0,1.5
	s0,0.5,0,0.5s0,0,0.1,0c0,0.1,0.1,0.7,0.1,0.9c0,0.2,0.1,0.5,0.2,0.6s0.1,0.2,0.2,0.3c0.1,0.1,0.2,0.3,0.3,0.3
	c0.1,0.1,0.3,0.2,0.4,0.2v0.1c0.1,0.3,0.1,0.5,0.2,0.6c0.1,0.2,0.1,0.4,0.1,0.7c0,0.3,0.1,0.4,0.1,0.7c0,0.3,0.1,0.5,0.1,0.5
	l0.1,0.6c0,0,0,0.4,0.1,0.6s0,0.3,0,0.4c0,0.2-0.1,0.4-0.1,0.4s0.1,0.1,0.1,0.4s0,0.4,0.1,0.6c0.1,0.3,0.1,0.3,0.2,0.6
	c0.1,0.3,0,0.5,0,0.7c0,0.3,0,0.6,0,0.6s0,0.4,0.1,0.5s0.2,0.3,0.2,0.4s-0.1,0-0.1,0.2s-0.2,0.2-0.2,0.5s0.2,0.2,0.2,0.4
	c0,0.2,0.1,0.7,0.1,0.8c0,0.1,0.1,0.2,0.2,0.2c0,0.1,0,0.6,0,0.8c0,0.2,0,0.4-0.1,0.7c0,0.3-0.1,0.3,0,0.6c0.1,0.2,0,0.4,0.1,0.5
	s0.3,0.1,0.5,0.1s0.9,0,0.9,0s0.3-0.2,0.3-0.4c0-0.2,0-0.1-0.1-0.4s-0.1-0.4-0.2-0.7c-0.1-0.3-0.2-0.3-0.2-0.7
	c0-0.2,0.1-0.5,0.1-0.6c0.1-0.1,0-0.1,0.1-0.3c0-0.2,0.1-0.2,0-0.5s-0.2-0.8-0.2-0.8s0-1.3,0-1.7c0-0.4,0-1.2,0-1.2s0.1-0.7,0-1
	c-0.1-0.2-0.1-0.8-0.1-0.8s0-0.7,0.1-1c0-0.3,0.1-1.6,0.1-1.8c0-0.3,0.1-0.8,0-1.1c0-0.3,0-0.7,0-1s0.1-0.8,0.1-0.8s0.4,1.2,0.5,1.5
	s0.4,1.3,0.5,1.5c0.1,0.3,0.3,0.8,0.4,1s0.1,0.6,0.2,0.8c0.1,0.2,0.3,0.9,0.4,1.1s0.3,0.6,0.3,0.6s0.2,0.8,0.3,1
	c0.1,0.2,0.2,0.6,0.3,0.9c0.1,0.3,0.2,0.5,0.2,0.5l0.1,0.6c0,0.1,0,0.2,0.1,0.2c0,0.1,0.1,0.2,0.1,0.3c0,0.1,0.1,0.4,0.1,0.5
	s-0.1,0.3,0,0.5c0.1,0.3,0.2,0.4,0.2,0.5c0,0.2,0,0.4,0.1,0.5c0,0,0.1,0.1,0.2,0.2c0,0.1-0.1,0.4-0.1,0.5c0,0.2,0,0.6,0,0.8
	s0,0.5,0,0.7s0.1,0.7,0.3,0.7c0.2,0,1.1,0,1.1,0s0-0.2,0.1-0.3c0-0.2,0.2-0.2,0.1-0.5C393.5,328.3,393.5,328.1,393.4,327.9z
	 M385.4,310.1c0-0.2,0.1-0.2,0-0.4c0-0.2,0.1-0.5,0.1-0.5v-0.6l0.2-0.4v-0.5v-0.4l0.1-0.6v-0.5l0,0c0,0.1,0.2,0.3,0.2,0.5
	c0.1,0.2,0.1,0.7,0.1,0.8c0,0.2,0,0.4,0,0.4s0.1,0.2,0,0.4c-0.2,0.1-0.2,0.3-0.2,0.3s-0.3,0.4-0.3,0.7c0,0.3,0.1,0.3,0,0.4
	s-0.1,0.2-0.2,0.2l0,0C385.6,309.8,385.5,309.9,385.4,310.1L385.4,310.1z M384.7,313.8L384.7,313.8L384.7,313.8L384.7,313.8z
	 M385.2,315.1c-0.1-0.1-0.1-0.3-0.2-0.5C385.1,314.8,385.2,315,385.2,315.1z M392.1,314.9c0,0.1,0,0.2-0.1,0.3l-0.1,0.1
	c0,0,0,0,0-0.1l0,0c0-0.1,0.1-0.3,0.1-0.4s0-0.5,0-0.6c0.1-0.1,0.2,0,0.2,0.1C392.1,314.5,392.1,314.8,392.1,314.9z M391.7,313.5
	c0-0.1-0.1-0.4-0.1-0.6c0-0.3,0.1-0.4,0-0.7c0-0.2,0-1.4-0.2-1.7c0-0.2,0-1.6,0-1.8c0-0.2,0-0.2,0-0.2s0.1,0.3,0.1,0.5
	c0,0.1,0.1,0.2,0.1,0.4c0,0.1,0,0.3,0,0.4s0,0.1,0,0.2s0.1,0.3,0.1,0.5v0.2c0,0.1,0,0.2,0,0.2c0,0.1,0.1,0.2,0.1,0.3
	c0.1,0.2,0,0.5,0,0.7s0,0.1,0,0.5s-0.1,0.5-0.1,0.5l0.1,0.1l0,0C391.9,313.2,391.8,313.3,391.7,313.5z M385,315.8
	c-0.1-0.1-0.1-0.2-0.1-0.2s0.1,0.1,0.2,0.2l0.1,0.1c0,0.1,0,0.1,0,0.2C385.1,316,385,315.9,385,315.8z"/>
<path class="st13" d="M561,326.4c-0.1-0.2-0.1-0.5-0.2-0.7c0-0.2-0.1-0.5-0.1-0.6s0-0.1,0-0.2l0.1-0.1c0.1-0.2,0-0.5,0-0.7
	s0.1-0.5,0.1-0.8s-0.1-0.2-0.2-0.6c0-0.5-0.3-1.5-0.3-1.8s-0.1-0.6-0.2-1c-0.1-0.4-0.3-0.8-0.3-1c-0.1-0.1-0.1-0.6-0.2-0.8
	c-0.1-0.3,0-1.3-0.1-1.5s-0.2-0.9-0.2-0.9s0-0.6,0-0.8v-0.1c0.1-0.1,0.4-0.4,0.4-0.5c0.1-0.1,0.2-0.2,0.2-0.3
	c0.1-0.1,0.3-0.7,0.3-0.8c0-0.1,0-0.3,0-0.3s-0.2-0.9-0.2-1h0.1c0,0,0.2-0.3,0.2-0.5s0.1-0.5,0.1-0.5s0-0.3-0.1-0.6
	c0-0.3-0.1-0.1,0-0.4c0.1-0.2,0.1-0.9,0.1-1.2s-0.1-0.8-0.1-0.8s0-0.2,0-0.7s0-0.5,0-0.5v-0.4c0,0,0-1.4-0.1-1.8
	c-0.1-0.5-0.1-2.1-0.2-2.3s-0.1-0.8-0.3-1.1c-0.2-0.2-0.5-0.3-0.7-0.4c0.1,0,0.2,0,0.3-0.1c0,0-0.8,0-0.8-0.3c0-0.4,0.1-1.8,0-2.5
	s-0.7-3.1-1.6-3.1s-0.8,0.2-0.9,0.2c0,0-0.5-0.1-0.8,0.3s-0.9,1.3-1,2.1c-0.1,0.8-0.2,1.4-0.2,1.7c0,0.3,0,0.7-0.2,0.9
	s-0.3,0.3-0.5,0.5c-0.2,0.1-0.4,0.4-0.6,0.3c0,0,0.2,0.2,0.5-0.1c0,0-0.2,0.5-0.6,0.5c0,0,0.2,0,0.3,0c-0.4,0.2-0.9,0.6-0.9,0.9
	c-0.1,0.3,0,0.5-0.2,0.7c-0.1,0.2-0.1,0.7-0.1,0.9s-0.2,1-0.2,1.4s0,0.8,0,1s0.2,0.3,0,0.5s-0.1,0.4-0.1,0.4s0,0.1,0.1,0.3
	c0.1,0.2,0,0.2,0,0.3c0,0.1,0,0.1,0,0.3c0,0.1-0.2,1.5-0.2,1.5c0,0.1-0.1,0.8-0.1,1.2c0,0.4-0.1,1.1,0,1.5s0,0.5,0,0.5s0,0,0.1,0
	c0,0.1,0.1,0.7,0.1,0.9c0,0.2,0.1,0.5,0.2,0.6c0.1,0.1,0.1,0.2,0.2,0.3c0.1,0.1,0.2,0.3,0.3,0.3c0.1,0.1,0.3,0.2,0.4,0.2v0.1
	c0.1,0.3,0.1,0.5,0.2,0.6c0.1,0.2,0.1,0.4,0.1,0.7c0,0.3,0.1,0.4,0.1,0.7c0,0.3,0.1,0.5,0.1,0.5l0.1,0.6c0,0,0,0.4,0.1,0.6
	s0,0.3,0,0.4c0,0.2-0.1,0.4-0.1,0.4s0.1,0.1,0.1,0.4s0,0.4,0.1,0.6c0.1,0.3,0.1,0.3,0.2,0.6c0.1,0.3,0,0.5,0,0.7c0,0.3,0,0.6,0,0.6
	s0,0.4,0.1,0.5s0.2,0.3,0.2,0.4s-0.1,0-0.1,0.2s-0.2,0.2-0.2,0.5s0.2,0.2,0.2,0.4c0,0.2,0.1,0.7,0.1,0.8c0,0.1,0.1,0.2,0.2,0.2
	c0,0.1,0,0.6,0,0.8c0,0.2,0,0.4-0.1,0.7c0,0.3-0.1,0.3,0,0.6c0.1,0.2,0,0.4,0.1,0.5s0.3,0.1,0.5,0.1s0.9,0,0.9,0s0.3-0.2,0.3-0.4
	c0-0.2,0-0.1-0.1-0.4s-0.1-0.4-0.2-0.7c-0.1-0.3-0.2-0.3-0.2-0.7c0-0.2,0.1-0.5,0.1-0.6c0.1-0.1,0-0.1,0.1-0.3c0-0.2,0.1-0.2,0-0.5
	s-0.2-0.8-0.2-0.8s0-1.3,0-1.7c0-0.4,0-1.2,0-1.2s0.1-0.7,0-1c-0.1-0.2-0.1-0.8-0.1-0.8s0-0.7,0.1-1c0-0.3,0.1-1.6,0.1-1.8
	c0-0.3,0.1-0.8,0-1.1c0-0.3,0-0.7,0-1s0.1-0.8,0.1-0.8s0.4,1.2,0.5,1.5s0.4,1.3,0.5,1.5c0.1,0.3,0.3,0.8,0.4,1
	c0.1,0.2,0.1,0.6,0.2,0.8c0.1,0.2,0.3,0.9,0.4,1.1c0.1,0.2,0.3,0.6,0.3,0.6s0.2,0.8,0.3,1s0.2,0.6,0.3,0.9s0.2,0.5,0.2,0.5l0.1,0.6
	c0,0.1,0,0.2,0.1,0.2c0,0.1,0.1,0.2,0.1,0.3c0,0.1,0.1,0.4,0.1,0.5s-0.1,0.3,0,0.5c0.1,0.3,0.2,0.4,0.2,0.5c0,0.2,0,0.4,0.1,0.5
	c0,0,0.1,0.1,0.2,0.2c0,0.1-0.1,0.4-0.1,0.5c0,0.2,0,0.6,0,0.8s0,0.5,0,0.7s0.1,0.7,0.3,0.7s1.1,0,1.1,0s0-0.2,0.1-0.3
	c0-0.2,0.2-0.2,0.1-0.5C561,326.8,561.1,326.7,561,326.4z M553,308.6c0-0.2,0.1-0.2,0-0.4c0-0.2,0.1-0.5,0.1-0.5v-0.6l0.2-0.4v-0.5
	v-0.4l0.1-0.6v-0.5l0,0c0,0.1,0.2,0.3,0.2,0.5c0.1,0.2,0.1,0.7,0.1,0.8c0,0.2,0,0.4,0,0.4s0.1,0.2,0,0.4c-0.2,0.1-0.2,0.3-0.2,0.3
	s-0.3,0.4-0.3,0.7c0,0.3,0.1,0.3,0,0.4s-0.1,0.2-0.2,0.2l0,0C553.1,308.4,553,308.5,553,308.6C552.9,308.6,553,308.6,553,308.6z
	 M552.3,312.4L552.3,312.4L552.3,312.4L552.3,312.4z M552.7,313.7c-0.1-0.1-0.1-0.3-0.2-0.5C552.7,313.4,552.7,313.5,552.7,313.7z
	 M559.6,313.5c0,0.1,0,0.2-0.1,0.3l-0.1,0.1c0,0,0,0,0-0.1l0,0c0-0.1,0.1-0.3,0.1-0.4s0-0.5,0-0.6c0.1-0.1,0.2,0,0.2,0.1
	S559.6,313.4,559.6,313.5z M559.3,312c0-0.1-0.1-0.4-0.1-0.6c0-0.3,0-0.4,0-0.7c0-0.2,0-1.4-0.2-1.7c0-0.2,0-1.6,0-1.8
	c0-0.2,0-0.2,0-0.2s0.1,0.3,0.1,0.5c0,0.1,0.1,0.2,0.1,0.4c0,0.1,0,0.3,0,0.4s0,0.1,0,0.2s0.1,0.3,0.1,0.5v0.2c0,0.1,0,0.2,0,0.2
	c0,0.1,0.1,0.2,0.1,0.3c0.1,0.2,0,0.5,0,0.7s0,0.1,0,0.5s-0.1,0.5-0.1,0.5l0.1,0.1l0,0C559.4,311.8,559.3,311.9,559.3,312z
	 M552.5,314.3c-0.1-0.1-0.1-0.2-0.1-0.2s0.1,0.1,0.2,0.2l0.1,0.1c0,0.1,0,0.1,0,0.2C552.7,314.5,552.6,314.4,552.5,314.3z"/>
<ellipse class="st1" cx="28.3" cy="209.1" rx="12.2" ry="12.2"/>
<rect x="26.3" y="214.6" class="st2" width="3.9" height="2.6"/>
<g>
	<path class="st2" d="M28,204.5v-1.8c-0.3-0.1,0.9-0.1,0.6,0v1.8c0.7,0,1.8,1.1,1.8,2.3h-4.1C26.2,205.6,27.1,204.5,28,204.5z"/>
</g>
<path class="st3" d="M35.6,211.9c0,2.6-1,3.6-3.6,3.6h-7.5c-2.6,0-3.6-1-3.6-3.6v-3.5c0-2.6,1-3.6,3.6-3.6H32c2.6,0,3.6,1,3.6,3.6
	V211.9z"/>
<path class="st2" d="M32,204.8h-0.8c2.6,0,3.6,1,3.6,3.6v3.5c0,2.6-1,3.6-3.6,3.6H32c2.6,0,3.6-1,3.6-3.6v-3.5
	C35.6,205.8,34.6,204.8,32,204.8z"/>
<path class="st2" d="M34.9,208c0.9,0.1,1.6,0.2,1.6,2s-0.6,1.8-1.5,2L34.9,208z"/>
<path class="st3" d="M21.7,208c-0.9,0.1-1.6,0.2-1.6,2s0.6,1.8,1.5,2L21.7,208z"/>
<g>
	<path class="st3" d="M32,216.7h-7.5c-2.6,0-3.6,1-3.6,3.6v1.4h14.7v-1.4C35.6,217.7,34.6,216.7,32,216.7z"/>
	<path class="st2" d="M32,216.7h-0.9c2.3,0,3.3,0.8,3.5,2.8c0.5-0.3,0.8-0.5,0.8-0.5C35.1,217.4,34.1,216.7,32,216.7z"/>
</g>
<path class="st1" d="M24.8,213c-1.6,0-2.1-0.5-2.1-2.1v-1.5c0-1.6,0.5-2.1,2.1-2.1h6.8c1.6,0,2.1,0.5,2.1,2.1v1.6
	c0,1.6-0.5,2.1-2.1,2.1h-6.8C24.8,213.1,24.8,213,24.8,213z"/>
<g>
	<path class="st3" d="M30.1,210.1c0-0.4,0.3-0.8,0.8-0.8c0.4,0,0.8,0.3,0.8,0.8c0,0.4-0.3,0.8-0.8,0.8S30.1,210.6,30.1,210.1z"/>
	<path class="st3" d="M24.9,210.1c0-0.4,0.3-0.8,0.8-0.8c0.4,0,0.8,0.3,0.8,0.8c0,0.4-0.3,0.8-0.8,0.8
		C25.3,210.9,24.9,210.6,24.9,210.1z"/>
</g>
<path class="st3" d="M29.1,201.8c0-0.5-0.4-0.9-0.9-0.9s-0.9,0.4-0.9,0.9s0.4,0.9,0.9,0.9C28.8,202.7,29.1,202.3,29.1,201.8z"/>
<path class="st3" d="M30.3,206c-0.1-1-0.2-1.7-2.1-1.7s-1.9,0.6-2,1.5L30.3,206z"/>
<g>
	<polygon class="st3" points="293.5,33.4 303.4,33.4 303.4,29.9 293.5,29.9 293.5,25.4 304.3,25.4 304.3,21.6 288.9,21.6 
		288.9,42.3 304.6,42.3 304.6,38.4 293.5,38.4 	"/>
	<path class="st3" d="M314.2,21.6l-7.8,20.6h4.6l1.6-4.6h7.7l1.6,4.6h4.7l-7.7-20.6H314.2z M313.8,34.3l2.7-7.6h0.1l2.6,7.6H313.8z"
		/>
	<path class="st3" d="M339.1,30.2c-4.9-1.2-5.9-1.5-5.9-3c0-1.6,1.6-2.2,3-2.2c2.1,0,3.7,0.6,3.9,3h4.2c0-4.5-3.8-6.3-7.9-6.3
		c-3.6,0-7.4,1.9-7.4,6c0,3.6,2.9,4.9,5.9,5.6c2.9,0.8,5.8,1.1,5.8,3.3c0,2-2.3,2.5-3.8,2.5c-2.3,0-4.4-1-4.4-3.6h-4.2
		c-0.1,4.9,4,7,8.4,7c5.4,0,8.2-2.7,8.2-6.3C344.9,31.5,340.6,30.5,339.1,30.2z"/>
	<polygon class="st3" points="356.7,29.8 351.8,21.6 346.7,21.6 354.3,34.2 354.3,42.3 358.9,42.3 358.9,34.3 366.5,21.6 
		361.5,21.6 	"/>
	<path class="st3" d="M378,38.6c-3.9,0-5.3-3.3-5.3-6.6c0-3.5,1.5-6.8,5.3-6.8c2.1,0,4,1.5,4.3,3.5h4.2c-0.5-4.5-4.2-7.1-8.5-7.1
		c-6.1,0-9.7,4.5-9.7,10.4c0,5.7,3.6,10.2,9.7,10.2c4.9,0,8.2-3.1,8.7-8h-4.2C382.1,36.8,380.6,38.6,378,38.6z"/>
	<polygon class="st3" points="394.8,21.6 390.2,21.6 390.2,42.2 404.8,42.2 404.8,38.4 394.8,38.4 	"/>
	<path class="st3" d="M419,21.6h-4.6l-7.8,20.6h4.6l1.6-4.6h7.7l1.6,4.6h4.7L419,21.6z M414,34.3l2.7-7.6h0.1l2.6,7.6H414z"/>
	<path class="st3" d="M269.3,10.1c-8.9,0-16,7.2-16,16s7.2,16,16,16c8.9,0,16-7.2,16-16S278.2,10.1,269.3,10.1z M257.3,29.5
		c-0.8,0-1.5-0.6-1.5-1.5s0.6-1.5,1.5-1.5s1.5,0.6,1.5,1.5S258.1,29.5,257.3,29.5z M261.3,29.5c-0.8,0-1.5-0.6-1.5-1.5
		s0.6-1.5,1.5-1.5s1.5,0.6,1.5,1.5S262.1,29.5,261.3,29.5z M261.3,25.6c-0.8,0-1.5-0.6-1.5-1.5s0.6-1.5,1.5-1.5s1.5,0.6,1.5,1.5
		S262.1,25.6,261.3,25.6z M266.7,27.1v1.2v0.1v0.5v2.5v0.1V32c0,0.8-0.6,1.4-1.4,1.4s-1.4-0.6-1.4-1.4v-0.5v-0.1v-2.5v-0.5v-0.1
		v-1.2v-3c0-0.8,0.6-1.4,1.4-1.4s1.4,0.6,1.4,1.4V27.1z M265.3,22c-0.8,0-1.5-0.6-1.5-1.5c0-0.8,0.6-1.5,1.5-1.5
		c0.8,0,1.5,0.6,1.5,1.5S266.1,22,265.3,22z M269.3,29.5c-0.8,0-1.5-0.6-1.5-1.5s0.6-1.5,1.5-1.5s1.5,0.6,1.5,1.5
		S270.1,29.5,269.3,29.5z M274.7,27.1v1.2v0.1v0.5v2.5v0.1V32c0,0.8-0.6,1.4-1.4,1.4s-1.4-0.6-1.4-1.4v-0.5v-0.1v-2.5v-0.5v-0.1
		v-1.2v-3c0-0.8,0.6-1.4,1.4-1.4s1.4,0.6,1.4,1.4V27.1z M273.3,22c-0.8,0-1.5-0.6-1.5-1.5c0-0.8,0.6-1.5,1.5-1.5
		c0.8,0,1.5,0.6,1.5,1.5S274.1,22,273.3,22z M277.3,29.5c-0.8,0-1.5-0.6-1.5-1.5s0.6-1.5,1.5-1.5s1.5,0.6,1.5,1.5
		S278.1,29.5,277.3,29.5z M277.3,25.6c-0.8,0-1.5-0.6-1.5-1.5s0.6-1.5,1.5-1.5s1.5,0.6,1.5,1.5S278.1,25.6,277.3,25.6z M281.3,29.5
		c-0.8,0-1.5-0.6-1.5-1.5s0.6-1.5,1.5-1.5s1.5,0.6,1.5,1.5C282.7,28.8,282.1,29.5,281.3,29.5z"/>
	<g>
		<path class="st3" d="M292.4,18c-2.3,0-3.3-1.8-3.3-3.6s1-3.6,3.3-3.6c1.3,0,2.4,0.7,2.7,2h0.8c-0.2-1.7-1.8-2.7-3.5-2.7
			c-2.8,0-4.1,2-4.1,4.3s1.4,4.3,4.1,4.3c2,0,3.4-1.3,3.6-3.3h-0.8C295,16.8,294,18,292.4,18z"/>
		<path class="st3" d="M301.2,10.1c-2.7,0-4.1,2-4.1,4.3s1.4,4.3,4.1,4.3s4.1-2,4.1-4.3C305.3,12.1,303.9,10.1,301.2,10.1z
			 M301.2,18c-2.3,0-3.3-1.8-3.3-3.6s1-3.6,3.3-3.6s3.2,1.8,3.2,3.6C304.4,16.2,303.4,18,301.2,18z"/>
		<polygon class="st3" points="310.6,17.6 307.6,10.1 306.4,10.1 306.4,18.7 307.2,18.7 307.2,11.3 307.2,11.3 310.2,18.7 311,18.7 
			313.9,11.3 314,11.3 314,18.7 314.8,18.7 314.8,10.1 313.6,10.1 		"/>
		<polygon class="st3" points="320.1,17.6 317.1,10.1 315.9,10.1 315.9,18.7 316.7,18.7 316.7,11.3 316.8,11.3 319.7,18.7 
			320.5,18.7 323.5,11.3 323.5,11.3 323.5,18.7 324.3,18.7 324.3,10.1 323.1,10.1 		"/>
		<path class="st3" d="M330.9,15.3c0,1.3-0.4,1.8-1.8,1.8c-1.5,0-1.8-0.9-1.8-1.8v-5.2h-1.9v5.2c0,2.3,1.3,3.4,3.7,3.4
			c2.3,0,3.7-1.1,3.7-3.4v-5.2h-1.9L330.9,15.3L330.9,15.3z"/>
		<polygon class="st3" points="339.5,15.9 339.5,15.9 335.8,10.1 333.9,10.1 333.9,18.7 335.7,18.7 335.7,12.9 335.8,12.9 
			339.4,18.7 341.3,18.7 341.3,10.1 339.5,10.1 		"/>
		<rect x="342.4" y="10.1" class="st3" width="1.9" height="8.6"/>
		<polygon class="st3" points="345.4,11.7 348,11.7 348,18.7 349.9,18.7 349.9,11.7 352.5,11.7 352.5,10.1 345.4,10.1 		"/>
		<polygon class="st3" points="357.8,13.5 355.8,10.1 353.6,10.1 356.8,15.4 356.8,18.7 358.7,18.7 358.7,15.4 361.9,10.1 
			359.8,10.1 		"/>
		<path class="st3" d="M368,14.1L368,14.1c0.9-0.2,1.5-1,1.5-1.9c0-1.6-1.3-2.1-2.8-2.1H363v8.6h3.7c2.8,0,3.1-1.6,3.1-2.4
			C369.8,15.1,369.1,14.3,368,14.1z M363.9,10.8h2.8c1.3,0,2,0.6,2,1.6c0,0.8-0.6,1.5-2,1.5h-2.8V10.8z M366.7,18h-2.8v-3.4h2.8
			c1.5,0,2.3,0.6,2.3,1.6C369,17.6,367.9,18,366.7,18z"/>
		<path class="st3" d="M375.5,14.6L375.5,14.6c1.1-0.2,1.7-1.1,1.7-2.2c0-1.6-1.2-2.2-2.6-2.2h-4v8.6h0.8V15h3.1
			c1.6-0.1,1.7,1.3,1.7,2.5c0,0.4,0,1,0.2,1.3h0.9c-0.4-0.4-0.4-1.6-0.4-2.2C377,15.5,376.7,14.7,375.5,14.6z M374.5,14.2h-3.1v-3.4
			h3.1c1.3,0,1.9,0.7,1.9,1.7C376.4,13.6,375.5,14.2,374.5,14.2z"/>
		<rect x="378.6" y="10.1" class="st3" width="0.8" height="8.6"/>
		<path class="st3" d="M383.5,10.1h-3v8.6h3c2.6-0.1,4-1.5,4-4.3S386.1,10.2,383.5,10.1z M383.1,18h-1.8v-7.2h1.8
			c2.5,0,3.6,1,3.6,3.6S385.6,18,383.1,18z"/>
		<path class="st3" d="M392.8,15h2.9c0,1.8-1.1,3-3,3c-2.3,0-3.3-1.8-3.3-3.6s1-3.6,3.3-3.6c1.6,0,2.7,1.1,2.8,2.1h0.8
			c-0.3-1.8-1.8-2.7-3.6-2.7c-2.7,0-4.1,2-4.1,4.3s1.4,4.3,4.1,4.3c1.3,0,2.4-0.5,3-1.7l0,0l0.1,1.5h0.6v-4.2h-3.7L392.8,15
			L392.8,15z"/>
		<polygon class="st3" points="398.4,18 398.4,14.6 403.2,14.6 403.2,13.9 398.4,13.9 398.4,10.8 403.5,10.8 403.5,10.1 397.5,10.1 
			397.5,18.7 403.6,18.7 403.6,18 		"/>
	</g>
</g>
<g>
	<path class="st15" d="M69.3,128.9h13.5c0.9,0,1.7,0.8,1.7,1.7v13.5c0,0.9-0.8,1.7-1.7,1.7H69.3c-0.9,0-1.7-0.8-1.7-1.7v-13.5
		C67.6,129.7,68.4,128.9,69.3,128.9z"/>
	<path class="st3" d="M87.9,134H74.4c-0.9,0-1.7,0.8-1.7,1.7v13.5c0,0.9,0.8,1.7,1.7,1.7h13.5c0.9,0,1.7-0.8,1.7-1.7v-13.5
		C89.6,134.8,88.9,134,87.9,134z M80.3,145.8h-1.7v1.7h-1.7v-1.7h-1.7v-1.7h1.7v-1.7h1.7v1.7h1.7V145.8z M80.3,139.9h-5.1v-1.7h5.1
		V139.9z M87.1,145.8h-1.7v1.7h-1.7v-1.7H82v-1.7h1.7v-1.7h1.7v1.7h1.7V145.8z M87.1,139.9H82v-1.7h5.1V139.9z"/>
</g>
</svg>
