<svg id="Capa_1" enable-background="new 0 4, 156, 236" height="512" viewBox="0 0 512 512" width="512" xmlns="http://www.w3.org/2000/svg"><g><path d="m200 179.771h36.664v30h-36.664z"/><path d="m200 120.22h36.664v30h-36.664z"/><path d="m200 60.669h36.664v30h-36.664z"/><path d="m200 239.346h36.664v30h-36.664z"/><path d="m275.336 179.771h36.664v30h-36.664z"/><path d="m275.336 120.22h36.664v30h-36.664z"/><path d="m275.336 60.669h36.664v30h-36.664z"/><path d="m275.336 239.346h36.664v30h-36.664z"/><path d="m482.167 412v-296.56l-102.404-56v-59.44h-247.525v173.798h-102.405v238.202h-29.833v100h512v-100zm-30-278.773v15.669h-38.078v30h38.078v29.55h-38.078v30h38.078v29.551h-38.078v30h38.078v114.003h-72.404v-318.367zm-102.404-103.227v382h-37.763v-115.085h-112v115.085h-37.762v-382zm-67.763 382h-52v-85.085h52zm-222.167-29.576h38.077v-30h-38.077v-29.55h38.077v-30h-38.077v-29.551h38.077v-30h-38.077v-29.525h72.404v208.202h-72.404zm422.167 99.576h-452v-40h452z"/></g></svg>
