<svg id="Capa_1" enable-background="new 0 0 505.607 505.607" height="512" viewBox="0 0 505.607 505.607" width="512" xmlns="http://www.w3.org/2000/svg"><g><path d="m0 0v420h512v-420zm482 30v90h-452v-90zm-452 360v-240h452v240z"/><path d="m60 60h30v30h-30z"/><path d="m120 60h30v30h-30z"/><path d="m180 60h30v30h-30z"/><path d="m147.858 196.278-74.247 74.247 74.247 74.246 21.213-21.213-53.034-53.033 53.034-53.034z"/><path d="m342.858 217.491 53.035 53.034-53.035 53.033 21.213 21.213 74.247-74.246-74.247-74.247z"/><path d="m187.206 252.461h137.587v30.001h-137.587z" transform="matrix(.514 -.858 .858 .514 -105.033 349.48)"/></g></svg>