<?xml version="1.0" encoding="iso-8859-1"?>
<!-- Generator: Adobe Illustrator 19.0.0, SVG Export Plug-In . SVG Version: 6.00 Build 0)  -->
<svg version="1.1" id="Capa_1" xmlns="http://www.w3.org/2000/svg" xmlns:xlink="http://www.w3.org/1999/xlink" x="0px" y="0px"
	 viewBox="0 0 512 512" style="enable-background:new 0 0 512 512;" xml:space="preserve">
<g>
	<g>
		<path d="M256,288.389c-153.837,0-238.56,72.776-238.56,204.925c0,10.321,8.365,18.686,18.686,18.686h439.747
			c10.321,0,18.686-8.365,18.686-18.686C494.56,361.172,409.837,288.389,256,288.389z M55.492,474.628
			c7.35-98.806,74.713-148.866,200.508-148.866s193.159,50.06,200.515,148.866H55.492z"/>
	</g>
</g>
<g>
	<g>
		<path d="M256,0c-70.665,0-123.951,54.358-123.951,126.437c0,74.19,55.604,134.54,123.951,134.54s123.951-60.35,123.951-134.534
			C379.951,54.358,326.665,0,256,0z M256,223.611c-47.743,0-86.579-43.589-86.579-97.168c0-51.611,36.413-89.071,86.579-89.071
			c49.363,0,86.579,38.288,86.579,89.071C342.579,180.022,303.743,223.611,256,223.611z"/>
	</g>
</g>
<g>
</g>
<g>
</g>
<g>
</g>
<g>
</g>
<g>
</g>
<g>
</g>
<g>
</g>
<g>
</g>
<g>
</g>
<g>
</g>
<g>
</g>
<g>
</g>
<g>
</g>
<g>
</g>
<g>
</g>
</svg>
