<svg id="Layer_1" data-name="Layer 1" xmlns="http://www.w3.org/2000/svg" viewBox="0 0 187.8 67.48"><defs><style>.cls-1{fill:#003764;}.cls-2{fill:#009bde;}</style></defs><title>LF Logo</title><polygon class="cls-1" points="73.18 3.96 83.7 3.96 83.7 5.04 79.07 5.04 79.07 17.24 77.81 17.24 77.81 5.04 73.18 5.04 73.18 3.96"/><polygon class="cls-1" points="84.95 3.96 86.22 3.96 86.22 9.73 94.1 9.73 94.1 3.96 95.36 3.96 95.36 17.24 94.1 17.24 94.1 10.81 86.22 10.81 86.22 17.24 84.95 17.24 84.95 3.96"/><polygon class="cls-1" points="98.04 3.96 107.21 3.96 107.21 5.04 99.31 5.04 99.31 9.84 106.71 9.84 106.71 10.92 99.31 10.92 99.31 16.16 107.3 16.16 107.3 17.24 98.04 17.24 98.04 3.96"/><polygon class="cls-1" points="73.23 50.18 81.66 50.18 81.66 51.26 74.5 51.26 74.5 56.06 80.86 56.06 80.86 57.14 74.5 57.14 74.5 63.46 73.23 63.46 73.23 50.18"/><path class="cls-1" d="M88.78,49.9c4.16,0,6.25,3.27,6.25,6.92s-2.08,6.92-6.25,6.92-6.27-3.27-6.27-6.92,2.08-6.92,6.27-6.92m0,12.75c3.5,0,5-2.94,5-5.84S92.27,51,88.78,51s-5,2.94-5,5.84,1.49,5.84,5,5.84"/><path class="cls-1" d="M96.87,50.18h1.26V58.4c0,3.07,1.43,4.26,3.89,4.26s3.9-1.19,3.9-4.26V50.18h1.26v8.5c0,2.73-1.47,5.06-5.17,5.06s-5.15-2.32-5.15-5.06v-8.5Z"/><polygon class="cls-1" points="109.72 50.18 111.13 50.18 118.87 61.41 118.9 61.41 118.9 50.18 120.17 50.18 120.17 63.46 118.75 63.46 111.02 52.23 110.98 52.23 110.98 63.46 109.72 63.46 109.72 50.18"/><path class="cls-1" d="M122.83,50.18h4.59c4,0.09,6.1,2.25,6.1,6.64s-2.08,6.54-6.1,6.64h-4.59V50.18Zm1.26,12.2h2.7c3.81,0,5.47-1.58,5.47-5.56s-1.65-5.56-5.47-5.56h-2.7V62.38Z"/><path class="cls-1" d="M139.45,50.18h1.41l5.21,13.28h-1.36l-1.62-4.13h-6l-1.6,4.13H134.1Zm-2,8.07h5.22l-2.57-6.8Z"/><polygon class="cls-1" points="144.59 50.18 155.11 50.18 155.11 51.26 150.48 51.26 150.48 63.46 149.22 63.46 149.22 51.26 144.59 51.26 144.59 50.18"/><rect class="cls-1" x="156.45" y="50.18" width="1.26" height="13.28"/><path class="cls-1" d="M166,49.9c4.16,0,6.25,3.27,6.25,6.92s-2.08,6.92-6.25,6.92-6.27-3.27-6.27-6.92,2.08-6.92,6.27-6.92m0,12.75c3.5,0,5-2.94,5-5.84S169.54,51,166,51s-5,2.94-5,5.84,1.49,5.84,5,5.84"/><polygon class="cls-1" points="174.25 50.18 175.66 50.18 183.39 61.41 183.43 61.41 183.43 50.18 184.69 50.18 184.69 63.46 183.28 63.46 175.55 52.23 175.51 52.23 175.51 63.46 174.25 63.46 174.25 50.18"/><polygon class="cls-1" points="73.18 21.63 80.37 21.63 80.37 38.98 90.69 38.98 90.69 44.95 73.18 44.95 73.18 21.63"/><rect class="cls-1" x="95.39" y="21.63" width="7.19" height="23.32"/><polygon class="cls-1" points="107.93 21.63 115.28 21.63 122.07 34.11 122.14 34.11 122.14 21.63 128.93 21.63 128.93 44.95 121.94 44.95 114.79 32.22 114.72 32.22 114.72 44.95 107.93 44.95 107.93 21.63"/><path class="cls-1" d="M155.48,35.94c0,6.5-3.43,9.57-10.62,9.57s-10.65-3.07-10.65-9.57V21.63h7.19V34.34c0,2.35,0,5.36,3.5,5.36s3.4-3,3.4-5.36V21.63h7.19V35.94Z"/><polygon class="cls-1" points="166.91 32.54 159.24 21.63 167.67 21.63 171.19 27.97 174.66 21.63 182.63 21.63 175.15 32.61 183.47 44.95 174.82 44.95 170.83 38 166.72 44.95 158.49 44.95 166.91 32.54"/><polygon class="cls-2" points="15.07 51.52 15.07 27.64 3.11 27.64 3.11 63.46 38.94 63.46 38.94 51.52 15.07 51.52"/><polygon class="cls-1" points="62.82 3.74 3.12 3.74 3.12 21.65 15.05 21.65 15.05 15.73 50.88 15.73 50.88 51.52 44.92 51.52 44.92 63.46 62.82 63.46 62.82 3.74"/></svg>